G04 Layer: BottomLayer*
G04 EasyEDA v6.2.46, 2019-10-16T15:20:01+02:00*
G04 17d91261987f4ea7b1e2a014808d89e6,c2ce4b80da084e9d99782b66b1536189,10*
G04 Gerber Generator version 0.2*
G04 Scale: 100 percent, Rotated: No, Reflected: No *
G04 Dimensions in millimeters *
G04 leading zeros omitted , absolute positions ,3 integer and 3 decimal *
%FSLAX33Y33*%
%MOMM*%
G90*
G71D02*

%ADD10C,0.254000*%
%ADD11C,2.032000*%
%ADD12C,1.499997*%
%ADD14C,1.599997*%

%LPD*%
G54D10*
G01X16510Y33743D02*
G01X18034Y34759D01*
G01X18034Y42125D01*
G01X43180Y42120D01*
G01X45707Y44152D01*
G01X16510Y31203D02*
G01X18542Y33489D01*
G01X18542Y41617D01*
G01X45707Y41617D01*
G01X24130Y3263D02*
G01X25400Y4533D01*
G01X25400Y6057D01*
G01X44704Y6050D01*
G01X44704Y16652D01*
G01X43434Y17741D01*
G01X41148Y17741D01*
G01X39756Y16469D01*
G01X39756Y13929D02*
G01X38608Y12915D01*
G01X36830Y12915D01*
G01X36830Y12407D01*
G01X25654Y12407D01*
G01X24130Y13423D01*
G01X42296Y13929D02*
G01X43688Y12915D01*
G01X43688Y8343D01*
G01X24130Y8343D01*
G01X39756Y11389D02*
G01X40223Y11219D01*
G01X38608Y12407D01*
G01X37338Y12407D01*
G01X37338Y11899D01*
G01X25654Y11899D01*
G01X24130Y10883D01*
G01X39674Y32725D02*
G01X35814Y32727D01*
G01X35814Y29933D01*
G01X18034Y29933D01*
G01X16510Y28663D01*
G01X42265Y25356D02*
G01X41244Y26377D01*
G01X37084Y26377D01*
G01X36068Y27393D01*
G01X17780Y27393D01*
G01X16510Y26123D01*
G01X16510Y8343D02*
G01X16510Y8343D01*
G01X19050Y5854D01*
G01X19050Y1485D01*
G01X36830Y1485D01*
G01X36830Y4787D01*
G01X16510Y5803D02*
G01X18542Y3771D01*
G01X18542Y977D01*
G01X39370Y977D01*
G01X39370Y977D01*
G01X39370Y4787D01*
G01X16510Y3263D02*
G01X18034Y1739D01*
G01X18034Y469D01*
G01X46990Y469D01*
G01X46990Y4787D01*
G01X45707Y46691D02*
G01X25924Y46691D01*
G01X24442Y45209D01*
G01X42296Y16469D02*
G01X44196Y15067D01*
G01X44196Y6565D01*
G01X24892Y6565D01*
G01X24130Y5803D01*
G01X14478Y42880D02*
G01X13462Y41363D01*
G01X11430Y41363D01*
G01X11430Y21297D01*
G01X12954Y19773D01*
G01X20066Y19773D01*
G01X20066Y10883D01*
G01X24130Y10883D01*
G01X4318Y42880D02*
G01X5839Y41363D01*
G01X8890Y41363D01*
G01X8890Y23075D01*
G01X14721Y17244D01*
G01X19558Y17190D01*
G01X19558Y8343D01*
G01X24130Y8343D01*
G01X16510Y10883D02*
G01X18288Y10883D01*
G01X18288Y8089D01*
G01X19558Y7073D01*
G01X19558Y1993D01*
G01X34290Y1993D01*
G01X34290Y4787D01*
G54D11*
G01X27432Y33997D03*
G01X30012Y33997D03*
G54D12*
G01X24130Y3263D03*
G01X24130Y5803D03*
G01X24130Y8343D03*
G01X24130Y10883D03*
G01X24130Y13423D03*
G01X24130Y15963D03*
G01X24130Y18503D03*
G01X24130Y21043D03*
G01X24130Y23583D03*
G01X24130Y26123D03*
G01X24130Y28663D03*
G01X24130Y31203D03*
G01X24130Y33743D03*
G01X24130Y36283D03*
G01X16510Y3263D03*
G01X16510Y5803D03*
G01X16510Y8343D03*
G01X16510Y10883D03*
G01X16510Y13423D03*
G01X16510Y15963D03*
G01X16510Y18503D03*
G01X16510Y21043D03*
G01X16510Y23583D03*
G01X16510Y26123D03*
G01X16510Y28663D03*
G01X16510Y31203D03*
G01X16510Y33743D03*
G36*
G01X15760Y37033D02*
G01X17259Y37033D01*
G01X17259Y35534D01*
G01X15760Y35534D01*
G01X15760Y37033D01*
G37*
G54D14*
G01X45707Y41611D03*
G01X45707Y44151D03*
G01X45707Y39071D03*
G01X45707Y46691D03*
G01X39673Y30185D03*
G01X42213Y30185D03*
G01X39673Y27645D03*
G01X42213Y27645D03*
G01X39673Y25105D03*
G01X42213Y25105D03*
G01X39673Y32725D03*
G01X42213Y32725D03*
G01X39757Y16469D03*
G01X42297Y16469D03*
G01X39757Y13929D03*
G01X42297Y13929D03*
G01X39757Y11389D03*
G01X42297Y11389D03*
G01X39757Y19009D03*
G01X42297Y19009D03*
G01X26982Y45209D03*
G54D12*
G01X21902Y45209D03*
G01X24442Y45209D03*
G54D14*
G01X31865Y44955D03*
G01X34405Y44955D03*
G01X36945Y44955D03*
G01X5080Y33235D03*
G01X7620Y33235D03*
G01X10160Y33235D03*
G01X2540Y33235D03*
G01X12700Y33235D03*
G01X6858Y42879D03*
G01X6858Y45419D03*
G01X9398Y42879D03*
G01X9398Y45419D03*
G01X11938Y42879D03*
G01X11938Y45419D03*
G01X4318Y42879D03*
G01X4318Y45419D03*
G01X14478Y42879D03*
G01X14478Y45419D03*
G01X5427Y12062D03*
G01X5427Y14602D03*
G01X5427Y17142D03*
G01X5427Y19682D03*
G01X34290Y4787D03*
G01X36830Y4787D03*
G01X39370Y4787D03*
G01X41910Y4787D03*
G01X44450Y4787D03*
G01X46990Y4787D03*
M00*
M02*
