G04 ---------------------------- Layer name :BOTTOM LAYER*
G04 EasyEDA v5.8.22, Sun, 20 Jan 2019 09:53:09 GMT*
G04 867d7e44f41141d591986c9d2056cd44*
G04 Gerber Generator version 0.2*
G04 Scale: 100 percent, Rotated: No, Reflected: No *
G04 Dimensions in millimeters *
G04 leading zeros omitted , absolute positions ,3 integer and 3 decimal *
%FSLAX33Y33*%
%MOMM*%
G90*
G71D02*

%ADD10C,0.254000*%
%ADD11C,2.032000*%
%ADD12C,1.499997*%
%ADD13C,1.599997*%
%ADD14R,1.499997X1.499997*%

%LPD*%
G54D10*
G01X24130Y30695D02*
G01X32258Y30695D01*
G01X32258Y34505D01*
G01X39874Y42126D01*
G01X44449Y42122D01*
G01X44451Y44152D01*
G01X45707Y44151D01*
G01X24130Y28155D02*
G01X25908Y29933D01*
G01X32766Y29933D01*
G01X32766Y34251D01*
G01X40132Y41617D01*
G01X45707Y41617D01*
G01X24130Y2755D02*
G01X23096Y2755D01*
G01X21336Y4516D01*
G01X21336Y20281D01*
G01X43434Y20281D01*
G01X43434Y15201D01*
G01X41148Y15201D01*
G01X39756Y16469D01*
G01X42296Y16469D02*
G01X40894Y17741D01*
G01X38572Y17741D01*
G01X37480Y16471D01*
G01X22098Y16451D01*
G01X22098Y7945D01*
G01X22098Y7327D01*
G01X24130Y5295D01*
G01X39756Y13929D02*
G01X38742Y12915D01*
G01X24130Y12915D01*
G01X42296Y13929D02*
G01X42297Y13929D01*
G01X41148Y12242D01*
G01X41148Y7835D01*
G01X24130Y7835D01*
G01X39756Y11389D02*
G01X25146Y11391D01*
G01X24130Y10375D01*
G01X39674Y32725D02*
G01X39621Y32725D01*
G01X38811Y31711D01*
G01X37846Y31711D01*
G01X37792Y24599D01*
G01X25146Y24599D01*
G01X24130Y25615D01*
G01X42214Y25105D02*
G01X40894Y26377D01*
G01X38354Y26377D01*
G01X38354Y24091D01*
G01X25146Y24091D01*
G01X24130Y23075D01*
G01X16510Y10375D02*
G01X19050Y8597D01*
G01X19050Y1485D01*
G01X40894Y1485D01*
G01X40894Y4749D01*
G01X40820Y4823D01*
G01X16510Y7835D02*
G01X18542Y6311D01*
G01X18542Y977D01*
G01X43180Y977D01*
G01X43180Y4643D01*
G01X43360Y4823D01*
G01X16510Y2755D02*
G01X18034Y1485D01*
G01X18034Y469D01*
G01X45968Y469D01*
G01X45900Y4823D01*
G54D11*
G01X29972Y33997D03*
G01X27391Y33997D03*
G54D12*
G01X11938Y17741D03*
G01X11938Y12661D03*
G54D13*
G01X7112Y45173D03*
G01X9652Y45173D03*
G01X7112Y42633D03*
G01X9652Y42633D03*
G01X7112Y40093D03*
G01X9652Y40093D03*
G54D12*
G01X24130Y2755D03*
G01X24130Y5295D03*
G01X24130Y7835D03*
G01X24130Y10375D03*
G01X24130Y12915D03*
G01X24130Y15455D03*
G01X24130Y17995D03*
G01X24130Y20535D03*
G01X24130Y23075D03*
G01X24130Y25615D03*
G01X24130Y28155D03*
G01X24130Y30695D03*
G01X24130Y33235D03*
G01X24130Y35775D03*
G01X16510Y2755D03*
G01X16510Y5295D03*
G01X16510Y7835D03*
G01X16510Y10375D03*
G01X16510Y12915D03*
G01X16510Y15455D03*
G01X16510Y17995D03*
G01X16510Y20535D03*
G01X16510Y23075D03*
G01X16510Y25615D03*
G01X16510Y28155D03*
G01X16510Y30695D03*
G01X16510Y33235D03*
G54D14*
G01X16510Y35775D03*
G54D13*
G01X45707Y41611D03*
G01X45707Y44151D03*
G01X45707Y39071D03*
G01X45707Y46691D03*
G01X5428Y12062D03*
G01X5428Y14602D03*
G01X5428Y17142D03*
G01X5428Y19682D03*
G01X35740Y4823D03*
G01X38280Y4823D03*
G01X40820Y4823D03*
G01X43360Y4823D03*
G01X45900Y4823D03*
G01X39673Y30185D03*
G01X42213Y30185D03*
G01X39673Y27645D03*
G01X42213Y27645D03*
G01X39673Y25105D03*
G01X42213Y25105D03*
G01X39673Y32725D03*
G01X42213Y32725D03*
G01X39757Y16469D03*
G01X42297Y16469D03*
G01X39757Y13929D03*
G01X42297Y13929D03*
G01X39757Y11389D03*
G01X42297Y11389D03*
G01X39757Y19009D03*
G01X42297Y19009D03*
G01X24188Y44955D03*
G54D12*
G01X19108Y44955D03*
G01X21648Y44955D03*
G54D13*
G01X30480Y44919D03*
G01X33020Y44919D03*
G01X35560Y44919D03*
G01X5080Y33235D03*
G01X7620Y33235D03*
G01X10160Y33235D03*
G01X2540Y33235D03*
G01X12700Y33235D03*
M00*
M02*
