;PTH Drill file created by EasyEDA 
M48
METRIC,LZ,000.000
;Holesize 1 = 0.803 METRIC
T01C0.803
;Holesize 2 = 0.813 METRIC
T02C0.813
;Holesize 3 = 0.901 METRIC
T03C0.901
;Holesize 4 = 0.910 METRIC
T04C0.910
;Holesize 5 = 1.001 METRIC
T05C1.001
%
G05
G90
T01
X+011938Y+017741
X+011938Y+012661
T02
X+029972Y+033997
X+027391Y+033997
T03
X+024130Y+002755
X+024130Y+005295
X+024130Y+007835
X+024130Y+010375
X+024130Y+012915
X+024130Y+015455
X+024130Y+017995
X+024130Y+020535
X+024130Y+023075
X+024130Y+025615
X+024130Y+028155
X+024130Y+030695
X+024130Y+033235
X+024130Y+035775
X+016510Y+002755
X+016510Y+005295
X+016510Y+007835
X+016510Y+010375
X+016510Y+012915
X+016510Y+015455
X+016510Y+017995
X+016510Y+020535
X+016510Y+023075
X+016510Y+025615
X+016510Y+028155
X+016510Y+030695
X+016510Y+033235
X+016510Y+035775
X+019108Y+044955
X+021648Y+044955
T04
X+007112Y+045173
X+009652Y+045173
X+007112Y+042633
X+009652Y+042633
X+007112Y+040093
X+009652Y+040093
T05
X+045707Y+041611
X+045707Y+044151
X+045707Y+039071
X+045707Y+046691
X+005428Y+012062
X+005428Y+014602
X+005428Y+017142
X+005428Y+019682
X+035740Y+004823
X+038280Y+004823
X+040820Y+004823
X+043360Y+004823
X+045900Y+004823
X+039673Y+030185
X+042213Y+030185
X+039673Y+027645
X+042213Y+027645
X+039673Y+025105
X+042213Y+025105
X+039673Y+032725
X+042213Y+032725
X+039757Y+016469
X+042297Y+016469
X+039757Y+013929
X+042297Y+013929
X+039757Y+011389
X+042297Y+011389
X+039757Y+019009
X+042297Y+019009
X+024188Y+044955
X+030480Y+044919
X+033020Y+044919
X+035560Y+044919
X+005080Y+033235
X+007620Y+033235
X+010160Y+033235
X+002540Y+033235
X+012700Y+033235
M30
