G04 ---------------------------- Layer name :TOP LAYER*
G04 EasyEDA v5.8.22, Sun, 20 Jan 2019 09:53:09 GMT*
G04 867d7e44f41141d591986c9d2056cd44*
G04 Gerber Generator version 0.2*
G04 Scale: 100 percent, Rotated: No, Reflected: No *
G04 Dimensions in millimeters *
G04 leading zeros omitted , absolute positions ,3 integer and 3 decimal *
%FSLAX33Y33*%
%MOMM*%
G90*
G71D02*

%ADD10C,0.254000*%
%ADD11C,2.032000*%
%ADD12C,1.499997*%
%ADD13C,1.599997*%
%ADD14R,1.499997X1.499997*%

%LPD*%
G54D10*
G01X11938Y17741D02*
G01X14224Y17741D01*
G01X16510Y15455D01*
G01X11938Y12661D02*
G01X16510Y12661D01*
G01X16510Y12915D01*
G01X12700Y33235D02*
G01X13970Y33235D01*
G01X16510Y35775D01*
G01X16510Y33235D02*
G01X14478Y31203D01*
G01X12192Y31203D01*
G01X10160Y33235D01*
G01X16510Y30695D02*
G01X10160Y30695D01*
G01X7620Y33235D01*
G01X27391Y33997D02*
G01X26162Y32727D01*
G01X26162Y14947D01*
G01X24130Y12915D01*
G01X24130Y35775D02*
G01X24130Y35775D01*
G01X21336Y33489D01*
G01X21336Y24345D01*
G01X3556Y24345D01*
G01X3556Y18757D01*
G01X5427Y17142D01*
G01X24130Y33235D02*
G01X21844Y31191D01*
G01X21844Y21841D01*
G01X6858Y21805D01*
G01X5427Y19682D01*
G01X12700Y33235D02*
G01X12700Y35521D01*
G01X8382Y35521D01*
G01X8382Y41338D01*
G01X8128Y41617D01*
G01X7112Y42633D01*
G01X9652Y45173D02*
G01X11430Y43649D01*
G01X11430Y38061D01*
G01X25654Y38061D01*
G01X25654Y35267D01*
G01X27475Y34069D01*
G01X27391Y33997D01*
G01X21648Y44955D02*
G01X21648Y43395D01*
G01X30480Y43395D01*
G01X30480Y44919D01*
G01X7112Y45173D02*
G01X7112Y48475D01*
G01X7366Y48729D01*
G01X19304Y48729D01*
G01X19304Y45151D01*
G01X19108Y44955D01*
G01X19304Y48651D02*
G01X19304Y48729D01*
G01X35560Y48729D01*
G01X35560Y44919D01*
G01X19108Y44955D02*
G01X19108Y39898D01*
G01X19050Y39839D01*
G01X29972Y39839D01*
G01X29972Y33997D01*
G01X24130Y20281D02*
G01X24130Y20535D01*
G01X22783Y20535D01*
G01X21844Y19519D01*
G01X21844Y17995D01*
G01X16510Y17995D01*
G01X16510Y17995D02*
G01X18796Y17995D01*
G01X18796Y8851D01*
G01X10414Y8851D01*
G01X5428Y12062D01*
G01X5428Y12062D01*
G01X5428Y14602D02*
G01X8036Y14602D01*
G01X8128Y14693D01*
G01X8128Y18757D01*
G01X14732Y18757D01*
G01X16510Y20535D01*
G01X5427Y14602D02*
G01X1615Y14602D01*
G01X1524Y14693D01*
G01X1524Y30695D01*
G01X5080Y30695D01*
G01X5080Y33235D01*
G01X5080Y38514D01*
G01X7112Y40093D01*
G01X2540Y33235D02*
G01X762Y30949D01*
G01X762Y12153D01*
G01X5427Y12062D01*
G01X7112Y45173D02*
G01X2540Y45173D01*
G01X2540Y33235D01*
G01X24188Y44955D02*
G01X24188Y44955D01*
G01X24130Y46443D01*
G01X33020Y46443D01*
G01X33020Y44919D01*
G01X33020Y44919D02*
G01X33020Y25107D01*
G01X39674Y25105D01*
G01X39673Y25105D02*
G01X39673Y23788D01*
G01X42418Y21043D01*
G01X42418Y19129D01*
G01X42297Y19009D01*
G01X35560Y44919D02*
G01X35560Y39072D01*
G01X45707Y39072D01*
G01X42213Y32725D02*
G01X42213Y38830D01*
G01X41970Y39072D01*
G01X42214Y32725D02*
G01X48260Y32727D01*
G01X48260Y17744D01*
G01X41148Y17741D01*
G01X39756Y19009D01*
G01X39757Y19009D02*
G01X33022Y19009D01*
G01X33020Y19011D01*
G01X33020Y4787D01*
G01X35704Y4787D01*
G01X35740Y4823D01*
G01X24130Y15455D02*
G01X22352Y15455D01*
G01X21336Y14439D01*
G01X21336Y723D01*
G01X37338Y723D01*
G01X37338Y3517D01*
G01X38280Y4823D01*
G01X38280Y4823D01*
G01X16510Y20535D02*
G01X21336Y20535D01*
G01X22352Y21551D01*
G01X25654Y21551D01*
G01X25654Y16725D01*
G01X24130Y15201D01*
G01X45707Y46692D02*
G01X49276Y46697D01*
G01X49276Y723D01*
G01X39116Y723D01*
G01X39116Y3771D01*
G01X38280Y4823D01*
G01X39674Y30185D02*
G01X36578Y30185D01*
G01X36576Y30187D01*
G01X36576Y25204D01*
G01X36647Y25105D01*
G54D11*
G01X29972Y33997D03*
G01X27391Y33997D03*
G54D12*
G01X11938Y17741D03*
G01X11938Y12661D03*
G54D13*
G01X7112Y45173D03*
G01X9652Y45173D03*
G01X7112Y42633D03*
G01X9652Y42633D03*
G01X7112Y40093D03*
G01X9652Y40093D03*
G54D12*
G01X24130Y2755D03*
G01X24130Y5295D03*
G01X24130Y7835D03*
G01X24130Y10375D03*
G01X24130Y12915D03*
G01X24130Y15455D03*
G01X24130Y17995D03*
G01X24130Y20535D03*
G01X24130Y23075D03*
G01X24130Y25615D03*
G01X24130Y28155D03*
G01X24130Y30695D03*
G01X24130Y33235D03*
G01X24130Y35775D03*
G01X16510Y2755D03*
G01X16510Y5295D03*
G01X16510Y7835D03*
G01X16510Y10375D03*
G01X16510Y12915D03*
G01X16510Y15455D03*
G01X16510Y17995D03*
G01X16510Y20535D03*
G01X16510Y23075D03*
G01X16510Y25615D03*
G01X16510Y28155D03*
G01X16510Y30695D03*
G01X16510Y33235D03*
G54D14*
G01X16510Y35775D03*
G54D13*
G01X45707Y41611D03*
G01X45707Y44151D03*
G01X45707Y39071D03*
G01X45707Y46691D03*
G01X5428Y12062D03*
G01X5428Y14602D03*
G01X5428Y17142D03*
G01X5428Y19682D03*
G01X35740Y4823D03*
G01X38280Y4823D03*
G01X40820Y4823D03*
G01X43360Y4823D03*
G01X45900Y4823D03*
G01X39673Y30185D03*
G01X42213Y30185D03*
G01X39673Y27645D03*
G01X42213Y27645D03*
G01X39673Y25105D03*
G01X42213Y25105D03*
G01X39673Y32725D03*
G01X42213Y32725D03*
G01X39757Y16469D03*
G01X42297Y16469D03*
G01X39757Y13929D03*
G01X42297Y13929D03*
G01X39757Y11389D03*
G01X42297Y11389D03*
G01X39757Y19009D03*
G01X42297Y19009D03*
G01X24188Y44955D03*
G54D12*
G01X19108Y44955D03*
G01X21648Y44955D03*
G54D13*
G01X30480Y44919D03*
G01X33020Y44919D03*
G01X35560Y44919D03*
G01X5080Y33235D03*
G01X7620Y33235D03*
G01X10160Y33235D03*
G01X2540Y33235D03*
G01X12700Y33235D03*
M00*
M02*
