G04 ---------------------------- Layer name :BOTTOM SILK LAYER*
G04 EasyEDA v5.8.22, Sun, 20 Jan 2019 09:53:09 GMT*
G04 867d7e44f41141d591986c9d2056cd44*
G04 Gerber Generator version 0.2*
G04 Scale: 100 percent, Rotated: No, Reflected: No *
G04 Dimensions in millimeters *
G04 leading zeros omitted , absolute positions ,3 integer and 3 decimal *
%FSLAX33Y33*%
%MOMM*%
G90*
G71D02*

%ADD23C,0.203200*%

%LPD*%
G54D23*
G01X36548Y42669D02*
G01X36111Y41524D01*
G01X35675Y42669D02*
G01X36111Y41524D01*
G01X35315Y41960D02*
G01X34660Y41960D01*
G01X34660Y42069D01*
G01X34715Y42178D01*
G01X34770Y42233D01*
G01X34879Y42287D01*
G01X35042Y42287D01*
G01X35151Y42233D01*
G01X35260Y42124D01*
G01X35315Y41960D01*
G01X35315Y41851D01*
G01X35260Y41687D01*
G01X35151Y41578D01*
G01X35042Y41524D01*
G01X34879Y41524D01*
G01X34770Y41578D01*
G01X34660Y41687D01*
G01X34300Y42287D02*
G01X34300Y41524D01*
G01X34300Y41960D02*
G01X34246Y42124D01*
G01X34137Y42233D01*
G01X34028Y42287D01*
G01X33864Y42287D01*
G01X32904Y42124D02*
G01X32959Y42233D01*
G01X33122Y42287D01*
G01X33286Y42287D01*
G01X33450Y42233D01*
G01X33504Y42124D01*
G01X33450Y42015D01*
G01X33341Y41960D01*
G01X33068Y41906D01*
G01X32959Y41851D01*
G01X32904Y41742D01*
G01X32904Y41687D01*
G01X32959Y41578D01*
G01X33122Y41524D01*
G01X33286Y41524D01*
G01X33450Y41578D01*
G01X33504Y41687D01*
G01X32544Y42669D02*
G01X32490Y42615D01*
G01X32435Y42669D01*
G01X32490Y42724D01*
G01X32544Y42669D01*
G01X32490Y42287D02*
G01X32490Y41524D01*
G01X31802Y42287D02*
G01X31911Y42233D01*
G01X32021Y42124D01*
G01X32075Y41960D01*
G01X32075Y41851D01*
G01X32021Y41687D01*
G01X31911Y41578D01*
G01X31802Y41524D01*
G01X31639Y41524D01*
G01X31530Y41578D01*
G01X31421Y41687D01*
G01X31366Y41851D01*
G01X31366Y41960D01*
G01X31421Y42124D01*
G01X31530Y42233D01*
G01X31639Y42287D01*
G01X31802Y42287D01*
G01X31006Y42287D02*
G01X31006Y41524D01*
G01X31006Y42069D02*
G01X30842Y42233D01*
G01X30733Y42287D01*
G01X30570Y42287D01*
G01X30461Y42233D01*
G01X30406Y42069D01*
G01X30406Y41524D01*
G01X28879Y42669D02*
G01X29042Y42615D01*
G01X29151Y42451D01*
G01X29206Y42178D01*
G01X29206Y42015D01*
G01X29151Y41742D01*
G01X29042Y41578D01*
G01X28879Y41524D01*
G01X28770Y41524D01*
G01X28606Y41578D01*
G01X28497Y41742D01*
G01X28442Y42015D01*
G01X28442Y42178D01*
G01X28497Y42451D01*
G01X28606Y42615D01*
G01X28770Y42669D01*
G01X28879Y42669D01*
G01X28028Y41796D02*
G01X28082Y41742D01*
G01X28028Y41687D01*
G01X27973Y41742D01*
G01X28028Y41796D01*
G01X27613Y42451D02*
G01X27504Y42506D01*
G01X27341Y42669D01*
G01X27341Y41524D01*
G01X26141Y42015D02*
G01X25159Y42015D01*
G01X23631Y42669D02*
G01X23795Y42615D01*
G01X23904Y42451D01*
G01X23959Y42178D01*
G01X23959Y42015D01*
G01X23904Y41742D01*
G01X23795Y41578D01*
G01X23631Y41524D01*
G01X23522Y41524D01*
G01X23359Y41578D01*
G01X23250Y41742D01*
G01X23195Y42015D01*
G01X23195Y42178D01*
G01X23250Y42451D01*
G01X23359Y42615D01*
G01X23522Y42669D01*
G01X23631Y42669D01*
G01X22835Y42451D02*
G01X22726Y42506D01*
G01X22562Y42669D01*
G01X22562Y41524D01*
G01X21221Y42887D02*
G01X22202Y41142D01*
G01X20806Y42396D02*
G01X20806Y42451D01*
G01X20751Y42560D01*
G01X20697Y42615D01*
G01X20588Y42669D01*
G01X20370Y42669D01*
G01X20261Y42615D01*
G01X20206Y42560D01*
G01X20151Y42451D01*
G01X20151Y42342D01*
G01X20206Y42233D01*
G01X20315Y42069D01*
G01X20861Y41524D01*
G01X20097Y41524D01*
G01X19410Y42669D02*
G01X19573Y42615D01*
G01X19682Y42451D01*
G01X19737Y42178D01*
G01X19737Y42015D01*
G01X19682Y41742D01*
G01X19573Y41578D01*
G01X19410Y41524D01*
G01X19301Y41524D01*
G01X19137Y41578D01*
G01X19028Y41742D01*
G01X18973Y42015D01*
G01X18973Y42178D01*
G01X19028Y42451D01*
G01X19137Y42615D01*
G01X19301Y42669D01*
G01X19410Y42669D01*
G01X18613Y42451D02*
G01X18504Y42506D01*
G01X18341Y42669D01*
G01X18341Y41524D01*
G01X17271Y42287D02*
G01X17326Y42124D01*
G01X17435Y42015D01*
G01X17599Y41960D01*
G01X17653Y41960D01*
G01X17817Y42015D01*
G01X17926Y42124D01*
G01X17981Y42287D01*
G01X17981Y42342D01*
G01X17926Y42506D01*
G01X17817Y42615D01*
G01X17653Y42669D01*
G01X17599Y42669D01*
G01X17435Y42615D01*
G01X17326Y42506D01*
G01X17271Y42287D01*
G01X17271Y42015D01*
G01X17326Y41742D01*
G01X17435Y41578D01*
G01X17599Y41524D01*
G01X17708Y41524D01*
G01X17871Y41578D01*
G01X17926Y41687D01*
G01X41739Y49145D02*
G01X41739Y47205D01*
G01X41739Y49145D02*
G01X41092Y49145D01*
G01X40815Y49053D01*
G01X40630Y48868D01*
G01X40538Y48683D01*
G01X40446Y48406D01*
G01X40446Y47944D01*
G01X40538Y47667D01*
G01X40630Y47482D01*
G01X40815Y47298D01*
G01X41092Y47205D01*
G01X41739Y47205D01*
G01X38728Y48498D02*
G01X38728Y47205D01*
G01X38728Y48221D02*
G01X38912Y48406D01*
G01X39097Y48498D01*
G01X39374Y48498D01*
G01X39559Y48406D01*
G01X39744Y48221D01*
G01X39836Y47944D01*
G01X39836Y47760D01*
G01X39744Y47482D01*
G01X39559Y47298D01*
G01X39374Y47205D01*
G01X39097Y47205D01*
G01X38912Y47298D01*
G01X38728Y47482D01*
G01X38118Y48498D02*
G01X38118Y47205D01*
G01X38118Y48129D02*
G01X37841Y48406D01*
G01X37656Y48498D01*
G01X37379Y48498D01*
G01X37194Y48406D01*
G01X37102Y48129D01*
G01X37102Y47205D01*
G01X37102Y48129D02*
G01X36825Y48406D01*
G01X36640Y48498D01*
G01X36363Y48498D01*
G01X36178Y48406D01*
G01X36086Y48129D01*
G01X36086Y47205D01*
G01X35476Y48498D02*
G01X35476Y47205D01*
G01X35476Y48129D02*
G01X35199Y48406D01*
G01X35015Y48498D01*
G01X34737Y48498D01*
G01X34553Y48406D01*
G01X34460Y48129D01*
G01X34460Y47205D01*
G01X32428Y49145D02*
G01X31689Y47205D01*
G01X30951Y49145D02*
G01X31689Y47205D01*
G01X30341Y48498D02*
G01X30341Y47575D01*
G01X30249Y47298D01*
G01X30064Y47205D01*
G01X29787Y47205D01*
G01X29602Y47298D01*
G01X29325Y47575D01*
G01X29325Y48498D02*
G01X29325Y47205D01*
G01X28715Y49145D02*
G01X28715Y47205D01*
G01X28106Y48498D02*
G01X28106Y47205D01*
G01X28106Y48129D02*
G01X27829Y48406D01*
G01X27644Y48498D01*
G01X27367Y48498D01*
G01X27182Y48406D01*
G01X27090Y48129D01*
G01X27090Y47205D01*
G01X26480Y47944D02*
G01X25372Y47944D01*
G01X25372Y48129D01*
G01X25464Y48314D01*
G01X25557Y48406D01*
G01X25741Y48498D01*
G01X26018Y48498D01*
G01X26203Y48406D01*
G01X26388Y48221D01*
G01X26480Y47944D01*
G01X26480Y47760D01*
G01X26388Y47482D01*
G01X26203Y47298D01*
G01X26018Y47205D01*
G01X25741Y47205D01*
G01X25557Y47298D01*
G01X25372Y47482D01*
G01X24762Y48498D02*
G01X24762Y47205D01*
G01X24762Y47944D02*
G01X24670Y48221D01*
G01X24485Y48406D01*
G01X24300Y48498D01*
G01X24023Y48498D01*
G01X22305Y48498D02*
G01X22305Y47205D01*
G01X22305Y48221D02*
G01X22490Y48406D01*
G01X22675Y48498D01*
G01X22952Y48498D01*
G01X23137Y48406D01*
G01X23321Y48221D01*
G01X23414Y47944D01*
G01X23414Y47760D01*
G01X23321Y47482D01*
G01X23137Y47298D01*
G01X22952Y47205D01*
G01X22675Y47205D01*
G01X22490Y47298D01*
G01X22305Y47482D01*
G01X21696Y49145D02*
G01X21696Y47205D01*
G01X21696Y48221D02*
G01X21511Y48406D01*
G01X21326Y48498D01*
G01X21049Y48498D01*
G01X20864Y48406D01*
G01X20680Y48221D01*
G01X20587Y47944D01*
G01X20587Y47760D01*
G01X20680Y47482D01*
G01X20864Y47298D01*
G01X21049Y47205D01*
G01X21326Y47205D01*
G01X21511Y47298D01*
G01X21696Y47482D01*
G01X19978Y49145D02*
G01X19978Y47205D01*
G01X19368Y47944D02*
G01X18260Y47944D01*
G01X18260Y48129D01*
G01X18352Y48314D01*
G01X18445Y48406D01*
G01X18629Y48498D01*
G01X18906Y48498D01*
G01X19091Y48406D01*
G01X19276Y48221D01*
G01X19368Y47944D01*
G01X19368Y47760D01*
G01X19276Y47482D01*
G01X19091Y47298D01*
G01X18906Y47205D01*
G01X18629Y47205D01*
G01X18445Y47298D01*
G01X18260Y47482D01*
G01X16228Y49145D02*
G01X16228Y47205D01*
G01X15156Y48498D02*
G01X15341Y48406D01*
G01X15526Y48221D01*
G01X15618Y47944D01*
G01X15618Y47760D01*
G01X15526Y47482D01*
G01X15341Y47298D01*
G01X15156Y47205D01*
G01X14879Y47205D01*
G01X14695Y47298D01*
G01X14510Y47482D01*
G01X14417Y47760D01*
G01X14417Y47944D01*
G01X14510Y48221D01*
G01X14695Y48406D01*
G01X14879Y48498D01*
G01X15156Y48498D01*
G01X13161Y49145D02*
G01X13161Y47205D01*
G01X13808Y49145D02*
G01X12515Y49145D01*
G01X10483Y49145D02*
G01X10483Y47205D01*
G01X10483Y49145D02*
G01X9836Y49145D01*
G01X9559Y49053D01*
G01X9374Y48868D01*
G01X9282Y48683D01*
G01X9190Y48406D01*
G01X9190Y47944D01*
G01X9282Y47667D01*
G01X9374Y47482D01*
G01X9559Y47298D01*
G01X9836Y47205D01*
G01X10483Y47205D01*
G01X8580Y47944D02*
G01X7472Y47944D01*
G01X7472Y48129D01*
G01X7564Y48314D01*
G01X7656Y48406D01*
G01X7841Y48498D01*
G01X8118Y48498D01*
G01X8303Y48406D01*
G01X8488Y48221D01*
G01X8580Y47944D01*
G01X8580Y47760D01*
G01X8488Y47482D01*
G01X8303Y47298D01*
G01X8118Y47205D01*
G01X7841Y47205D01*
G01X7656Y47298D01*
G01X7472Y47482D01*
G01X6862Y48498D02*
G01X6308Y47205D01*
G01X5754Y48498D02*
G01X6308Y47205D01*
G01X5144Y49145D02*
G01X5052Y49053D01*
G01X4959Y49145D01*
G01X5052Y49237D01*
G01X5144Y49145D01*
G01X5052Y48498D02*
G01X5052Y47205D01*
G01X3241Y48221D02*
G01X3426Y48406D01*
G01X3611Y48498D01*
G01X3888Y48498D01*
G01X4073Y48406D01*
G01X4257Y48221D01*
G01X4350Y47944D01*
G01X4350Y47760D01*
G01X4257Y47482D01*
G01X4073Y47298D01*
G01X3888Y47205D01*
G01X3611Y47205D01*
G01X3426Y47298D01*
G01X3241Y47482D01*
G01X2632Y47944D02*
G01X1524Y47944D01*
G01X1524Y48129D01*
G01X1616Y48314D01*
G01X1708Y48406D01*
G01X1893Y48498D01*
G01X2170Y48498D01*
G01X2355Y48406D01*
G01X2540Y48221D01*
G01X2632Y47944D01*
G01X2632Y47760D01*
G01X2540Y47482D01*
G01X2355Y47298D01*
G01X2170Y47205D01*
G01X1893Y47205D01*
G01X1708Y47298D01*
G01X1524Y47482D01*
G01X36576Y40748D02*
G01X36576Y39602D01*
G01X36576Y40748D02*
G01X36194Y40748D01*
G01X36030Y40693D01*
G01X35921Y40584D01*
G01X35866Y40475D01*
G01X35812Y40312D01*
G01X35812Y40039D01*
G01X35866Y39875D01*
G01X35921Y39766D01*
G01X36030Y39657D01*
G01X36194Y39602D01*
G01X36576Y39602D01*
G01X35452Y40039D02*
G01X34797Y40039D01*
G01X34797Y40148D01*
G01X34852Y40257D01*
G01X34906Y40312D01*
G01X35016Y40366D01*
G01X35179Y40366D01*
G01X35288Y40312D01*
G01X35397Y40202D01*
G01X35452Y40039D01*
G01X35452Y39930D01*
G01X35397Y39766D01*
G01X35288Y39657D01*
G01X35179Y39602D01*
G01X35016Y39602D01*
G01X34906Y39657D01*
G01X34797Y39766D01*
G01X33837Y40202D02*
G01X33892Y40312D01*
G01X34056Y40366D01*
G01X34219Y40366D01*
G01X34383Y40312D01*
G01X34437Y40202D01*
G01X34383Y40093D01*
G01X34274Y40039D01*
G01X34001Y39984D01*
G01X33892Y39930D01*
G01X33837Y39821D01*
G01X33837Y39766D01*
G01X33892Y39657D01*
G01X34056Y39602D01*
G01X34219Y39602D01*
G01X34383Y39657D01*
G01X34437Y39766D01*
G01X33477Y40748D02*
G01X33423Y40693D01*
G01X33368Y40748D01*
G01X33423Y40802D01*
G01X33477Y40748D01*
G01X33423Y40366D02*
G01X33423Y39602D01*
G01X32354Y40366D02*
G01X32354Y39493D01*
G01X32408Y39330D01*
G01X32463Y39275D01*
G01X32572Y39221D01*
G01X32736Y39221D01*
G01X32845Y39275D01*
G01X32354Y40202D02*
G01X32463Y40312D01*
G01X32572Y40366D01*
G01X32736Y40366D01*
G01X32845Y40312D01*
G01X32954Y40202D01*
G01X33008Y40039D01*
G01X33008Y39930D01*
G01X32954Y39766D01*
G01X32845Y39657D01*
G01X32736Y39602D01*
G01X32572Y39602D01*
G01X32463Y39657D01*
G01X32354Y39766D01*
G01X31994Y40366D02*
G01X31994Y39602D01*
G01X31994Y40148D02*
G01X31830Y40312D01*
G01X31721Y40366D01*
G01X31557Y40366D01*
G01X31448Y40312D01*
G01X31394Y40148D01*
G01X31394Y39602D01*
G01X31034Y40039D02*
G01X30379Y40039D01*
G01X30379Y40148D01*
G01X30434Y40257D01*
G01X30488Y40312D01*
G01X30597Y40366D01*
G01X30761Y40366D01*
G01X30870Y40312D01*
G01X30979Y40202D01*
G01X31034Y40039D01*
G01X31034Y39930D01*
G01X30979Y39766D01*
G01X30870Y39657D01*
G01X30761Y39602D01*
G01X30597Y39602D01*
G01X30488Y39657D01*
G01X30379Y39766D01*
G01X29365Y40748D02*
G01X29365Y39602D01*
G01X29365Y40202D02*
G01X29474Y40312D01*
G01X29583Y40366D01*
G01X29746Y40366D01*
G01X29856Y40312D01*
G01X29965Y40202D01*
G01X30019Y40039D01*
G01X30019Y39930D01*
G01X29965Y39766D01*
G01X29856Y39657D01*
G01X29746Y39602D01*
G01X29583Y39602D01*
G01X29474Y39657D01*
G01X29365Y39766D01*
G01X28165Y40748D02*
G01X28165Y39602D01*
G01X28165Y40748D02*
G01X27674Y40748D01*
G01X27510Y40693D01*
G01X27456Y40639D01*
G01X27401Y40530D01*
G01X27401Y40421D01*
G01X27456Y40312D01*
G01X27510Y40257D01*
G01X27674Y40202D01*
G01X28165Y40202D02*
G01X27674Y40202D01*
G01X27510Y40148D01*
G01X27456Y40093D01*
G01X27401Y39984D01*
G01X27401Y39821D01*
G01X27456Y39712D01*
G01X27510Y39657D01*
G01X27674Y39602D01*
G01X28165Y39602D01*
G01X26986Y40366D02*
G01X26659Y39602D01*
G01X26332Y40366D02*
G01X26659Y39602D01*
G01X26768Y39384D01*
G01X26877Y39275D01*
G01X26986Y39221D01*
G01X27041Y39221D01*
G01X25132Y40748D02*
G01X24696Y39602D01*
G01X24259Y40748D02*
G01X24696Y39602D01*
G01X23899Y40366D02*
G01X23899Y39821D01*
G01X23845Y39657D01*
G01X23736Y39602D01*
G01X23572Y39602D01*
G01X23463Y39657D01*
G01X23299Y39821D01*
G01X23299Y40366D02*
G01X23299Y39602D01*
G01X22939Y40748D02*
G01X22939Y39602D01*
G01X21925Y40202D02*
G01X22034Y40312D01*
G01X22143Y40366D01*
G01X22306Y40366D01*
G01X22416Y40312D01*
G01X22525Y40202D01*
G01X22579Y40039D01*
G01X22579Y39930D01*
G01X22525Y39766D01*
G01X22416Y39657D01*
G01X22306Y39602D01*
G01X22143Y39602D01*
G01X22034Y39657D01*
G01X21925Y39766D01*
G01X20910Y40366D02*
G01X20910Y39602D01*
G01X20910Y40202D02*
G01X21019Y40312D01*
G01X21128Y40366D01*
G01X21292Y40366D01*
G01X21401Y40312D01*
G01X21510Y40202D01*
G01X21565Y40039D01*
G01X21565Y39930D01*
G01X21510Y39766D01*
G01X21401Y39657D01*
G01X21292Y39602D01*
G01X21128Y39602D01*
G01X21019Y39657D01*
G01X20910Y39766D01*
G01X20550Y40748D02*
G01X20496Y40693D01*
G01X20441Y40748D01*
G01X20496Y40802D01*
G01X20550Y40748D01*
G01X20496Y40366D02*
G01X20496Y39602D01*
G01X20081Y40366D02*
G01X20081Y39602D01*
G01X20081Y40148D02*
G01X19917Y40312D01*
G01X19808Y40366D01*
G01X19645Y40366D01*
G01X19536Y40312D01*
G01X19481Y40148D01*
G01X19481Y39602D01*
G01X19121Y40366D02*
G01X19121Y39602D01*
G01X19121Y40039D02*
G01X19066Y40202D01*
G01X18957Y40312D01*
G01X18848Y40366D01*
G01X18685Y40366D01*
G01X18325Y40039D02*
G01X17670Y40039D01*
G01X17670Y40148D01*
G01X17725Y40257D01*
G01X17779Y40312D01*
G01X17888Y40366D01*
G01X18052Y40366D01*
G01X18161Y40312D01*
G01X18270Y40202D01*
G01X18325Y40039D01*
G01X18325Y39930D01*
G01X18270Y39766D01*
G01X18161Y39657D01*
G01X18052Y39602D01*
G01X17888Y39602D01*
G01X17779Y39657D01*
G01X17670Y39766D01*
G01X17037Y40366D02*
G01X17146Y40312D01*
G01X17256Y40202D01*
G01X17310Y40039D01*
G01X17310Y39930D01*
G01X17256Y39766D01*
G01X17146Y39657D01*
G01X17037Y39602D01*
G01X16874Y39602D01*
G01X16765Y39657D01*
G01X16656Y39766D01*
G01X16601Y39930D01*
G01X16601Y40039D01*
G01X16656Y40202D01*
G01X16765Y40312D01*
G01X16874Y40366D01*
G01X17037Y40366D01*
G01X36576Y38716D02*
G01X36576Y37570D01*
G01X36576Y37570D02*
G01X35921Y37570D01*
G01X35561Y38716D02*
G01X35506Y38661D01*
G01X35452Y38716D01*
G01X35506Y38770D01*
G01X35561Y38716D01*
G01X35506Y38334D02*
G01X35506Y37570D01*
G01X34437Y38170D02*
G01X34546Y38280D01*
G01X34656Y38334D01*
G01X34819Y38334D01*
G01X34928Y38280D01*
G01X35037Y38170D01*
G01X35092Y38007D01*
G01X35092Y37898D01*
G01X35037Y37734D01*
G01X34928Y37625D01*
G01X34819Y37570D01*
G01X34656Y37570D01*
G01X34546Y37625D01*
G01X34437Y37734D01*
G01X34077Y38007D02*
G01X33423Y38007D01*
G01X33423Y38116D01*
G01X33477Y38225D01*
G01X33532Y38280D01*
G01X33641Y38334D01*
G01X33805Y38334D01*
G01X33914Y38280D01*
G01X34023Y38170D01*
G01X34077Y38007D01*
G01X34077Y37898D01*
G01X34023Y37734D01*
G01X33914Y37625D01*
G01X33805Y37570D01*
G01X33641Y37570D01*
G01X33532Y37625D01*
G01X33423Y37734D01*
G01X33063Y38334D02*
G01X33063Y37570D01*
G01X33063Y38116D02*
G01X32899Y38280D01*
G01X32790Y38334D01*
G01X32626Y38334D01*
G01X32517Y38280D01*
G01X32463Y38116D01*
G01X32463Y37570D01*
G01X31448Y38170D02*
G01X31557Y38280D01*
G01X31666Y38334D01*
G01X31830Y38334D01*
G01X31939Y38280D01*
G01X32048Y38170D01*
G01X32103Y38007D01*
G01X32103Y37898D01*
G01X32048Y37734D01*
G01X31939Y37625D01*
G01X31830Y37570D01*
G01X31666Y37570D01*
G01X31557Y37625D01*
G01X31448Y37734D01*
G01X31088Y38007D02*
G01X30434Y38007D01*
G01X30434Y38116D01*
G01X30488Y38225D01*
G01X30543Y38280D01*
G01X30652Y38334D01*
G01X30816Y38334D01*
G01X30925Y38280D01*
G01X31034Y38170D01*
G01X31088Y38007D01*
G01X31088Y37898D01*
G01X31034Y37734D01*
G01X30925Y37625D01*
G01X30816Y37570D01*
G01X30652Y37570D01*
G01X30543Y37625D01*
G01X30434Y37734D01*
G01X29419Y38716D02*
G01X29419Y37570D01*
G01X29419Y38170D02*
G01X29528Y38280D01*
G01X29637Y38334D01*
G01X29801Y38334D01*
G01X29910Y38280D01*
G01X30019Y38170D01*
G01X30074Y38007D01*
G01X30074Y37898D01*
G01X30019Y37734D01*
G01X29910Y37625D01*
G01X29801Y37570D01*
G01X29637Y37570D01*
G01X29528Y37625D01*
G01X29419Y37734D01*
G01X28219Y38716D02*
G01X28219Y37570D01*
G01X28219Y38170D02*
G01X28110Y38280D01*
G01X28001Y38334D01*
G01X27837Y38334D01*
G01X27728Y38280D01*
G01X27619Y38170D01*
G01X27565Y38007D01*
G01X27565Y37898D01*
G01X27619Y37734D01*
G01X27728Y37625D01*
G01X27837Y37570D01*
G01X28001Y37570D01*
G01X28110Y37625D01*
G01X28219Y37734D01*
G01X27150Y38334D02*
G01X26823Y37570D01*
G01X26496Y38334D02*
G01X26823Y37570D01*
G01X26932Y37352D01*
G01X27041Y37243D01*
G01X27150Y37189D01*
G01X27205Y37189D01*
G01X24477Y38443D02*
G01X24532Y38552D01*
G01X24641Y38661D01*
G01X24750Y38716D01*
G01X24968Y38716D01*
G01X25077Y38661D01*
G01X25186Y38552D01*
G01X25241Y38443D01*
G01X25296Y38280D01*
G01X25296Y38007D01*
G01X25241Y37843D01*
G01X25186Y37734D01*
G01X25077Y37625D01*
G01X24968Y37570D01*
G01X24750Y37570D01*
G01X24641Y37625D01*
G01X24532Y37734D01*
G01X24477Y37843D01*
G01X23299Y38443D02*
G01X23354Y38552D01*
G01X23463Y38661D01*
G01X23572Y38716D01*
G01X23790Y38716D01*
G01X23899Y38661D01*
G01X24008Y38552D01*
G01X24063Y38443D01*
G01X24117Y38280D01*
G01X24117Y38007D01*
G01X24063Y37843D01*
G01X24008Y37734D01*
G01X23899Y37625D01*
G01X23790Y37570D01*
G01X23572Y37570D01*
G01X23463Y37625D01*
G01X23354Y37734D01*
G01X23299Y37843D01*
G01X22939Y38061D02*
G01X21957Y38061D01*
G01X21597Y38716D02*
G01X21597Y37570D01*
G01X21597Y38716D02*
G01X21106Y38716D01*
G01X20943Y38661D01*
G01X20888Y38607D01*
G01X20834Y38498D01*
G01X20834Y38389D01*
G01X20888Y38280D01*
G01X20943Y38225D01*
G01X21106Y38170D01*
G01X21597Y38170D02*
G01X21106Y38170D01*
G01X20943Y38116D01*
G01X20888Y38061D01*
G01X20834Y37952D01*
G01X20834Y37789D01*
G01X20888Y37680D01*
G01X20943Y37625D01*
G01X21106Y37570D01*
G01X21597Y37570D01*
G01X20474Y38716D02*
G01X20037Y38170D01*
G01X20037Y37570D01*
G01X19601Y38716D02*
G01X20037Y38170D01*
G01X19241Y38061D02*
G01X18259Y38061D01*
G01X17136Y38552D02*
G01X17245Y38661D01*
G01X17408Y38716D01*
G01X17626Y38716D01*
G01X17790Y38661D01*
G01X17899Y38552D01*
G01X17899Y38443D01*
G01X17845Y38334D01*
G01X17790Y38280D01*
G01X17681Y38225D01*
G01X17354Y38116D01*
G01X17245Y38061D01*
G01X17190Y38007D01*
G01X17136Y37898D01*
G01X17136Y37734D01*
G01X17245Y37625D01*
G01X17408Y37570D01*
G01X17626Y37570D01*
G01X17790Y37625D01*
G01X17899Y37734D01*
G01X16339Y38716D02*
G01X16776Y37570D01*
G01X16339Y38716D02*
G01X15903Y37570D01*
G01X16612Y37952D02*
G01X16066Y37952D01*
M00*
M02*
