#define DVID_logo_width 128
#define DVID_logo_height 64
static unsigned char DVID_logo_bits[] = {
   0x00, 0x00, 0x00, 0x00, 0x00, 0x00, 0x00, 0x00, 0x00, 0x00, 0x00, 0x00,
   0x00, 0x00, 0x00, 0x00, 0x00, 0x00, 0x00, 0x00, 0x00, 0x00, 0x00, 0x00,
   0x00, 0x00, 0x00, 0x00, 0x00, 0x00, 0x00, 0x00, 0x00, 0x00, 0x00, 0x00,
   0x00, 0x00, 0x00, 0x00, 0x00, 0x00, 0x00, 0x00, 0x00, 0x00, 0x00, 0x00,
   0x00, 0x00, 0x00, 0x00, 0x00, 0x00, 0x00, 0x00, 0x00, 0xf8, 0x00, 0x00,
   0x00, 0x00, 0x00, 0x00, 0x00, 0x00, 0x00, 0x00, 0x00, 0x00, 0x00, 0x00,
   0x00, 0x04, 0x01, 0x00, 0x00, 0x00, 0x00, 0x00, 0x00, 0x00, 0x00, 0x00,
   0x00, 0x00, 0x00, 0x00, 0x00, 0x02, 0x02, 0x00, 0x00, 0x00, 0x00, 0x00,
   0x00, 0x00, 0x00, 0x00, 0x00, 0x00, 0x00, 0x00, 0x00, 0x71, 0x04, 0x00,
   0x00, 0x00, 0x00, 0x00, 0x00, 0x00, 0x00, 0x00, 0x00, 0x00, 0x00, 0x00,
   0x00, 0x88, 0x00, 0x00, 0x00, 0x00, 0x00, 0x00, 0x00, 0x00, 0x00, 0x00,
   0x00, 0x00, 0x00, 0x00, 0x00, 0x20, 0x00, 0x00, 0x00, 0x00, 0x80, 0x03,
   0x00, 0x00, 0x00, 0x00, 0x00, 0x00, 0x00, 0x00, 0x00, 0x70, 0x00, 0x00,
   0x00, 0x00, 0x80, 0x02, 0x00, 0x00, 0x00, 0x00, 0x00, 0x00, 0x00, 0x00,
   0x80, 0xff, 0xff, 0xff, 0xff, 0x7f, 0xc0, 0x03, 0x00, 0x00, 0x00, 0x00,
   0x00, 0x00, 0x00, 0x00, 0x80, 0x00, 0x00, 0x00, 0x00, 0x40, 0x60, 0x00,
   0x00, 0x00, 0x00, 0x00, 0x00, 0x00, 0x00, 0x00, 0x80, 0x00, 0x00, 0x80,
   0x99, 0x59, 0x30, 0x00, 0x00, 0x00, 0x00, 0x00, 0x00, 0x00, 0x00, 0x00,
   0x80, 0x00, 0x00, 0x80, 0x99, 0xd9, 0x18, 0x00, 0x00, 0x00, 0x00, 0x00,
   0x00, 0x00, 0x00, 0x00, 0x80, 0x00, 0x00, 0x00, 0x00, 0xc0, 0x0f, 0x00,
   0x00, 0x00, 0x00, 0x00, 0x00, 0x00, 0x00, 0x00, 0x00, 0x00, 0x00, 0x00,
   0x00, 0xc0, 0x00, 0x00, 0x00, 0x00, 0x00, 0x00, 0x00, 0x00, 0x00, 0x00,
   0x00, 0x00, 0x00, 0x00, 0x00, 0x40, 0x00, 0x00, 0x80, 0xff, 0x7f, 0x00,
   0xf8, 0x00, 0x00, 0x3e, 0xf8, 0xc0, 0xff, 0x3f, 0x00, 0x40, 0x00, 0x00,
   0x80, 0xff, 0xff, 0x00, 0xf8, 0x00, 0x00, 0x3e, 0xf8, 0xde, 0xff, 0x7f,
   0x00, 0x40, 0x00, 0x00, 0x80, 0xff, 0xff, 0x01, 0xf8, 0x00, 0x00, 0x3e,
   0xf8, 0xc0, 0xff, 0xff, 0x00, 0xc0, 0x98, 0x03, 0x80, 0xff, 0xff, 0x03,
   0xf0, 0x01, 0x00, 0x1f, 0xf8, 0xe1, 0xff, 0xff, 0x01, 0xc0, 0xff, 0x02,
   0x80, 0x0f, 0xc0, 0x07, 0xf0, 0x01, 0x00, 0x1f, 0xf8, 0xc0, 0x07, 0xe0,
   0x03, 0xc0, 0x98, 0x03, 0x80, 0x0f, 0x80, 0x0f, 0xe0, 0x03, 0x80, 0x0f,
   0xf8, 0xe1, 0x07, 0xc0, 0x07, 0x40, 0x18, 0x00, 0x80, 0x0f, 0x00, 0x1f,
   0xe0, 0x03, 0x80, 0x0f, 0xf8, 0xc0, 0x07, 0x80, 0x0f, 0x40, 0x18, 0x00,
   0x80, 0x0f, 0x00, 0x3e, 0xc0, 0x03, 0x80, 0x07, 0xf8, 0xe1, 0x07, 0x00,
   0x1f, 0x40, 0x18, 0x00, 0x80, 0x0f, 0x00, 0x3c, 0xc0, 0x07, 0xc0, 0x07,
   0xf8, 0xc0, 0x07, 0x00, 0x1e, 0xc0, 0x98, 0x03, 0x80, 0x0f, 0x00, 0x7c,
   0x80, 0x07, 0xc0, 0x03, 0xf8, 0xe1, 0x07, 0x00, 0x3e, 0xc0, 0xff, 0x02,
   0x80, 0x0f, 0x00, 0x7c, 0x80, 0x07, 0xc0, 0x03, 0xf8, 0xc0, 0x07, 0x00,
   0x3e, 0xc0, 0x98, 0x03, 0x80, 0x0f, 0x00, 0x7c, 0x80, 0x0f, 0xe0, 0x03,
   0xf8, 0xe1, 0x07, 0x00, 0x3e, 0x40, 0x00, 0x00, 0x80, 0x0f, 0x00, 0x7c,
   0x00, 0x0f, 0xe0, 0x01, 0xf8, 0xc0, 0x07, 0x00, 0x3e, 0x40, 0x00, 0x00,
   0x80, 0x0f, 0x00, 0x7c, 0x00, 0x0f, 0xe0, 0x01, 0xf8, 0xe1, 0x07, 0x00,
   0x3e, 0x40, 0x00, 0x00, 0x80, 0x0f, 0x00, 0x7c, 0x00, 0x1f, 0xf0, 0x01,
   0xf8, 0xc0, 0x07, 0x00, 0x3e, 0xc0, 0x00, 0x00, 0x80, 0x0f, 0x00, 0x7c,
   0x00, 0x1e, 0xf0, 0x00, 0xf8, 0xe1, 0x07, 0x00, 0x3e, 0xc0, 0x0f, 0x00,
   0x80, 0x0f, 0x00, 0x7c, 0x00, 0x1e, 0xf0, 0x00, 0xf8, 0xc0, 0x07, 0x00,
   0x3e, 0xc0, 0x08, 0x00, 0x80, 0x0f, 0x00, 0x7c, 0x00, 0x3e, 0xf8, 0x00,
   0xf8, 0xe1, 0x07, 0x00, 0x3e, 0x40, 0x08, 0x00, 0x80, 0x0f, 0x00, 0x7c,
   0x00, 0x3c, 0x78, 0x00, 0xf8, 0xc0, 0x07, 0x00, 0x3e, 0x40, 0x08, 0x00,
   0x80, 0x0f, 0x00, 0x7c, 0x00, 0x3c, 0x78, 0x00, 0xf8, 0xe1, 0x07, 0x00,
   0x3e, 0x40, 0x08, 0x00, 0x80, 0x0f, 0x00, 0x7c, 0x00, 0x7c, 0x7c, 0x00,
   0xf8, 0xc0, 0x07, 0x00, 0x3e, 0x40, 0x08, 0x00, 0x80, 0x0f, 0x00, 0x7c,
   0x00, 0x78, 0x3c, 0x00, 0xf8, 0xe1, 0x07, 0x00, 0x3e, 0x40, 0x08, 0x00,
   0x80, 0x0f, 0x00, 0x7c, 0x00, 0x78, 0x3c, 0x00, 0xf8, 0xc0, 0x07, 0x00,
   0x3e, 0x40, 0x08, 0x00, 0x80, 0x0f, 0x00, 0x3c, 0x00, 0xf8, 0x3e, 0x00,
   0xf8, 0xe1, 0x07, 0x00, 0x1e, 0x40, 0x08, 0x00, 0x80, 0x0f, 0x00, 0x3e,
   0x00, 0xf0, 0x1e, 0x00, 0xf8, 0xc0, 0x07, 0x00, 0x1f, 0x40, 0x1c, 0x00,
   0x80, 0x0f, 0x00, 0x1f, 0x00, 0xf0, 0x1e, 0x00, 0xf8, 0xe1, 0x07, 0x80,
   0x0f, 0x40, 0x14, 0x00, 0x80, 0x0f, 0x80, 0x0f, 0x00, 0xf0, 0x1f, 0x00,
   0xf8, 0xc0, 0x07, 0xc0, 0x07, 0x40, 0x1c, 0x00, 0x80, 0x0f, 0xc0, 0x07,
   0x00, 0xe0, 0x0f, 0x00, 0xf8, 0xe1, 0x07, 0xe0, 0x03, 0x40, 0x00, 0x00,
   0x80, 0xff, 0xff, 0x03, 0x00, 0xe0, 0x0f, 0x00, 0xf8, 0xc0, 0xff, 0xff,
   0x01, 0x40, 0x00, 0x00, 0x80, 0xff, 0xff, 0x01, 0x00, 0xe0, 0x0f, 0x00,
   0xf8, 0xde, 0xff, 0xff, 0x70, 0x5c, 0x00, 0x00, 0x80, 0xff, 0xff, 0x00,
   0x00, 0xc0, 0x07, 0x00, 0xf8, 0xc0, 0xff, 0x7f, 0x50, 0x54, 0x00, 0x00,
   0x80, 0xff, 0x7f, 0x00, 0x00, 0xc0, 0x07, 0x00, 0xf8, 0xc0, 0xff, 0x3f,
   0x78, 0x5c, 0x00, 0x00, 0x00, 0x00, 0x00, 0x00, 0x00, 0x00, 0x00, 0x00,
   0x00, 0x00, 0x00, 0x00, 0x0c, 0x46, 0x00, 0x00, 0x00, 0x00, 0x00, 0x00,
   0x00, 0x00, 0x00, 0x00, 0x00, 0x00, 0x00, 0x00, 0x06, 0x43, 0x00, 0x00,
   0x00, 0x00, 0x00, 0x00, 0x00, 0x00, 0x00, 0x00, 0x80, 0x00, 0x00, 0x00,
   0x83, 0x41, 0x00, 0x00, 0x00, 0x00, 0x00, 0x00, 0x00, 0x00, 0x00, 0x00,
   0x80, 0x00, 0x00, 0x80, 0xc1, 0x40, 0x00, 0x00, 0x00, 0x00, 0x00, 0x00,
   0x00, 0x00, 0x00, 0x00, 0x80, 0x00, 0x00, 0xc0, 0x60, 0x40, 0x00, 0x00,
   0x00, 0x00, 0x00, 0x00, 0x00, 0x00, 0x00, 0x00, 0x80, 0x00, 0x00, 0x60,
   0x30, 0x40, 0x00, 0x00, 0x00, 0x00, 0x00, 0x00, 0x00, 0x00, 0x00, 0x00,
   0x80, 0xff, 0xff, 0xff, 0xff, 0x7f, 0x00, 0x00, 0x00, 0x00, 0x00, 0x00,
   0x00, 0x00, 0x00, 0x00, 0x00, 0x98, 0x59, 0x00, 0x00, 0x00, 0x00, 0x00,
   0x00, 0x00, 0x00, 0x00, 0x00, 0x00, 0x00, 0x00, 0x00, 0x98, 0xd9, 0x00,
   0x00, 0x00, 0x00, 0x00, 0x00, 0x00, 0x00, 0x00, 0x00, 0x00, 0x00, 0x00,
   0x00, 0x00, 0x00, 0x00, 0x00, 0x00, 0x00, 0x00, 0x00, 0x00, 0x00, 0x00,
   0x00, 0x00, 0x00, 0x00, 0x00, 0x00, 0x00, 0x00, 0x00, 0x00, 0x00, 0x00,
   0x00, 0x00, 0x00, 0x00, 0x00, 0x00, 0x00, 0x00, 0x00, 0x00, 0x00, 0x00,
   0x00, 0x00, 0x00, 0x00, 0x00, 0x00, 0x00, 0x00, 0x00, 0x00, 0x00, 0x00,
   0x00, 0x00, 0x00, 0x00, 0x00, 0x00, 0x00, 0x00, 0x00, 0x00, 0x00, 0x00,
   0x00, 0x00, 0x00, 0x00, 0x00, 0x00, 0x00, 0x00, 0x00, 0x00, 0x00, 0x00,
   0x00, 0x00, 0x00, 0x00, 0x00, 0x00, 0x00, 0x00, 0x00, 0x00, 0x00, 0x00,
   0x00, 0x00, 0x00, 0x00 };
