;Layer: Drill PTH
;EasyEDA v5.9.42, Fri, 19 Apr 2019 11:27:39 GMT
;62b01817c26747bfa47cc5f7c73cc831
;Gerber Generator version 0.2
M48
METRIC,LZ,000.000
;Holesize 1 = 0.803 METRIC
T01C0.803
;Holesize 2 = 0.813 METRIC
T02C0.813
;Holesize 3 = 0.901 METRIC
T03C0.901
;Holesize 4 = 1.001 METRIC
T04C1.001
%
G05
G90
T01
X+011938Y+016979
X+011938Y+011899
T02
X+029972Y+033997
X+027391Y+033997
T03
X+024130Y+003263
X+024130Y+005803
X+024130Y+008343
X+024130Y+010883
X+024130Y+013423
X+024130Y+015963
X+024130Y+018503
X+024130Y+021043
X+024130Y+023583
X+024130Y+026123
X+024130Y+028663
X+024130Y+031203
X+024130Y+033743
X+024130Y+036283
X+016510Y+003263
X+016510Y+005803
X+016510Y+008343
X+016510Y+010883
X+016510Y+013423
X+016510Y+015963
X+016510Y+018503
X+016510Y+021043
X+016510Y+023583
X+016510Y+026123
X+016510Y+028663
X+016510Y+031203
X+016510Y+033743
X+016510Y+036283
X+021902Y+045209
X+024442Y+045209
T04
X+045707Y+041611
X+045707Y+044151
X+045707Y+039071
X+045707Y+046691
X+039673Y+030185
X+042213Y+030185
X+039673Y+027645
X+042213Y+027645
X+039673Y+025105
X+042213Y+025105
X+039673Y+032725
X+042213Y+032725
X+039757Y+016469
X+042297Y+016469
X+039757Y+013929
X+042297Y+013929
X+039757Y+011389
X+042297Y+011389
X+039757Y+019009
X+042297Y+019009
X+026982Y+045209
X+031865Y+044955
X+034405Y+044955
X+036945Y+044955
X+005080Y+033235
X+007620Y+033235
X+010160Y+033235
X+002540Y+033235
X+012700Y+033235
X+006858Y+042879
X+006858Y+045419
X+009398Y+042879
X+009398Y+045419
X+011938Y+042879
X+011938Y+045419
X+004318Y+042879
X+004318Y+045419
X+014478Y+042879
X+014478Y+045419
X+005427Y+012062
X+005427Y+014602
X+005427Y+017142
X+005427Y+019682
X+034290Y+004787
X+036830Y+004787
X+039370Y+004787
X+041910Y+004787
X+044450Y+004787
X+046990Y+004787
M30
