G04 Layer: BottomSilkLayer*
G04 EasyEDA v5.9.42, Fri, 19 Apr 2019 11:27:39 GMT*
G04 62b01817c26747bfa47cc5f7c73cc831*
G04 Gerber Generator version 0.2*
G04 Scale: 100 percent, Rotated: No, Reflected: No *
G04 Dimensions in millimeters *
G04 leading zeros omitted , absolute positions ,3 integer and 3 decimal *
%FSLAX33Y33*%
%MOMM*%
G90*
G71D02*

%ADD10C,0.254000*%
%ADD22C,0.203200*%

%LPD*%
G54D22*
G01X44364Y40724D02*
G01X44364Y38784D01*
G01X44364Y40724D02*
G01X43717Y40724D01*
G01X43440Y40632D01*
G01X43255Y40447D01*
G01X43163Y40262D01*
G01X43071Y39985D01*
G01X43071Y39523D01*
G01X43163Y39246D01*
G01X43255Y39061D01*
G01X43440Y38877D01*
G01X43717Y38784D01*
G01X44364Y38784D01*
G01X42461Y40724D02*
G01X41722Y38784D01*
G01X40983Y40724D02*
G01X41722Y38784D01*
G01X40374Y40724D02*
G01X40374Y38784D01*
G01X39764Y40724D02*
G01X39764Y38784D01*
G01X39764Y40724D02*
G01X39118Y40724D01*
G01X38840Y40632D01*
G01X38656Y40447D01*
G01X38563Y40262D01*
G01X38471Y39985D01*
G01X38471Y39523D01*
G01X38563Y39246D01*
G01X38656Y39061D01*
G01X38840Y38877D01*
G01X39118Y38784D01*
G01X39764Y38784D01*
G01X32450Y42923D02*
G01X32013Y41778D01*
G01X31577Y42923D02*
G01X32013Y41778D01*
G01X31217Y42214D02*
G01X30563Y42214D01*
G01X30563Y42323D01*
G01X30617Y42432D01*
G01X30672Y42487D01*
G01X30781Y42541D01*
G01X30944Y42541D01*
G01X31053Y42487D01*
G01X31163Y42378D01*
G01X31217Y42214D01*
G01X31217Y42105D01*
G01X31163Y41941D01*
G01X31053Y41832D01*
G01X30944Y41778D01*
G01X30781Y41778D01*
G01X30672Y41832D01*
G01X30563Y41941D01*
G01X30203Y42541D02*
G01X30203Y41778D01*
G01X30203Y42214D02*
G01X30148Y42378D01*
G01X30039Y42487D01*
G01X29930Y42541D01*
G01X29766Y42541D01*
G01X28806Y42378D02*
G01X28861Y42487D01*
G01X29024Y42541D01*
G01X29188Y42541D01*
G01X29352Y42487D01*
G01X29406Y42378D01*
G01X29352Y42269D01*
G01X29243Y42214D01*
G01X28970Y42160D01*
G01X28861Y42105D01*
G01X28806Y41996D01*
G01X28806Y41941D01*
G01X28861Y41832D01*
G01X29024Y41778D01*
G01X29188Y41778D01*
G01X29352Y41832D01*
G01X29406Y41941D01*
G01X28446Y42923D02*
G01X28392Y42869D01*
G01X28337Y42923D01*
G01X28392Y42978D01*
G01X28446Y42923D01*
G01X28392Y42541D02*
G01X28392Y41778D01*
G01X27704Y42541D02*
G01X27813Y42487D01*
G01X27923Y42378D01*
G01X27977Y42214D01*
G01X27977Y42105D01*
G01X27923Y41941D01*
G01X27813Y41832D01*
G01X27704Y41778D01*
G01X27541Y41778D01*
G01X27432Y41832D01*
G01X27323Y41941D01*
G01X27268Y42105D01*
G01X27268Y42214D01*
G01X27323Y42378D01*
G01X27432Y42487D01*
G01X27541Y42541D01*
G01X27704Y42541D01*
G01X26908Y42541D02*
G01X26908Y41778D01*
G01X26908Y42323D02*
G01X26744Y42487D01*
G01X26635Y42541D01*
G01X26472Y42541D01*
G01X26363Y42487D01*
G01X26308Y42323D01*
G01X26308Y41778D01*
G01X25108Y42705D02*
G01X24999Y42760D01*
G01X24835Y42923D01*
G01X24835Y41778D01*
G01X24421Y42050D02*
G01X24475Y41996D01*
G01X24421Y41941D01*
G01X24366Y41996D01*
G01X24421Y42050D01*
G01X23679Y42923D02*
G01X23843Y42869D01*
G01X23952Y42705D01*
G01X24006Y42432D01*
G01X24006Y42269D01*
G01X23952Y41996D01*
G01X23843Y41832D01*
G01X23679Y41778D01*
G01X23570Y41778D01*
G01X23406Y41832D01*
G01X23297Y41996D01*
G01X23243Y42269D01*
G01X23243Y42432D01*
G01X23297Y42705D01*
G01X23406Y42869D01*
G01X23570Y42923D01*
G01X23679Y42923D01*
G01X21661Y43141D02*
G01X21770Y43032D01*
G01X21879Y42869D01*
G01X21988Y42650D01*
G01X22043Y42378D01*
G01X22043Y42160D01*
G01X21988Y41887D01*
G01X21879Y41669D01*
G01X21770Y41505D01*
G01X21661Y41396D01*
G01X20973Y42923D02*
G01X21137Y42869D01*
G01X21246Y42705D01*
G01X21301Y42432D01*
G01X21301Y42269D01*
G01X21246Y41996D01*
G01X21137Y41832D01*
G01X20973Y41778D01*
G01X20864Y41778D01*
G01X20701Y41832D01*
G01X20592Y41996D01*
G01X20537Y42269D01*
G01X20537Y42432D01*
G01X20592Y42705D01*
G01X20701Y42869D01*
G01X20864Y42923D01*
G01X20973Y42923D01*
G01X19632Y42923D02*
G01X20177Y42160D01*
G01X19359Y42160D01*
G01X19632Y42923D02*
G01X19632Y41778D01*
G01X18017Y43141D02*
G01X18999Y41396D01*
G01X17657Y42705D02*
G01X17548Y42760D01*
G01X17384Y42923D01*
G01X17384Y41778D01*
G01X16315Y42541D02*
G01X16370Y42378D01*
G01X16479Y42269D01*
G01X16643Y42214D01*
G01X16697Y42214D01*
G01X16861Y42269D01*
G01X16970Y42378D01*
G01X17024Y42541D01*
G01X17024Y42596D01*
G01X16970Y42760D01*
G01X16861Y42869D01*
G01X16697Y42923D01*
G01X16643Y42923D01*
G01X16479Y42869D01*
G01X16370Y42760D01*
G01X16315Y42541D01*
G01X16315Y42269D01*
G01X16370Y41996D01*
G01X16479Y41832D01*
G01X16643Y41778D01*
G01X16752Y41778D01*
G01X16915Y41832D01*
G01X16970Y41941D01*
G01X15955Y43141D02*
G01X15846Y43032D01*
G01X15737Y42869D01*
G01X15628Y42650D01*
G01X15573Y42378D01*
G01X15573Y42160D01*
G01X15628Y41887D01*
G01X15737Y41669D01*
G01X15846Y41505D01*
G01X15955Y41396D01*
G01X44279Y49145D02*
G01X44279Y47205D01*
G01X44279Y49145D02*
G01X43632Y49145D01*
G01X43355Y49053D01*
G01X43170Y48868D01*
G01X43078Y48683D01*
G01X42986Y48406D01*
G01X42986Y47944D01*
G01X43078Y47667D01*
G01X43170Y47482D01*
G01X43355Y47298D01*
G01X43632Y47205D01*
G01X44279Y47205D01*
G01X41268Y48498D02*
G01X41268Y47205D01*
G01X41268Y48221D02*
G01X41452Y48406D01*
G01X41637Y48498D01*
G01X41914Y48498D01*
G01X42099Y48406D01*
G01X42284Y48221D01*
G01X42376Y47944D01*
G01X42376Y47760D01*
G01X42284Y47482D01*
G01X42099Y47298D01*
G01X41914Y47205D01*
G01X41637Y47205D01*
G01X41452Y47298D01*
G01X41268Y47482D01*
G01X40658Y48498D02*
G01X40658Y47205D01*
G01X40658Y48129D02*
G01X40381Y48406D01*
G01X40196Y48498D01*
G01X39919Y48498D01*
G01X39734Y48406D01*
G01X39642Y48129D01*
G01X39642Y47205D01*
G01X39642Y48129D02*
G01X39365Y48406D01*
G01X39180Y48498D01*
G01X38903Y48498D01*
G01X38718Y48406D01*
G01X38626Y48129D01*
G01X38626Y47205D01*
G01X38016Y48498D02*
G01X38016Y47205D01*
G01X38016Y48129D02*
G01X37739Y48406D01*
G01X37555Y48498D01*
G01X37277Y48498D01*
G01X37093Y48406D01*
G01X37000Y48129D01*
G01X37000Y47205D01*
G01X34968Y49145D02*
G01X34229Y47205D01*
G01X33491Y49145D02*
G01X34229Y47205D01*
G01X32881Y48498D02*
G01X32881Y47575D01*
G01X32789Y47298D01*
G01X32604Y47205D01*
G01X32327Y47205D01*
G01X32142Y47298D01*
G01X31865Y47575D01*
G01X31865Y48498D02*
G01X31865Y47205D01*
G01X31255Y49145D02*
G01X31255Y47205D01*
G01X30646Y48498D02*
G01X30646Y47205D01*
G01X30646Y48129D02*
G01X30369Y48406D01*
G01X30184Y48498D01*
G01X29907Y48498D01*
G01X29722Y48406D01*
G01X29630Y48129D01*
G01X29630Y47205D01*
G01X29020Y47944D02*
G01X27912Y47944D01*
G01X27912Y48129D01*
G01X28004Y48314D01*
G01X28097Y48406D01*
G01X28281Y48498D01*
G01X28558Y48498D01*
G01X28743Y48406D01*
G01X28928Y48221D01*
G01X29020Y47944D01*
G01X29020Y47760D01*
G01X28928Y47482D01*
G01X28743Y47298D01*
G01X28558Y47205D01*
G01X28281Y47205D01*
G01X28097Y47298D01*
G01X27912Y47482D01*
G01X27302Y48498D02*
G01X27302Y47205D01*
G01X27302Y47944D02*
G01X27210Y48221D01*
G01X27025Y48406D01*
G01X26840Y48498D01*
G01X26563Y48498D01*
G01X24845Y48498D02*
G01X24845Y47205D01*
G01X24845Y48221D02*
G01X25030Y48406D01*
G01X25215Y48498D01*
G01X25492Y48498D01*
G01X25677Y48406D01*
G01X25861Y48221D01*
G01X25954Y47944D01*
G01X25954Y47760D01*
G01X25861Y47482D01*
G01X25677Y47298D01*
G01X25492Y47205D01*
G01X25215Y47205D01*
G01X25030Y47298D01*
G01X24845Y47482D01*
G01X24236Y49145D02*
G01X24236Y47205D01*
G01X24236Y48221D02*
G01X24051Y48406D01*
G01X23866Y48498D01*
G01X23589Y48498D01*
G01X23404Y48406D01*
G01X23220Y48221D01*
G01X23127Y47944D01*
G01X23127Y47760D01*
G01X23220Y47482D01*
G01X23404Y47298D01*
G01X23589Y47205D01*
G01X23866Y47205D01*
G01X24051Y47298D01*
G01X24236Y47482D01*
G01X22518Y49145D02*
G01X22518Y47205D01*
G01X21908Y47944D02*
G01X20800Y47944D01*
G01X20800Y48129D01*
G01X20892Y48314D01*
G01X20985Y48406D01*
G01X21169Y48498D01*
G01X21446Y48498D01*
G01X21631Y48406D01*
G01X21816Y48221D01*
G01X21908Y47944D01*
G01X21908Y47760D01*
G01X21816Y47482D01*
G01X21631Y47298D01*
G01X21446Y47205D01*
G01X21169Y47205D01*
G01X20985Y47298D01*
G01X20800Y47482D01*
G01X18768Y49145D02*
G01X18768Y47205D01*
G01X17696Y48498D02*
G01X17881Y48406D01*
G01X18066Y48221D01*
G01X18158Y47944D01*
G01X18158Y47760D01*
G01X18066Y47482D01*
G01X17881Y47298D01*
G01X17696Y47205D01*
G01X17419Y47205D01*
G01X17235Y47298D01*
G01X17050Y47482D01*
G01X16957Y47760D01*
G01X16957Y47944D01*
G01X17050Y48221D01*
G01X17235Y48406D01*
G01X17419Y48498D01*
G01X17696Y48498D01*
G01X15701Y49145D02*
G01X15701Y47205D01*
G01X16348Y49145D02*
G01X15055Y49145D01*
G01X13023Y49145D02*
G01X13023Y47205D01*
G01X13023Y49145D02*
G01X12376Y49145D01*
G01X12099Y49053D01*
G01X11914Y48868D01*
G01X11822Y48683D01*
G01X11730Y48406D01*
G01X11730Y47944D01*
G01X11822Y47667D01*
G01X11914Y47482D01*
G01X12099Y47298D01*
G01X12376Y47205D01*
G01X13023Y47205D01*
G01X11120Y47944D02*
G01X10012Y47944D01*
G01X10012Y48129D01*
G01X10104Y48314D01*
G01X10196Y48406D01*
G01X10381Y48498D01*
G01X10658Y48498D01*
G01X10843Y48406D01*
G01X11028Y48221D01*
G01X11120Y47944D01*
G01X11120Y47760D01*
G01X11028Y47482D01*
G01X10843Y47298D01*
G01X10658Y47205D01*
G01X10381Y47205D01*
G01X10196Y47298D01*
G01X10012Y47482D01*
G01X9402Y48498D02*
G01X8848Y47205D01*
G01X8294Y48498D02*
G01X8848Y47205D01*
G01X7684Y49145D02*
G01X7592Y49053D01*
G01X7499Y49145D01*
G01X7592Y49237D01*
G01X7684Y49145D01*
G01X7592Y48498D02*
G01X7592Y47205D01*
G01X5781Y48221D02*
G01X5966Y48406D01*
G01X6151Y48498D01*
G01X6428Y48498D01*
G01X6613Y48406D01*
G01X6797Y48221D01*
G01X6890Y47944D01*
G01X6890Y47760D01*
G01X6797Y47482D01*
G01X6613Y47298D01*
G01X6428Y47205D01*
G01X6151Y47205D01*
G01X5966Y47298D01*
G01X5781Y47482D01*
G01X5172Y47944D02*
G01X4064Y47944D01*
G01X4064Y48129D01*
G01X4156Y48314D01*
G01X4248Y48406D01*
G01X4433Y48498D01*
G01X4710Y48498D01*
G01X4895Y48406D01*
G01X5080Y48221D01*
G01X5172Y47944D01*
G01X5172Y47760D01*
G01X5080Y47482D01*
G01X4895Y47298D01*
G01X4710Y47205D01*
G01X4433Y47205D01*
G01X4248Y47298D01*
G01X4064Y47482D01*
G01X32166Y40801D02*
G01X32166Y39655D01*
G01X32166Y40801D02*
G01X31784Y40801D01*
G01X31621Y40746D01*
G01X31512Y40637D01*
G01X31457Y40528D01*
G01X31402Y40364D01*
G01X31402Y40092D01*
G01X31457Y39928D01*
G01X31512Y39819D01*
G01X31621Y39710D01*
G01X31784Y39655D01*
G01X32166Y39655D01*
G01X31042Y40092D02*
G01X30388Y40092D01*
G01X30388Y40201D01*
G01X30442Y40310D01*
G01X30497Y40364D01*
G01X30606Y40419D01*
G01X30770Y40419D01*
G01X30879Y40364D01*
G01X30988Y40255D01*
G01X31042Y40092D01*
G01X31042Y39983D01*
G01X30988Y39819D01*
G01X30879Y39710D01*
G01X30770Y39655D01*
G01X30606Y39655D01*
G01X30497Y39710D01*
G01X30388Y39819D01*
G01X29428Y40255D02*
G01X29482Y40364D01*
G01X29646Y40419D01*
G01X29810Y40419D01*
G01X29973Y40364D01*
G01X30028Y40255D01*
G01X29973Y40146D01*
G01X29864Y40092D01*
G01X29591Y40037D01*
G01X29482Y39983D01*
G01X29428Y39874D01*
G01X29428Y39819D01*
G01X29482Y39710D01*
G01X29646Y39655D01*
G01X29810Y39655D01*
G01X29973Y39710D01*
G01X30028Y39819D01*
G01X29068Y40801D02*
G01X29013Y40746D01*
G01X28959Y40801D01*
G01X29013Y40855D01*
G01X29068Y40801D01*
G01X29013Y40419D02*
G01X29013Y39655D01*
G01X27944Y40419D02*
G01X27944Y39546D01*
G01X27999Y39383D01*
G01X28053Y39328D01*
G01X28162Y39274D01*
G01X28326Y39274D01*
G01X28435Y39328D01*
G01X27944Y40255D02*
G01X28053Y40364D01*
G01X28162Y40419D01*
G01X28326Y40419D01*
G01X28435Y40364D01*
G01X28544Y40255D01*
G01X28599Y40092D01*
G01X28599Y39983D01*
G01X28544Y39819D01*
G01X28435Y39710D01*
G01X28326Y39655D01*
G01X28162Y39655D01*
G01X28053Y39710D01*
G01X27944Y39819D01*
G01X27584Y40419D02*
G01X27584Y39655D01*
G01X27584Y40201D02*
G01X27421Y40364D01*
G01X27312Y40419D01*
G01X27148Y40419D01*
G01X27039Y40364D01*
G01X26984Y40201D01*
G01X26984Y39655D01*
G01X26624Y40092D02*
G01X25970Y40092D01*
G01X25970Y40201D01*
G01X26024Y40310D01*
G01X26079Y40364D01*
G01X26188Y40419D01*
G01X26351Y40419D01*
G01X26461Y40364D01*
G01X26570Y40255D01*
G01X26624Y40092D01*
G01X26624Y39983D01*
G01X26570Y39819D01*
G01X26461Y39710D01*
G01X26351Y39655D01*
G01X26188Y39655D01*
G01X26079Y39710D01*
G01X25970Y39819D01*
G01X24955Y40801D02*
G01X24955Y39655D01*
G01X24955Y40255D02*
G01X25064Y40364D01*
G01X25173Y40419D01*
G01X25337Y40419D01*
G01X25446Y40364D01*
G01X25555Y40255D01*
G01X25610Y40092D01*
G01X25610Y39983D01*
G01X25555Y39819D01*
G01X25446Y39710D01*
G01X25337Y39655D01*
G01X25173Y39655D01*
G01X25064Y39710D01*
G01X24955Y39819D01*
G01X23755Y40801D02*
G01X23755Y39655D01*
G01X23755Y40801D02*
G01X23264Y40801D01*
G01X23101Y40746D01*
G01X23046Y40692D01*
G01X22992Y40583D01*
G01X22992Y40474D01*
G01X23046Y40364D01*
G01X23101Y40310D01*
G01X23264Y40255D01*
G01X23755Y40255D02*
G01X23264Y40255D01*
G01X23101Y40201D01*
G01X23046Y40146D01*
G01X22992Y40037D01*
G01X22992Y39874D01*
G01X23046Y39764D01*
G01X23101Y39710D01*
G01X23264Y39655D01*
G01X23755Y39655D01*
G01X22577Y40419D02*
G01X22250Y39655D01*
G01X21922Y40419D02*
G01X22250Y39655D01*
G01X22359Y39437D01*
G01X22468Y39328D01*
G01X22577Y39274D01*
G01X22632Y39274D01*
G01X20722Y40801D02*
G01X20286Y39655D01*
G01X19850Y40801D02*
G01X20286Y39655D01*
G01X19490Y40419D02*
G01X19490Y39874D01*
G01X19435Y39710D01*
G01X19326Y39655D01*
G01X19162Y39655D01*
G01X19053Y39710D01*
G01X18890Y39874D01*
G01X18890Y40419D02*
G01X18890Y39655D01*
G01X18530Y40801D02*
G01X18530Y39655D01*
G01X17515Y40255D02*
G01X17624Y40364D01*
G01X17733Y40419D01*
G01X17897Y40419D01*
G01X18006Y40364D01*
G01X18115Y40255D01*
G01X18170Y40092D01*
G01X18170Y39983D01*
G01X18115Y39819D01*
G01X18006Y39710D01*
G01X17897Y39655D01*
G01X17733Y39655D01*
G01X17624Y39710D01*
G01X17515Y39819D01*
G01X16501Y40419D02*
G01X16501Y39655D01*
G01X16501Y40255D02*
G01X16610Y40364D01*
G01X16719Y40419D01*
G01X16882Y40419D01*
G01X16992Y40364D01*
G01X17101Y40255D01*
G01X17155Y40092D01*
G01X17155Y39983D01*
G01X17101Y39819D01*
G01X16992Y39710D01*
G01X16882Y39655D01*
G01X16719Y39655D01*
G01X16610Y39710D01*
G01X16501Y39819D01*
G01X16141Y40801D02*
G01X16086Y40746D01*
G01X16032Y40801D01*
G01X16086Y40855D01*
G01X16141Y40801D01*
G01X16086Y40419D02*
G01X16086Y39655D01*
G01X15672Y40419D02*
G01X15672Y39655D01*
G01X15672Y40201D02*
G01X15508Y40364D01*
G01X15399Y40419D01*
G01X15235Y40419D01*
G01X15126Y40364D01*
G01X15072Y40201D01*
G01X15072Y39655D01*
G01X14712Y40419D02*
G01X14712Y39655D01*
G01X14712Y40092D02*
G01X14657Y40255D01*
G01X14548Y40364D01*
G01X14439Y40419D01*
G01X14275Y40419D01*
G01X13915Y40092D02*
G01X13261Y40092D01*
G01X13261Y40201D01*
G01X13315Y40310D01*
G01X13370Y40364D01*
G01X13479Y40419D01*
G01X13642Y40419D01*
G01X13752Y40364D01*
G01X13861Y40255D01*
G01X13915Y40092D01*
G01X13915Y39983D01*
G01X13861Y39819D01*
G01X13752Y39710D01*
G01X13642Y39655D01*
G01X13479Y39655D01*
G01X13370Y39710D01*
G01X13261Y39819D01*
G01X12628Y40419D02*
G01X12737Y40364D01*
G01X12846Y40255D01*
G01X12901Y40092D01*
G01X12901Y39983D01*
G01X12846Y39819D01*
G01X12737Y39710D01*
G01X12628Y39655D01*
G01X12464Y39655D01*
G01X12355Y39710D01*
G01X12246Y39819D01*
G01X12192Y39983D01*
G01X12192Y40092D01*
G01X12246Y40255D01*
G01X12355Y40364D01*
G01X12464Y40419D01*
G01X12628Y40419D01*
G01X32180Y38515D02*
G01X32180Y37369D01*
G01X32180Y37369D02*
G01X31526Y37369D01*
G01X31166Y38515D02*
G01X31111Y38460D01*
G01X31057Y38515D01*
G01X31111Y38569D01*
G01X31166Y38515D01*
G01X31111Y38133D02*
G01X31111Y37369D01*
G01X30042Y37969D02*
G01X30151Y38078D01*
G01X30260Y38133D01*
G01X30424Y38133D01*
G01X30533Y38078D01*
G01X30642Y37969D01*
G01X30697Y37806D01*
G01X30697Y37697D01*
G01X30642Y37533D01*
G01X30533Y37424D01*
G01X30424Y37369D01*
G01X30260Y37369D01*
G01X30151Y37424D01*
G01X30042Y37533D01*
G01X29682Y37806D02*
G01X29028Y37806D01*
G01X29028Y37915D01*
G01X29082Y38024D01*
G01X29137Y38078D01*
G01X29246Y38133D01*
G01X29409Y38133D01*
G01X29519Y38078D01*
G01X29628Y37969D01*
G01X29682Y37806D01*
G01X29682Y37697D01*
G01X29628Y37533D01*
G01X29519Y37424D01*
G01X29409Y37369D01*
G01X29246Y37369D01*
G01X29137Y37424D01*
G01X29028Y37533D01*
G01X28668Y38133D02*
G01X28668Y37369D01*
G01X28668Y37915D02*
G01X28504Y38078D01*
G01X28395Y38133D01*
G01X28231Y38133D01*
G01X28122Y38078D01*
G01X28068Y37915D01*
G01X28068Y37369D01*
G01X27053Y37969D02*
G01X27162Y38078D01*
G01X27271Y38133D01*
G01X27435Y38133D01*
G01X27544Y38078D01*
G01X27653Y37969D01*
G01X27708Y37806D01*
G01X27708Y37697D01*
G01X27653Y37533D01*
G01X27544Y37424D01*
G01X27435Y37369D01*
G01X27271Y37369D01*
G01X27162Y37424D01*
G01X27053Y37533D01*
G01X26693Y37806D02*
G01X26039Y37806D01*
G01X26039Y37915D01*
G01X26093Y38024D01*
G01X26148Y38078D01*
G01X26257Y38133D01*
G01X26420Y38133D01*
G01X26529Y38078D01*
G01X26639Y37969D01*
G01X26693Y37806D01*
G01X26693Y37697D01*
G01X26639Y37533D01*
G01X26529Y37424D01*
G01X26420Y37369D01*
G01X26257Y37369D01*
G01X26148Y37424D01*
G01X26039Y37533D01*
G01X25024Y38515D02*
G01X25024Y37369D01*
G01X25024Y37969D02*
G01X25133Y38078D01*
G01X25242Y38133D01*
G01X25406Y38133D01*
G01X25515Y38078D01*
G01X25624Y37969D01*
G01X25679Y37806D01*
G01X25679Y37697D01*
G01X25624Y37533D01*
G01X25515Y37424D01*
G01X25406Y37369D01*
G01X25242Y37369D01*
G01X25133Y37424D01*
G01X25024Y37533D01*
G01X23824Y38515D02*
G01X23824Y37369D01*
G01X23824Y37969D02*
G01X23715Y38078D01*
G01X23606Y38133D01*
G01X23442Y38133D01*
G01X23333Y38078D01*
G01X23224Y37969D01*
G01X23169Y37806D01*
G01X23169Y37697D01*
G01X23224Y37533D01*
G01X23333Y37424D01*
G01X23442Y37369D01*
G01X23606Y37369D01*
G01X23715Y37424D01*
G01X23824Y37533D01*
G01X22755Y38133D02*
G01X22428Y37369D01*
G01X22100Y38133D02*
G01X22428Y37369D01*
G01X22537Y37151D01*
G01X22646Y37042D01*
G01X22755Y36988D01*
G01X22809Y36988D01*
G01X20082Y38242D02*
G01X20137Y38351D01*
G01X20246Y38460D01*
G01X20355Y38515D01*
G01X20573Y38515D01*
G01X20682Y38460D01*
G01X20791Y38351D01*
G01X20846Y38242D01*
G01X20900Y38078D01*
G01X20900Y37806D01*
G01X20846Y37642D01*
G01X20791Y37533D01*
G01X20682Y37424D01*
G01X20573Y37369D01*
G01X20355Y37369D01*
G01X20246Y37424D01*
G01X20137Y37533D01*
G01X20082Y37642D01*
G01X20082Y37806D01*
G01X20355Y37806D02*
G01X20082Y37806D01*
G01X19722Y38515D02*
G01X19722Y37369D01*
G01X19722Y38515D02*
G01X18959Y37369D01*
G01X18959Y38515D02*
G01X18959Y37369D01*
G01X18599Y38515D02*
G01X18599Y37697D01*
G01X18544Y37533D01*
G01X18435Y37424D01*
G01X18271Y37369D01*
G01X18162Y37369D01*
G01X17999Y37424D01*
G01X17889Y37533D01*
G01X17835Y37697D01*
G01X17835Y38515D01*
G01X15817Y38242D02*
G01X15871Y38351D01*
G01X15980Y38460D01*
G01X16089Y38515D01*
G01X16308Y38515D01*
G01X16417Y38460D01*
G01X16526Y38351D01*
G01X16580Y38242D01*
G01X16635Y38078D01*
G01X16635Y37806D01*
G01X16580Y37642D01*
G01X16526Y37533D01*
G01X16417Y37424D01*
G01X16308Y37369D01*
G01X16089Y37369D01*
G01X15980Y37424D01*
G01X15871Y37533D01*
G01X15817Y37642D01*
G01X15817Y37806D01*
G01X16089Y37806D02*
G01X15817Y37806D01*
G01X15457Y38515D02*
G01X15457Y37369D01*
G01X15457Y38515D02*
G01X14966Y38515D01*
G01X14802Y38460D01*
G01X14748Y38406D01*
G01X14693Y38297D01*
G01X14693Y38133D01*
G01X14748Y38024D01*
G01X14802Y37969D01*
G01X14966Y37915D01*
G01X15457Y37915D01*
G01X14333Y38515D02*
G01X14333Y37369D01*
G01X14333Y37369D02*
G01X13679Y37369D01*
G01X12479Y38515D02*
G01X12042Y37369D01*
G01X11606Y38515D02*
G01X12042Y37369D01*
G01X11137Y38515D02*
G01X10537Y38515D01*
G01X10864Y38078D01*
G01X10700Y38078D01*
G01X10591Y38024D01*
G01X10537Y37969D01*
G01X10482Y37806D01*
G01X10482Y37697D01*
G01X10537Y37533D01*
G01X10646Y37424D01*
G01X10809Y37369D01*
G01X10973Y37369D01*
G01X11137Y37424D01*
G01X11191Y37478D01*
G01X11246Y37588D01*
G01X10068Y37642D02*
G01X10122Y37588D01*
G01X10068Y37533D01*
G01X10013Y37588D01*
G01X10068Y37642D01*
G01X9326Y38515D02*
G01X9489Y38460D01*
G01X9599Y38297D01*
G01X9653Y38024D01*
G01X9653Y37860D01*
G01X9599Y37588D01*
G01X9489Y37424D01*
G01X9326Y37369D01*
G01X9217Y37369D01*
G01X9053Y37424D01*
G01X8944Y37588D01*
G01X8890Y37860D01*
G01X8890Y38024D01*
G01X8944Y38297D01*
G01X9053Y38460D01*
G01X9217Y38515D01*
G01X9326Y38515D01*
G54D10*
G75*
G01X35931Y44280D02*
G03X35931Y44280I-127J0D01*
G01*
G75*
G01X37074Y43645D02*
G03X37074Y43645I-127J0D01*
G01*
G75*
G01X39360Y44090D02*
G03X39360Y44090I-127J0D01*
G01*
G75*
G01X40440Y43518D02*
G03X40440Y43518I-127J0D01*
G01*
G75*
G01X37963Y43518D02*
G03X37963Y43518I-127J0D01*
G01*
G75*
G01X38725Y44788D02*
G03X38725Y44788I-127J0D01*
G01*
G75*
G01X34122Y37200D02*
G03X34122Y37200I-127J0D01*
G01*
G75*
G01X34757Y38343D02*
G03X34757Y38343I-127J0D01*
G01*
G75*
G01X34312Y40629D02*
G03X34312Y40629I-127J0D01*
G01*
G75*
G01X34884Y41709D02*
G03X34884Y41709I-127J0D01*
G01*
G75*
G01X34884Y39232D02*
G03X34884Y39232I-127J0D01*
G01*
G75*
G01X33614Y39994D02*
G03X33614Y39994I-127J0D01*
G01*
G75*
G01X34217Y42502D02*
G03X34217Y42502I-127J0D01*
G01*
G75*
G01X40027Y35486D02*
G03X40027Y35486I-127J0D01*
G01*
G75*
G01X38884Y36121D02*
G03X38884Y36121I-127J0D01*
G01*
G75*
G01X36598Y35676D02*
G03X36598Y35676I-127J0D01*
G01*
G75*
G01X37995Y36248D02*
G03X37995Y36248I-127J0D01*
G01*
G75*
G01X37233Y34978D02*
G03X37233Y34978I-127J0D01*
G01*
G75*
G01X35550Y36279D02*
G03X35550Y36279I-127J0D01*
G01*
G36*
G01X39995Y38438D02*
G01X40503Y38438D01*
G01X40503Y36660D01*
G01X39995Y36660D01*
G01X39995Y38438D01*
G37*
G36*
G01X39995Y42883D02*
G01X40503Y42883D01*
G01X40503Y41105D01*
G01X39995Y41105D01*
G01X39995Y42883D01*
G37*
G36*
G01X35169Y43010D02*
G01X40503Y43010D01*
G01X40503Y42502D01*
G01X35169Y42502D01*
G01X35169Y43010D01*
G37*
G36*
G01X35169Y42883D02*
G01X35677Y42883D01*
G01X35677Y36660D01*
G01X35169Y36660D01*
G01X35169Y42883D01*
G37*
G36*
G01X35169Y37168D02*
G01X40503Y37168D01*
G01X40503Y36660D01*
G01X35169Y36660D01*
G01X35169Y37168D01*
G37*
G36*
G01X35677Y44280D02*
G01X35931Y44280D01*
G01X35931Y43010D01*
G01X35677Y43010D01*
G01X35677Y44280D01*
G37*
G36*
G01X36185Y43772D02*
G01X36439Y43772D01*
G01X36439Y43010D01*
G01X36185Y43010D01*
G01X36185Y43772D01*
G37*
G36*
G01X36185Y43772D02*
G01X36947Y43772D01*
G01X36947Y43518D01*
G01X36185Y43518D01*
G01X36185Y43772D01*
G37*
G36*
G01X37709Y44280D02*
G01X38471Y44280D01*
G01X38471Y44026D01*
G01X37709Y44026D01*
G01X37709Y44280D01*
G37*
G36*
G01X37709Y44280D02*
G01X37963Y44280D01*
G01X37963Y43518D01*
G01X37709Y43518D01*
G01X37709Y44280D01*
G37*
G36*
G01X38471Y44788D02*
G01X38725Y44788D01*
G01X38725Y43010D01*
G01X38471Y43010D01*
G01X38471Y44788D01*
G37*
G36*
G01X39106Y44089D02*
G01X39360Y44089D01*
G01X39360Y42819D01*
G01X39106Y42819D01*
G01X39106Y44089D01*
G37*
G36*
G01X39550Y43645D02*
G01X39804Y43645D01*
G01X39804Y42883D01*
G01X39550Y42883D01*
G01X39550Y43645D01*
G37*
G36*
G01X39550Y43645D02*
G01X40312Y43645D01*
G01X40312Y43391D01*
G01X39550Y43391D01*
G01X39550Y43645D01*
G37*
G36*
G01X33994Y37327D02*
G01X35264Y37327D01*
G01X35264Y37073D01*
G01X33994Y37073D01*
G01X33994Y37327D01*
G37*
G36*
G01X34502Y37835D02*
G01X35264Y37835D01*
G01X35264Y37581D01*
G01X34502Y37581D01*
G01X34502Y37835D01*
G37*
G36*
G01X34502Y38343D02*
G01X34756Y38343D01*
G01X34756Y37581D01*
G01X34502Y37581D01*
G01X34502Y38343D01*
G37*
G36*
G01X33994Y39867D02*
G01X34248Y39867D01*
G01X34248Y39105D01*
G01X33994Y39105D01*
G01X33994Y39867D01*
G37*
G36*
G01X33994Y39359D02*
G01X34756Y39359D01*
G01X34756Y39105D01*
G01X33994Y39105D01*
G01X33994Y39359D01*
G37*
G36*
G01X33486Y40121D02*
G01X35264Y40121D01*
G01X35264Y39867D01*
G01X33486Y39867D01*
G01X33486Y40121D01*
G37*
G36*
G01X34185Y40756D02*
G01X35455Y40756D01*
G01X35455Y40502D01*
G01X34185Y40502D01*
G01X34185Y40756D01*
G37*
G36*
G01X34629Y41200D02*
G01X35391Y41200D01*
G01X35391Y40946D01*
G01X34629Y40946D01*
G01X34629Y41200D01*
G37*
G36*
G01X34629Y41708D02*
G01X34883Y41708D01*
G01X34883Y40946D01*
G01X34629Y40946D01*
G01X34629Y41708D01*
G37*
G36*
G01X34089Y42629D02*
G01X35359Y42629D01*
G01X35359Y42375D01*
G01X34089Y42375D01*
G01X34089Y42629D01*
G37*
G36*
G01X39773Y36755D02*
G01X40027Y36755D01*
G01X40027Y35485D01*
G01X39773Y35485D01*
G01X39773Y36755D01*
G37*
G36*
G01X39265Y36755D02*
G01X39519Y36755D01*
G01X39519Y35993D01*
G01X39265Y35993D01*
G01X39265Y36755D01*
G37*
G36*
G01X38757Y36247D02*
G01X39519Y36247D01*
G01X39519Y35993D01*
G01X38757Y35993D01*
G01X38757Y36247D01*
G37*
G36*
G01X37233Y35739D02*
G01X37995Y35739D01*
G01X37995Y35485D01*
G01X37233Y35485D01*
G01X37233Y35739D01*
G37*
G36*
G01X37741Y36247D02*
G01X37995Y36247D01*
G01X37995Y35485D01*
G01X37741Y35485D01*
G01X37741Y36247D01*
G37*
G36*
G01X36979Y36755D02*
G01X37233Y36755D01*
G01X37233Y34977D01*
G01X36979Y34977D01*
G01X36979Y36755D01*
G37*
G36*
G01X36344Y36946D02*
G01X36598Y36946D01*
G01X36598Y35676D01*
G01X36344Y35676D01*
G01X36344Y36946D01*
G37*
G36*
G01X35899Y36882D02*
G01X36153Y36882D01*
G01X36153Y36120D01*
G01X35899Y36120D01*
G01X35899Y36882D01*
G37*
G36*
G01X35391Y36374D02*
G01X36153Y36374D01*
G01X36153Y36120D01*
G01X35391Y36120D01*
G01X35391Y36374D01*
G37*
M00*
M02*
