G04 Layer: TopLayer*
G04 EasyEDA v5.9.42, Sun, 03 Mar 2019 13:32:01 GMT*
G04 8358539c5ca44937bce32fba3cbe82d4*
G04 Gerber Generator version 0.2*
G04 Scale: 100 percent, Rotated: No, Reflected: No *
G04 Dimensions in millimeters *
G04 leading zeros omitted , absolute positions ,3 integer and 3 decimal *
%FSLAX33Y33*%
%MOMM*%
G90*
G71D02*

%ADD10C,0.254000*%
%ADD11C,2.032000*%
%ADD12C,1.499997*%
%ADD13R,1.499997X1.499997*%
%ADD14C,1.599997*%

%LPD*%
G54D10*
G01X11938Y16979D02*
G01X15240Y16979D01*
G01X16510Y15709D01*
G01X11938Y11899D02*
G01X15240Y11899D01*
G01X16510Y13169D01*
G01X16510Y13169D01*
G01X12700Y33235D02*
G01X13716Y33235D01*
G01X16510Y36029D01*
G01X16510Y33489D02*
G01X14478Y31457D01*
G01X11938Y31457D01*
G01X10160Y33235D01*
G01X16510Y30949D02*
G01X9906Y30949D01*
G01X7620Y33235D01*
G01X27391Y33997D02*
G01X27391Y33997D01*
G01X27432Y16471D01*
G01X24130Y13169D01*
G01X24130Y36029D02*
G01X23876Y36029D01*
G01X21336Y33489D01*
G01X21336Y27139D01*
G01X15748Y27139D01*
G01X13982Y24853D01*
G01X3556Y24853D01*
G01X3556Y18757D01*
G01X5427Y17142D01*
G01X24130Y33489D02*
G01X21844Y31203D01*
G01X21844Y22072D01*
G01X7012Y22037D01*
G01X5427Y19682D01*
G01X12700Y33235D02*
G01X12700Y41617D01*
G01X10878Y41617D01*
G01X9398Y42880D01*
G01X11938Y42880D02*
G01X13208Y41828D01*
G01X13208Y38061D01*
G01X25654Y38061D01*
G01X25654Y35267D01*
G01X27475Y34069D01*
G01X27391Y33997D01*
G01X24442Y45209D02*
G01X24442Y43395D01*
G01X31865Y43395D01*
G01X31865Y44955D01*
G01X14478Y45420D02*
G01X14478Y46697D01*
G01X20413Y46697D01*
G01X21902Y45209D01*
G01X21902Y45209D02*
G01X23022Y46951D01*
G01X35359Y46951D01*
G01X36946Y44945D01*
G01X21902Y45209D02*
G01X23114Y43649D01*
G01X23114Y38569D01*
G01X28448Y38569D01*
G01X28448Y35267D01*
G01X29972Y33997D01*
G01X24130Y20789D02*
G01X22352Y20789D01*
G01X21844Y20281D01*
G01X21844Y18249D01*
G01X16510Y18249D01*
G01X16510Y18249D02*
G01X18796Y18249D01*
G01X18796Y9359D01*
G01X9624Y9359D01*
G01X5427Y12062D01*
G01X5428Y14602D02*
G01X8036Y14602D01*
G01X8128Y14693D01*
G01X8128Y18757D01*
G01X14478Y18757D01*
G01X16510Y20789D01*
G01X5427Y14602D02*
G01X1778Y14602D01*
G01X1778Y31965D01*
G01X3810Y31965D01*
G01X5080Y33235D01*
G01X2540Y33235D02*
G01X1270Y32146D01*
G01X1270Y12143D01*
G01X5427Y12062D01*
G01X6858Y45420D02*
G01X6858Y46697D01*
G01X6858Y46697D01*
G01X3515Y46697D01*
G01X3048Y46189D01*
G01X2540Y45686D01*
G01X2540Y33235D01*
G01X26982Y45209D02*
G01X27213Y45209D01*
G01X28448Y46443D01*
G01X34406Y46443D01*
G01X34406Y44955D01*
G01X34405Y44955D02*
G01X34405Y25105D01*
G01X39674Y25105D01*
G01X39673Y25105D02*
G01X39673Y23788D01*
G01X42418Y21043D01*
G01X42418Y19129D01*
G01X42297Y19009D01*
G01X36945Y44955D02*
G01X36945Y39072D01*
G01X45707Y39072D01*
G01X42214Y32725D02*
G01X42204Y38016D01*
G01X42204Y39072D01*
G01X45707Y39071D01*
G01X42214Y32725D02*
G01X48260Y32727D01*
G01X48260Y17744D01*
G01X41148Y17741D01*
G01X39756Y19009D01*
G01X39756Y19009D02*
G01X33782Y19011D01*
G01X33782Y4787D01*
G01X35704Y4787D01*
G01X35740Y4823D01*
G01X24130Y15709D02*
G01X22606Y15709D01*
G01X21336Y14439D01*
G01X21336Y723D01*
G01X37338Y723D01*
G01X37338Y3517D01*
G01X38280Y4823D01*
G01X38280Y4823D01*
G01X16510Y20789D02*
G01X21590Y20789D01*
G01X22860Y22059D01*
G01X25654Y22059D01*
G01X25654Y16725D01*
G01X24130Y15201D01*
G01X45707Y46692D02*
G01X49276Y46697D01*
G01X49276Y723D01*
G01X39116Y723D01*
G01X39116Y3771D01*
G01X38280Y4823D01*
G01X39674Y30185D02*
G01X36578Y30185D01*
G01X36576Y30187D01*
G01X36576Y25204D01*
G01X36647Y25105D01*
G01X14478Y45420D02*
G01X14478Y46697D01*
G01X11938Y46697D01*
G01X11938Y45420D01*
G01X11938Y45420D02*
G01X11938Y46697D01*
G01X9398Y46697D01*
G01X9398Y46697D02*
G01X6858Y46697D01*
G01X6858Y45420D01*
G01X4318Y45420D02*
G01X3048Y44162D01*
G01X3048Y35267D01*
G01X5080Y33235D01*
G01X9398Y46697D02*
G01X9398Y45419D01*
G54D11*
G01X29972Y33997D03*
G01X27391Y33997D03*
G54D12*
G01X11938Y16979D03*
G01X11938Y11899D03*
G01X24130Y3009D03*
G01X24130Y5549D03*
G01X24130Y8089D03*
G01X24130Y10629D03*
G01X24130Y13169D03*
G01X24130Y15709D03*
G01X24130Y18249D03*
G01X24130Y20789D03*
G01X24130Y23329D03*
G01X24130Y25869D03*
G01X24130Y28409D03*
G01X24130Y30949D03*
G01X24130Y33489D03*
G01X24130Y36029D03*
G01X16510Y3009D03*
G01X16510Y5549D03*
G01X16510Y8089D03*
G01X16510Y10629D03*
G01X16510Y13169D03*
G01X16510Y15709D03*
G01X16510Y18249D03*
G01X16510Y20789D03*
G01X16510Y23329D03*
G01X16510Y25869D03*
G01X16510Y28409D03*
G01X16510Y30949D03*
G01X16510Y33489D03*
G54D13*
G01X16510Y36029D03*
G54D14*
G01X45707Y41611D03*
G01X45707Y44151D03*
G01X45707Y39071D03*
G01X45707Y46691D03*
G01X35740Y4823D03*
G01X38280Y4823D03*
G01X40820Y4823D03*
G01X43360Y4823D03*
G01X45900Y4823D03*
G01X39673Y30185D03*
G01X42213Y30185D03*
G01X39673Y27645D03*
G01X42213Y27645D03*
G01X39673Y25105D03*
G01X42213Y25105D03*
G01X39673Y32725D03*
G01X42213Y32725D03*
G01X39757Y16469D03*
G01X42297Y16469D03*
G01X39757Y13929D03*
G01X42297Y13929D03*
G01X39757Y11389D03*
G01X42297Y11389D03*
G01X39757Y19009D03*
G01X42297Y19009D03*
G01X26982Y45209D03*
G54D12*
G01X21902Y45209D03*
G01X24442Y45209D03*
G54D14*
G01X31865Y44955D03*
G01X34405Y44955D03*
G01X36945Y44955D03*
G01X5080Y33235D03*
G01X7620Y33235D03*
G01X10160Y33235D03*
G01X2540Y33235D03*
G01X12700Y33235D03*
G01X6858Y42879D03*
G01X6858Y45419D03*
G01X9398Y42879D03*
G01X9398Y45419D03*
G01X11938Y42879D03*
G01X11938Y45419D03*
G01X4318Y42879D03*
G01X4318Y45419D03*
G01X14478Y42879D03*
G01X14478Y45419D03*
G01X5427Y12062D03*
G01X5427Y14602D03*
G01X5427Y17142D03*
G01X5427Y19682D03*
M00*
M02*
