G04 Layer: TopSilkLayer*
G04 EasyEDA v5.9.42, Sun, 03 Mar 2019 13:32:01 GMT*
G04 8358539c5ca44937bce32fba3cbe82d4*
G04 Gerber Generator version 0.2*
G04 Scale: 100 percent, Rotated: No, Reflected: No *
G04 Dimensions in millimeters *
G04 leading zeros omitted , absolute positions ,3 integer and 3 decimal *
%FSLAX33Y33*%
%MOMM*%
G90*
G71D02*

%ADD10C,0.254000*%
%ADD15C,0.304516*%
%ADD16C,0.304521*%
%ADD17C,0.599999*%
%ADD18C,0.299999*%
%ADD19C,0.127000*%
%ADD20C,0.177800*%
%ADD21C,0.152000*%

%LPD*%
G54D15*
G01X26141Y35491D02*
G01X26141Y32504D01*
G54D10*
G01X14224Y17995D02*
G01X14224Y10883D01*
G01X9906Y17995D02*
G01X9906Y10883D01*
G01X20955Y37219D02*
G01X22970Y37219D01*
G01X22970Y1819D01*
G01X17669Y1819D01*
G01X17669Y37219D01*
G01X19685Y37219D01*
G54D19*
G01X26929Y38668D02*
G01X26824Y38773D01*
G01X26670Y38823D01*
G01X26461Y38823D01*
G01X26306Y38773D01*
G01X26202Y38668D01*
G01X26202Y38564D01*
G01X26253Y38460D01*
G01X26306Y38409D01*
G01X26410Y38356D01*
G01X26723Y38252D01*
G01X26824Y38201D01*
G01X26878Y38150D01*
G01X26929Y38046D01*
G01X26929Y37889D01*
G01X26824Y37785D01*
G01X26670Y37734D01*
G01X26461Y37734D01*
G01X26306Y37785D01*
G01X26202Y37889D01*
G01X27429Y38823D02*
G01X27429Y37942D01*
G01X27480Y37785D01*
G01X27584Y37734D01*
G01X27688Y37734D01*
G01X27271Y38460D02*
G01X27637Y38460D01*
G01X28653Y38460D02*
G01X28653Y37734D01*
G01X28653Y38305D02*
G01X28552Y38409D01*
G01X28448Y38460D01*
G01X28290Y38460D01*
G01X28186Y38409D01*
G01X28082Y38305D01*
G01X28031Y38150D01*
G01X28031Y38046D01*
G01X28082Y37889D01*
G01X28186Y37785D01*
G01X28290Y37734D01*
G01X28448Y37734D01*
G01X28552Y37785D01*
G01X28653Y37889D01*
G01X29154Y38823D02*
G01X29154Y37942D01*
G01X29204Y37785D01*
G01X29309Y37734D01*
G01X29413Y37734D01*
G01X28996Y38460D02*
G01X29362Y38460D01*
G01X29756Y38460D02*
G01X29756Y37942D01*
G01X29809Y37785D01*
G01X29911Y37734D01*
G01X30068Y37734D01*
G01X30172Y37785D01*
G01X30327Y37942D01*
G01X30327Y38460D02*
G01X30327Y37734D01*
G01X31242Y38305D02*
G01X31191Y38409D01*
G01X31033Y38460D01*
G01X30878Y38460D01*
G01X30723Y38409D01*
G01X30670Y38305D01*
G01X30723Y38201D01*
G01X30825Y38150D01*
G01X31087Y38097D01*
G01X31191Y38046D01*
G01X31242Y37942D01*
G01X31242Y37889D01*
G01X31191Y37785D01*
G01X31033Y37734D01*
G01X30878Y37734D01*
G01X30723Y37785D01*
G01X30670Y37889D01*
G01X10939Y21292D02*
G01X10886Y21396D01*
G01X10782Y21501D01*
G01X10680Y21551D01*
G01X10472Y21551D01*
G01X10368Y21501D01*
G01X10264Y21396D01*
G01X10210Y21292D01*
G01X10160Y21137D01*
G01X10160Y20878D01*
G01X10210Y20721D01*
G01X10264Y20617D01*
G01X10368Y20513D01*
G01X10472Y20462D01*
G01X10680Y20462D01*
G01X10782Y20513D01*
G01X10886Y20617D01*
G01X10939Y20721D01*
G01X11282Y21551D02*
G01X11282Y20462D01*
G01X11884Y21188D02*
G01X11780Y21137D01*
G01X11676Y21033D01*
G01X11625Y20878D01*
G01X11625Y20774D01*
G01X11676Y20617D01*
G01X11780Y20513D01*
G01X11884Y20462D01*
G01X12039Y20462D01*
G01X12143Y20513D01*
G01X12247Y20617D01*
G01X12301Y20774D01*
G01X12301Y20878D01*
G01X12247Y21033D01*
G01X12143Y21137D01*
G01X12039Y21188D01*
G01X11884Y21188D01*
G01X13266Y21033D02*
G01X13162Y21137D01*
G01X13058Y21188D01*
G01X12903Y21188D01*
G01X12799Y21137D01*
G01X12694Y21033D01*
G01X12644Y20878D01*
G01X12644Y20774D01*
G01X12694Y20617D01*
G01X12799Y20513D01*
G01X12903Y20462D01*
G01X13058Y20462D01*
G01X13162Y20513D01*
G01X13266Y20617D01*
G01X13609Y21551D02*
G01X13609Y20462D01*
G01X14130Y21188D02*
G01X13609Y20670D01*
G01X13817Y20878D02*
G01X14180Y20462D01*
G01X26162Y13180D02*
G01X27251Y12763D01*
G01X26162Y13180D02*
G01X27251Y13594D01*
G01X26888Y12918D02*
G01X26888Y13439D01*
G01X26162Y14300D02*
G01X27251Y14300D01*
G01X26162Y13936D02*
G01X26162Y14665D01*
G01X26525Y15008D02*
G01X27251Y15008D01*
G01X26733Y15008D02*
G01X26576Y15163D01*
G01X26525Y15267D01*
G01X26525Y15422D01*
G01X26576Y15526D01*
G01X26733Y15580D01*
G01X27251Y15580D01*
G01X26733Y15580D02*
G01X26576Y15735D01*
G01X26525Y15839D01*
G01X26525Y15994D01*
G01X26576Y16098D01*
G01X26733Y16151D01*
G01X27251Y16151D01*
G01X26835Y16494D02*
G01X26835Y17117D01*
G01X26733Y17117D01*
G01X26629Y17066D01*
G01X26576Y17012D01*
G01X26525Y16908D01*
G01X26525Y16753D01*
G01X26576Y16649D01*
G01X26680Y16545D01*
G01X26835Y16494D01*
G01X26939Y16494D01*
G01X27096Y16545D01*
G01X27200Y16649D01*
G01X27251Y16753D01*
G01X27251Y16908D01*
G01X27200Y17012D01*
G01X27096Y17117D01*
G01X26525Y18084D02*
G01X27355Y18084D01*
G01X27510Y18031D01*
G01X27564Y17980D01*
G01X27614Y17876D01*
G01X27614Y17719D01*
G01X27564Y17614D01*
G01X26680Y18084D02*
G01X26576Y17980D01*
G01X26525Y17876D01*
G01X26525Y17719D01*
G01X26576Y17614D01*
G01X26680Y17513D01*
G01X26835Y17459D01*
G01X26939Y17459D01*
G01X27096Y17513D01*
G01X27200Y17614D01*
G01X27251Y17719D01*
G01X27251Y17876D01*
G01X27200Y17980D01*
G01X27096Y18084D01*
G01X26525Y19049D02*
G01X27251Y19049D01*
G01X26680Y19049D02*
G01X26576Y18945D01*
G01X26525Y18841D01*
G01X26525Y18686D01*
G01X26576Y18582D01*
G01X26680Y18478D01*
G01X26835Y18427D01*
G01X26939Y18427D01*
G01X27096Y18478D01*
G01X27200Y18582D01*
G01X27251Y18686D01*
G01X27251Y18841D01*
G01X27200Y18945D01*
G01X27096Y19049D01*
G01X26162Y19497D02*
G01X26162Y20068D01*
G01X26576Y19756D01*
G01X26576Y19913D01*
G01X26629Y20015D01*
G01X26680Y20068D01*
G01X26835Y20119D01*
G01X26939Y20119D01*
G01X27096Y20068D01*
G01X27200Y19964D01*
G01X27251Y19809D01*
G01X27251Y19651D01*
G01X27200Y19497D01*
G01X27147Y19443D01*
G01X27043Y19392D01*
G01X26421Y20515D02*
G01X26367Y20515D01*
G01X26263Y20566D01*
G01X26212Y20619D01*
G01X26162Y20723D01*
G01X26162Y20929D01*
G01X26212Y21033D01*
G01X26263Y21087D01*
G01X26367Y21137D01*
G01X26471Y21137D01*
G01X26576Y21087D01*
G01X26733Y20982D01*
G01X27251Y20462D01*
G01X27251Y21191D01*
G01X26162Y21793D02*
G01X26212Y21638D01*
G01X26316Y21584D01*
G01X26421Y21584D01*
G01X26525Y21638D01*
G01X26576Y21742D01*
G01X26629Y21948D01*
G01X26680Y22105D01*
G01X26784Y22209D01*
G01X26888Y22260D01*
G01X27043Y22260D01*
G01X27147Y22209D01*
G01X27200Y22156D01*
G01X27251Y22001D01*
G01X27251Y21793D01*
G01X27200Y21638D01*
G01X27147Y21584D01*
G01X27043Y21534D01*
G01X26888Y21534D01*
G01X26784Y21584D01*
G01X26680Y21689D01*
G01X26629Y21843D01*
G01X26576Y22052D01*
G01X26525Y22156D01*
G01X26421Y22209D01*
G01X26316Y22209D01*
G01X26212Y22156D01*
G01X26162Y22001D01*
G01X26162Y21793D01*
G01X26162Y22603D02*
G01X27251Y22603D01*
G01X26162Y22603D02*
G01X26162Y23070D01*
G01X26212Y23228D01*
G01X26263Y23279D01*
G01X26367Y23329D01*
G01X26525Y23329D01*
G01X26629Y23279D01*
G01X26680Y23228D01*
G01X26733Y23070D01*
G01X26733Y22603D01*
G54D20*
G01X41389Y41103D02*
G01X42166Y41103D01*
G01X42324Y41156D01*
G01X42428Y41261D01*
G01X42479Y41415D01*
G01X42479Y41520D01*
G01X42428Y41675D01*
G01X42324Y41779D01*
G01X42166Y41832D01*
G01X41389Y41832D01*
G01X41389Y42589D02*
G01X42479Y42175D01*
G01X41389Y42589D02*
G01X42479Y43006D01*
G01X42115Y42330D02*
G01X42115Y42851D01*
G01X41389Y43348D02*
G01X42479Y43348D01*
G01X41389Y43348D02*
G01X41389Y43816D01*
G01X41440Y43973D01*
G01X41490Y44024D01*
G01X41595Y44075D01*
G01X41699Y44075D01*
G01X41803Y44024D01*
G01X41856Y43973D01*
G01X41907Y43816D01*
G01X41907Y43348D01*
G01X41907Y43712D02*
G01X42479Y44075D01*
G01X41389Y44784D02*
G01X42479Y44784D01*
G01X41389Y44418D02*
G01X41389Y45147D01*
G54D21*
G01X43848Y38573D02*
G01X43779Y38538D01*
G01X43708Y38469D01*
G01X43675Y38401D01*
G01X43675Y38263D01*
G01X43708Y38192D01*
G01X43779Y38124D01*
G01X43848Y38091D01*
G01X43952Y38055D01*
G01X44124Y38055D01*
G01X44226Y38091D01*
G01X44297Y38124D01*
G01X44366Y38192D01*
G01X44399Y38263D01*
G01X44399Y38401D01*
G01X44366Y38469D01*
G01X44297Y38538D01*
G01X44226Y38573D01*
G01X44124Y38573D01*
G01X44124Y38401D02*
G01X44124Y38573D01*
G01X43675Y38802D02*
G01X44399Y38802D01*
G01X43675Y38802D02*
G01X44399Y39284D01*
G01X43675Y39284D02*
G01X44399Y39284D01*
G01X43675Y39513D02*
G01X44399Y39513D01*
G01X43675Y39513D02*
G01X43675Y39754D01*
G01X43708Y39858D01*
G01X43779Y39927D01*
G01X43848Y39963D01*
G01X43952Y39996D01*
G01X44124Y39996D01*
G01X44226Y39963D01*
G01X44297Y39927D01*
G01X44366Y39858D01*
G01X44399Y39754D01*
G01X44399Y39513D01*
G01X43675Y45675D02*
G01X44399Y45952D01*
G01X43675Y46229D02*
G01X44399Y45952D01*
G01X43848Y46973D02*
G01X43779Y46940D01*
G01X43708Y46871D01*
G01X43675Y46800D01*
G01X43675Y46663D01*
G01X43708Y46595D01*
G01X43779Y46526D01*
G01X43848Y46490D01*
G01X43952Y46455D01*
G01X44124Y46455D01*
G01X44226Y46490D01*
G01X44297Y46526D01*
G01X44366Y46595D01*
G01X44399Y46663D01*
G01X44399Y46800D01*
G01X44366Y46871D01*
G01X44297Y46940D01*
G01X44226Y46973D01*
G01X43848Y47720D02*
G01X43779Y47687D01*
G01X43708Y47616D01*
G01X43675Y47547D01*
G01X43675Y47410D01*
G01X43708Y47341D01*
G01X43779Y47270D01*
G01X43848Y47237D01*
G01X43952Y47202D01*
G01X44124Y47202D01*
G01X44226Y47237D01*
G01X44297Y47270D01*
G01X44366Y47341D01*
G01X44399Y47410D01*
G01X44399Y47547D01*
G01X44366Y47616D01*
G01X44297Y47687D01*
G01X44226Y47720D01*
G01X43675Y41090D02*
G01X44399Y41090D01*
G01X43675Y40849D02*
G01X43675Y41332D01*
G01X43675Y41560D02*
G01X44399Y42045D01*
G01X43675Y42045D02*
G01X44399Y41560D01*
G01X43675Y43643D02*
G01X44399Y43643D01*
G01X43675Y43643D02*
G01X43675Y43953D01*
G01X43708Y44057D01*
G01X43743Y44093D01*
G01X43812Y44126D01*
G01X43881Y44126D01*
G01X43952Y44093D01*
G01X43985Y44057D01*
G01X44020Y43953D01*
G01X44020Y43643D01*
G01X44020Y43884D02*
G01X44399Y44126D01*
G01X43675Y44354D02*
G01X44399Y44839D01*
G01X43675Y44839D02*
G01X44399Y44354D01*
G54D20*
G01X36576Y8135D02*
G01X36576Y7045D01*
G01X36576Y8135D02*
G01X37251Y8135D01*
G01X36576Y7617D02*
G01X36992Y7617D01*
G01X36576Y7045D02*
G01X37251Y7045D01*
G01X37594Y8135D02*
G01X37594Y7045D01*
G01X37594Y8135D02*
G01X38061Y8135D01*
G01X38216Y8084D01*
G01X38270Y8034D01*
G01X38320Y7929D01*
G01X38320Y7772D01*
G01X38270Y7668D01*
G01X38216Y7617D01*
G01X38061Y7564D01*
G01X37594Y7564D01*
G01X39080Y8343D02*
G01X38717Y6682D01*
G01X39392Y8343D02*
G01X39027Y6682D01*
G01X38717Y7668D02*
G01X39443Y7668D01*
G01X38663Y7358D02*
G01X39392Y7358D01*
G01X39786Y7929D02*
G01X39890Y7980D01*
G01X40045Y8135D01*
G01X40045Y7045D01*
G01X41188Y7513D02*
G01X42125Y7513D01*
G01X43268Y8135D02*
G01X43268Y7045D01*
G01X43268Y8135D02*
G01X43736Y8135D01*
G01X43891Y8084D01*
G01X43942Y8034D01*
G01X43995Y7929D01*
G01X43995Y7825D01*
G01X43942Y7721D01*
G01X43891Y7668D01*
G01X43736Y7617D01*
G01X43268Y7617D02*
G01X43736Y7617D01*
G01X43891Y7564D01*
G01X43942Y7513D01*
G01X43995Y7409D01*
G01X43995Y7254D01*
G01X43942Y7150D01*
G01X43891Y7096D01*
G01X43736Y7045D01*
G01X43268Y7045D01*
G01X44338Y8135D02*
G01X44338Y7045D01*
G01X44338Y7045D02*
G01X44960Y7045D01*
G01X45303Y8135D02*
G01X45303Y7045D01*
G01X45303Y8135D02*
G01X45979Y8135D01*
G01X45303Y7617D02*
G01X45720Y7617D01*
G01X45303Y7045D02*
G01X45979Y7045D01*
G54D21*
G01X35242Y3380D02*
G01X35206Y3449D01*
G01X35138Y3520D01*
G01X35069Y3553D01*
G01X34932Y3553D01*
G01X34861Y3520D01*
G01X34792Y3449D01*
G01X34759Y3380D01*
G01X34724Y3276D01*
G01X34724Y3103D01*
G01X34759Y3002D01*
G01X34792Y2931D01*
G01X34861Y2862D01*
G01X34932Y2829D01*
G01X35069Y2829D01*
G01X35138Y2862D01*
G01X35206Y2931D01*
G01X35242Y3002D01*
G01X35242Y3103D01*
G01X35069Y3103D02*
G01X35242Y3103D01*
G01X35471Y3553D02*
G01X35471Y2829D01*
G01X35471Y3553D02*
G01X35953Y2829D01*
G01X35953Y3553D02*
G01X35953Y2829D01*
G01X36182Y3553D02*
G01X36182Y2829D01*
G01X36182Y3553D02*
G01X36423Y3553D01*
G01X36527Y3520D01*
G01X36596Y3449D01*
G01X36631Y3380D01*
G01X36664Y3276D01*
G01X36664Y3103D01*
G01X36631Y3002D01*
G01X36596Y2931D01*
G01X36527Y2862D01*
G01X36423Y2829D01*
G01X36182Y2829D01*
G01X37264Y3553D02*
G01X37541Y2829D01*
G01X37818Y3553D02*
G01X37541Y2829D01*
G01X38562Y3380D02*
G01X38529Y3449D01*
G01X38460Y3520D01*
G01X38389Y3553D01*
G01X38252Y3553D01*
G01X38183Y3520D01*
G01X38115Y3449D01*
G01X38079Y3380D01*
G01X38044Y3276D01*
G01X38044Y3103D01*
G01X38079Y3002D01*
G01X38115Y2931D01*
G01X38183Y2862D01*
G01X38252Y2829D01*
G01X38389Y2829D01*
G01X38460Y2862D01*
G01X38529Y2931D01*
G01X38562Y3002D01*
G01X39308Y3380D02*
G01X39275Y3449D01*
G01X39204Y3520D01*
G01X39136Y3553D01*
G01X38999Y3553D01*
G01X38930Y3520D01*
G01X38859Y3449D01*
G01X38826Y3380D01*
G01X38790Y3276D01*
G01X38790Y3103D01*
G01X38826Y3002D01*
G01X38859Y2931D01*
G01X38930Y2862D01*
G01X38999Y2829D01*
G01X39136Y2829D01*
G01X39204Y2862D01*
G01X39275Y2931D01*
G01X39308Y3002D01*
G01X40279Y3553D02*
G01X40279Y2829D01*
G01X40279Y3553D02*
G01X40589Y3553D01*
G01X40693Y3520D01*
G01X40728Y3484D01*
G01X40761Y3416D01*
G01X40761Y3347D01*
G01X40728Y3276D01*
G01X40693Y3243D01*
G01X40589Y3208D01*
G01X40279Y3208D01*
G01X40520Y3208D02*
G01X40761Y2829D01*
G01X40990Y3553D02*
G01X41475Y2829D01*
G01X41475Y3553D02*
G01X40990Y2829D01*
G01X42839Y3553D02*
G01X42839Y2829D01*
G01X42598Y3553D02*
G01X43080Y3553D01*
G01X43309Y3553D02*
G01X43794Y2829D01*
G01X43794Y3553D02*
G01X43309Y2829D01*
G01X44858Y3449D02*
G01X44790Y3520D01*
G01X44686Y3553D01*
G01X44549Y3553D01*
G01X44444Y3520D01*
G01X44376Y3449D01*
G01X44376Y3380D01*
G01X44411Y3312D01*
G01X44444Y3276D01*
G01X44513Y3243D01*
G01X44721Y3175D01*
G01X44790Y3139D01*
G01X44825Y3103D01*
G01X44858Y3035D01*
G01X44858Y2931D01*
G01X44790Y2862D01*
G01X44686Y2829D01*
G01X44549Y2829D01*
G01X44444Y2862D01*
G01X44376Y2931D01*
G01X45328Y3553D02*
G01X45328Y2829D01*
G01X45087Y3553D02*
G01X45572Y3553D01*
G01X46075Y3553D02*
G01X45798Y2829D01*
G01X46075Y3553D02*
G01X46352Y2829D01*
G01X45902Y3070D02*
G01X46248Y3070D01*
G01X46822Y3553D02*
G01X46822Y2829D01*
G01X46581Y3553D02*
G01X47063Y3553D01*
G54D20*
G01X33832Y36167D02*
G01X33832Y35077D01*
G01X33832Y36167D02*
G01X34508Y36167D01*
G01X33832Y35648D02*
G01X34249Y35648D01*
G01X33832Y35077D02*
G01X34508Y35077D01*
G01X34851Y36167D02*
G01X34851Y35077D01*
G01X34851Y36167D02*
G01X35318Y36167D01*
G01X35473Y36116D01*
G01X35526Y36062D01*
G01X35577Y35961D01*
G01X35577Y35803D01*
G01X35526Y35699D01*
G01X35473Y35648D01*
G01X35318Y35595D01*
G01X34851Y35595D01*
G01X36337Y36375D02*
G01X35974Y34714D01*
G01X36649Y36375D02*
G01X36283Y34714D01*
G01X35974Y35699D02*
G01X36700Y35699D01*
G01X35920Y35389D02*
G01X36649Y35389D01*
G01X37147Y36167D02*
G01X37719Y36167D01*
G01X37406Y35753D01*
G01X37564Y35753D01*
G01X37668Y35699D01*
G01X37719Y35648D01*
G01X37769Y35491D01*
G01X37769Y35389D01*
G01X37719Y35232D01*
G01X37614Y35128D01*
G01X37459Y35077D01*
G01X37302Y35077D01*
G01X37147Y35128D01*
G01X37096Y35181D01*
G01X37043Y35285D01*
G01X38912Y35544D02*
G01X39850Y35544D01*
G01X40993Y36167D02*
G01X40993Y35077D01*
G01X40993Y36167D02*
G01X41668Y36167D01*
G01X40993Y35648D02*
G01X41407Y35648D01*
G01X40993Y35077D02*
G01X41668Y35077D01*
G01X42738Y36012D02*
G01X42633Y36116D01*
G01X42478Y36167D01*
G01X42270Y36167D01*
G01X42113Y36116D01*
G01X42011Y36012D01*
G01X42011Y35907D01*
G01X42062Y35803D01*
G01X42113Y35753D01*
G01X42217Y35699D01*
G01X42529Y35595D01*
G01X42633Y35544D01*
G01X42684Y35491D01*
G01X42738Y35389D01*
G01X42738Y35232D01*
G01X42633Y35128D01*
G01X42478Y35077D01*
G01X42270Y35077D01*
G01X42113Y35128D01*
G01X42011Y35232D01*
G01X43080Y36167D02*
G01X43080Y35077D01*
G01X43080Y36167D02*
G01X43548Y36167D01*
G01X43703Y36116D01*
G01X43756Y36062D01*
G01X43807Y35961D01*
G01X43807Y35803D01*
G01X43756Y35699D01*
G01X43703Y35648D01*
G01X43548Y35595D01*
G01X43080Y35595D01*
G01X44411Y36167D02*
G01X44254Y36116D01*
G01X44203Y36012D01*
G01X44203Y35907D01*
G01X44254Y35803D01*
G01X44358Y35753D01*
G01X44566Y35699D01*
G01X44721Y35648D01*
G01X44825Y35544D01*
G01X44879Y35440D01*
G01X44879Y35285D01*
G01X44825Y35181D01*
G01X44775Y35128D01*
G01X44617Y35077D01*
G01X44411Y35077D01*
G01X44254Y35128D01*
G01X44203Y35181D01*
G01X44150Y35285D01*
G01X44150Y35440D01*
G01X44203Y35544D01*
G01X44307Y35648D01*
G01X44462Y35699D01*
G01X44670Y35753D01*
G01X44775Y35803D01*
G01X44825Y35907D01*
G01X44825Y36012D01*
G01X44775Y36116D01*
G01X44617Y36167D01*
G01X44411Y36167D01*
G01X45272Y35907D02*
G01X45272Y35961D01*
G01X45326Y36062D01*
G01X45377Y36116D01*
G01X45481Y36167D01*
G01X45689Y36167D01*
G01X45793Y36116D01*
G01X45844Y36062D01*
G01X45897Y35961D01*
G01X45897Y35857D01*
G01X45844Y35753D01*
G01X45740Y35595D01*
G01X45222Y35077D01*
G01X45948Y35077D01*
G01X46913Y36012D02*
G01X46863Y36116D01*
G01X46708Y36167D01*
G01X46603Y36167D01*
G01X46446Y36116D01*
G01X46342Y35961D01*
G01X46291Y35699D01*
G01X46291Y35440D01*
G01X46342Y35232D01*
G01X46446Y35128D01*
G01X46603Y35077D01*
G01X46654Y35077D01*
G01X46812Y35128D01*
G01X46913Y35232D01*
G01X46967Y35389D01*
G01X46967Y35440D01*
G01X46913Y35595D01*
G01X46812Y35699D01*
G01X46654Y35753D01*
G01X46603Y35753D01*
G01X46446Y35699D01*
G01X46342Y35595D01*
G01X46291Y35440D01*
G01X47932Y36012D02*
G01X47881Y36116D01*
G01X47726Y36167D01*
G01X47622Y36167D01*
G01X47464Y36116D01*
G01X47360Y35961D01*
G01X47310Y35699D01*
G01X47310Y35440D01*
G01X47360Y35232D01*
G01X47464Y35128D01*
G01X47622Y35077D01*
G01X47673Y35077D01*
G01X47828Y35128D01*
G01X47932Y35232D01*
G01X47985Y35389D01*
G01X47985Y35440D01*
G01X47932Y35595D01*
G01X47828Y35699D01*
G01X47673Y35753D01*
G01X47622Y35753D01*
G01X47464Y35699D01*
G01X47360Y35595D01*
G01X47310Y35440D01*
G54D21*
G01X37071Y32981D02*
G01X37071Y32258D01*
G01X36829Y32981D02*
G01X37312Y32981D01*
G01X37541Y32981D02*
G01X38026Y32258D01*
G01X38026Y32981D02*
G01X37541Y32258D01*
G01X35062Y30269D02*
G01X35026Y30337D01*
G01X34957Y30408D01*
G01X34889Y30441D01*
G01X34752Y30441D01*
G01X34681Y30408D01*
G01X34612Y30337D01*
G01X34579Y30269D01*
G01X34543Y30165D01*
G01X34543Y29992D01*
G01X34579Y29890D01*
G01X34612Y29819D01*
G01X34681Y29751D01*
G01X34752Y29718D01*
G01X34889Y29718D01*
G01X34957Y29751D01*
G01X35026Y29819D01*
G01X35062Y29890D01*
G01X35290Y30441D02*
G01X35290Y29718D01*
G01X35773Y30441D02*
G01X35773Y29718D01*
G01X35290Y30096D02*
G01X35773Y30096D01*
G01X36001Y29474D02*
G01X36624Y29474D01*
G01X36852Y30441D02*
G01X36852Y29718D01*
G01X36852Y30441D02*
G01X37162Y30441D01*
G01X37266Y30408D01*
G01X37299Y30373D01*
G01X37335Y30304D01*
G01X37335Y30200D01*
G01X37299Y30132D01*
G01X37266Y30096D01*
G01X37162Y30063D01*
G01X36852Y30063D01*
G01X37564Y30441D02*
G01X37564Y29718D01*
G01X37564Y30441D02*
G01X37805Y30441D01*
G01X37909Y30408D01*
G01X37978Y30337D01*
G01X38011Y30269D01*
G01X38046Y30165D01*
G01X38046Y29992D01*
G01X38011Y29890D01*
G01X37978Y29819D01*
G01X37909Y29751D01*
G01X37805Y29718D01*
G01X37564Y29718D01*
G01X36067Y27901D02*
G01X36067Y27178D01*
G01X36067Y27901D02*
G01X36377Y27901D01*
G01X36481Y27868D01*
G01X36517Y27833D01*
G01X36550Y27764D01*
G01X36550Y27696D01*
G01X36517Y27625D01*
G01X36481Y27592D01*
G01X36377Y27556D01*
G01X36067Y27556D01*
G01X36309Y27556D02*
G01X36550Y27178D01*
G01X37264Y27797D02*
G01X37193Y27868D01*
G01X37091Y27901D01*
G01X36951Y27901D01*
G01X36847Y27868D01*
G01X36779Y27797D01*
G01X36779Y27729D01*
G01X36814Y27660D01*
G01X36847Y27625D01*
G01X36918Y27592D01*
G01X37124Y27523D01*
G01X37193Y27487D01*
G01X37228Y27452D01*
G01X37264Y27383D01*
G01X37264Y27279D01*
G01X37193Y27211D01*
G01X37091Y27178D01*
G01X36951Y27178D01*
G01X36847Y27211D01*
G01X36779Y27279D01*
G01X37734Y27901D02*
G01X37734Y27178D01*
G01X37490Y27901D02*
G01X37975Y27901D01*
G01X35882Y25361D02*
G01X36260Y25361D01*
G01X36055Y25085D01*
G01X36159Y25085D01*
G01X36227Y25051D01*
G01X36260Y25016D01*
G01X36296Y24912D01*
G01X36296Y24843D01*
G01X36260Y24739D01*
G01X36192Y24670D01*
G01X36088Y24637D01*
G01X35986Y24637D01*
G01X35882Y24670D01*
G01X35846Y24706D01*
G01X35813Y24775D01*
G01X36558Y24810D02*
G01X36525Y24775D01*
G01X36558Y24739D01*
G01X36593Y24775D01*
G01X36558Y24810D01*
G01X36890Y25361D02*
G01X37269Y25361D01*
G01X37063Y25085D01*
G01X37167Y25085D01*
G01X37236Y25051D01*
G01X37269Y25016D01*
G01X37304Y24912D01*
G01X37304Y24843D01*
G01X37269Y24739D01*
G01X37200Y24670D01*
G01X37096Y24637D01*
G01X36995Y24637D01*
G01X36890Y24670D01*
G01X36855Y24706D01*
G01X36822Y24775D01*
G01X37533Y25361D02*
G01X37810Y24637D01*
G01X38084Y25361D02*
G01X37810Y24637D01*
G01X44460Y33063D02*
G01X44424Y33131D01*
G01X44355Y33202D01*
G01X44287Y33235D01*
G01X44150Y33235D01*
G01X44079Y33202D01*
G01X44010Y33131D01*
G01X43977Y33063D01*
G01X43941Y32959D01*
G01X43941Y32786D01*
G01X43977Y32684D01*
G01X44010Y32613D01*
G01X44079Y32544D01*
G01X44150Y32511D01*
G01X44287Y32511D01*
G01X44355Y32544D01*
G01X44424Y32613D01*
G01X44460Y32684D01*
G01X44460Y32786D01*
G01X44287Y32786D02*
G01X44460Y32786D01*
G01X44688Y33235D02*
G01X44688Y32511D01*
G01X44688Y33235D02*
G01X45171Y32511D01*
G01X45171Y33235D02*
G01X45171Y32511D01*
G01X45399Y33235D02*
G01X45399Y32511D01*
G01X45399Y33235D02*
G01X45641Y33235D01*
G01X45745Y33202D01*
G01X45813Y33131D01*
G01X45849Y33063D01*
G01X45882Y32959D01*
G01X45882Y32786D01*
G01X45849Y32684D01*
G01X45813Y32613D01*
G01X45745Y32544D01*
G01X45641Y32511D01*
G01X45399Y32511D01*
G01X44460Y30523D02*
G01X44424Y30591D01*
G01X44355Y30662D01*
G01X44287Y30695D01*
G01X44150Y30695D01*
G01X44079Y30662D01*
G01X44010Y30591D01*
G01X43977Y30523D01*
G01X43941Y30419D01*
G01X43941Y30246D01*
G01X43977Y30144D01*
G01X44010Y30073D01*
G01X44079Y30004D01*
G01X44150Y29971D01*
G01X44287Y29971D01*
G01X44355Y30004D01*
G01X44424Y30073D01*
G01X44460Y30144D01*
G01X44460Y30246D01*
G01X44287Y30246D02*
G01X44460Y30246D01*
G01X44688Y30695D02*
G01X44688Y29971D01*
G01X44688Y30695D02*
G01X44998Y30695D01*
G01X45102Y30662D01*
G01X45138Y30627D01*
G01X45171Y30558D01*
G01X45171Y30454D01*
G01X45138Y30385D01*
G01X45102Y30350D01*
G01X44998Y30317D01*
G01X44688Y30317D01*
G01X45399Y30695D02*
G01X45399Y29971D01*
G01X45834Y30695D02*
G01X45765Y30662D01*
G01X45697Y30591D01*
G01X45661Y30523D01*
G01X45628Y30419D01*
G01X45628Y30246D01*
G01X45661Y30144D01*
G01X45697Y30073D01*
G01X45765Y30004D01*
G01X45834Y29971D01*
G01X45973Y29971D01*
G01X46042Y30004D01*
G01X46111Y30073D01*
G01X46146Y30144D01*
G01X46179Y30246D01*
G01X46179Y30419D01*
G01X46146Y30523D01*
G01X46111Y30591D01*
G01X46042Y30662D01*
G01X45973Y30695D01*
G01X45834Y30695D01*
G01X46408Y30558D02*
G01X46476Y30591D01*
G01X46581Y30695D01*
G01X46581Y29971D01*
G01X44460Y27983D02*
G01X44424Y28051D01*
G01X44355Y28122D01*
G01X44287Y28155D01*
G01X44150Y28155D01*
G01X44079Y28122D01*
G01X44010Y28051D01*
G01X43977Y27983D01*
G01X43941Y27879D01*
G01X43941Y27706D01*
G01X43977Y27604D01*
G01X44010Y27533D01*
G01X44079Y27464D01*
G01X44150Y27431D01*
G01X44287Y27431D01*
G01X44355Y27464D01*
G01X44424Y27533D01*
G01X44460Y27604D01*
G01X44460Y27706D01*
G01X44287Y27706D02*
G01X44460Y27706D01*
G01X44688Y28155D02*
G01X44688Y27431D01*
G01X44688Y28155D02*
G01X44998Y28155D01*
G01X45102Y28122D01*
G01X45138Y28087D01*
G01X45171Y28018D01*
G01X45171Y27914D01*
G01X45138Y27845D01*
G01X45102Y27810D01*
G01X44998Y27777D01*
G01X44688Y27777D01*
G01X45399Y28155D02*
G01X45399Y27431D01*
G01X45834Y28155D02*
G01X45765Y28122D01*
G01X45697Y28051D01*
G01X45661Y27983D01*
G01X45628Y27879D01*
G01X45628Y27706D01*
G01X45661Y27604D01*
G01X45697Y27533D01*
G01X45765Y27464D01*
G01X45834Y27431D01*
G01X45973Y27431D01*
G01X46042Y27464D01*
G01X46111Y27533D01*
G01X46146Y27604D01*
G01X46179Y27706D01*
G01X46179Y27879D01*
G01X46146Y27983D01*
G01X46111Y28051D01*
G01X46042Y28122D01*
G01X45973Y28155D01*
G01X45834Y28155D01*
G01X46443Y27983D02*
G01X46443Y28018D01*
G01X46476Y28087D01*
G01X46512Y28122D01*
G01X46581Y28155D01*
G01X46718Y28155D01*
G01X46789Y28122D01*
G01X46822Y28087D01*
G01X46857Y28018D01*
G01X46857Y27950D01*
G01X46822Y27879D01*
G01X46753Y27777D01*
G01X46408Y27431D01*
G01X46890Y27431D01*
G01X43941Y25361D02*
G01X43941Y24638D01*
G01X43941Y25361D02*
G01X44251Y25361D01*
G01X44355Y25328D01*
G01X44391Y25293D01*
G01X44424Y25224D01*
G01X44424Y25156D01*
G01X44391Y25085D01*
G01X44355Y25052D01*
G01X44251Y25016D01*
G01X43941Y25016D01*
G01X44183Y25016D02*
G01X44424Y24638D01*
G01X44653Y25361D02*
G01X45138Y24638D01*
G01X45138Y25361D02*
G01X44653Y24638D01*
G54D20*
G01X34422Y22357D02*
G01X34422Y21267D01*
G01X34422Y22357D02*
G01X35097Y22357D01*
G01X34422Y21838D02*
G01X34838Y21838D01*
G01X34422Y21267D02*
G01X35097Y21267D01*
G01X35440Y22357D02*
G01X35440Y21267D01*
G01X35440Y22357D02*
G01X35907Y22357D01*
G01X36062Y22306D01*
G01X36116Y22252D01*
G01X36167Y22151D01*
G01X36167Y21993D01*
G01X36116Y21889D01*
G01X36062Y21838D01*
G01X35907Y21785D01*
G01X35440Y21785D01*
G01X36926Y22565D02*
G01X36563Y20904D01*
G01X37238Y22565D02*
G01X36873Y20904D01*
G01X36563Y21889D02*
G01X37289Y21889D01*
G01X36509Y21579D02*
G01X37238Y21579D01*
G01X37685Y22098D02*
G01X37685Y22151D01*
G01X37736Y22252D01*
G01X37787Y22306D01*
G01X37891Y22357D01*
G01X38100Y22357D01*
G01X38204Y22306D01*
G01X38257Y22252D01*
G01X38308Y22151D01*
G01X38308Y22047D01*
G01X38257Y21943D01*
G01X38153Y21785D01*
G01X37632Y21267D01*
G01X38359Y21267D01*
G01X39502Y21734D02*
G01X40439Y21734D01*
G01X41582Y22357D02*
G01X41582Y21267D01*
G01X41582Y22357D02*
G01X42308Y21267D01*
G01X42308Y22357D02*
G01X42308Y21267D01*
G01X42702Y22098D02*
G01X42702Y22151D01*
G01X42755Y22252D01*
G01X42806Y22306D01*
G01X42910Y22357D01*
G01X43119Y22357D01*
G01X43223Y22306D01*
G01X43273Y22252D01*
G01X43327Y22151D01*
G01X43327Y22047D01*
G01X43273Y21943D01*
G01X43172Y21785D01*
G01X42651Y21267D01*
G01X43378Y21267D01*
G01X44241Y22357D02*
G01X43721Y21630D01*
G01X44500Y21630D01*
G01X44241Y22357D02*
G01X44241Y21267D01*
G01X44843Y22357D02*
G01X44843Y21267D01*
G01X44843Y21267D02*
G01X45468Y21267D01*
G01X46121Y22357D02*
G01X45966Y22306D01*
G01X45862Y22151D01*
G01X45811Y21889D01*
G01X45811Y21734D01*
G01X45862Y21475D01*
G01X45966Y21318D01*
G01X46121Y21267D01*
G01X46225Y21267D01*
G01X46382Y21318D01*
G01X46487Y21475D01*
G01X46537Y21734D01*
G01X46537Y21889D01*
G01X46487Y22151D01*
G01X46382Y22306D01*
G01X46225Y22357D01*
G01X46121Y22357D01*
G01X46880Y22151D02*
G01X46984Y22202D01*
G01X47139Y22357D01*
G01X47139Y21267D01*
G54D21*
G01X36586Y19093D02*
G01X36550Y19161D01*
G01X36482Y19232D01*
G01X36413Y19265D01*
G01X36276Y19265D01*
G01X36205Y19232D01*
G01X36136Y19161D01*
G01X36103Y19093D01*
G01X36068Y18989D01*
G01X36068Y18816D01*
G01X36103Y18714D01*
G01X36136Y18643D01*
G01X36205Y18575D01*
G01X36276Y18542D01*
G01X36413Y18542D01*
G01X36482Y18575D01*
G01X36550Y18643D01*
G01X36586Y18714D01*
G01X36586Y18816D01*
G01X36413Y18816D02*
G01X36586Y18816D01*
G01X36814Y19265D02*
G01X36814Y18542D01*
G01X36814Y19265D02*
G01X37297Y18542D01*
G01X37297Y19265D02*
G01X37297Y18542D01*
G01X37525Y19265D02*
G01X37525Y18542D01*
G01X37525Y19265D02*
G01X37767Y19265D01*
G01X37871Y19232D01*
G01X37939Y19161D01*
G01X37975Y19093D01*
G01X38008Y18989D01*
G01X38008Y18816D01*
G01X37975Y18714D01*
G01X37939Y18643D01*
G01X37871Y18575D01*
G01X37767Y18542D01*
G01X37525Y18542D01*
G01X37094Y16553D02*
G01X37058Y16621D01*
G01X36990Y16692D01*
G01X36921Y16725D01*
G01X36784Y16725D01*
G01X36713Y16692D01*
G01X36644Y16621D01*
G01X36611Y16553D01*
G01X36576Y16449D01*
G01X36576Y16276D01*
G01X36611Y16174D01*
G01X36644Y16103D01*
G01X36713Y16035D01*
G01X36784Y16002D01*
G01X36921Y16002D01*
G01X36990Y16035D01*
G01X37058Y16103D01*
G01X37094Y16174D01*
G01X37322Y16725D02*
G01X37322Y16002D01*
G01X37322Y16725D02*
G01X37772Y16725D01*
G01X37322Y16380D02*
G01X37599Y16380D01*
G01X37322Y16002D02*
G01X37772Y16002D01*
G01X36550Y14335D02*
G01X36482Y14406D01*
G01X36377Y14439D01*
G01X36240Y14439D01*
G01X36136Y14406D01*
G01X36068Y14335D01*
G01X36068Y14267D01*
G01X36103Y14198D01*
G01X36136Y14163D01*
G01X36205Y14130D01*
G01X36413Y14061D01*
G01X36482Y14025D01*
G01X36517Y13990D01*
G01X36550Y13921D01*
G01X36550Y13817D01*
G01X36482Y13749D01*
G01X36377Y13716D01*
G01X36240Y13716D01*
G01X36136Y13749D01*
G01X36068Y13817D01*
G01X37297Y14267D02*
G01X37264Y14335D01*
G01X37193Y14406D01*
G01X37124Y14439D01*
G01X36987Y14439D01*
G01X36918Y14406D01*
G01X36847Y14335D01*
G01X36814Y14267D01*
G01X36779Y14163D01*
G01X36779Y13990D01*
G01X36814Y13888D01*
G01X36847Y13817D01*
G01X36918Y13749D01*
G01X36987Y13716D01*
G01X37124Y13716D01*
G01X37193Y13749D01*
G01X37264Y13817D01*
G01X37297Y13888D01*
G01X37525Y14439D02*
G01X37525Y13716D01*
G01X38008Y14439D02*
G01X37525Y13957D01*
G01X37698Y14130D02*
G01X38008Y13716D01*
G01X35814Y11899D02*
G01X35814Y11176D01*
G01X35814Y11899D02*
G01X36090Y11176D01*
G01X36367Y11899D02*
G01X36090Y11176D01*
G01X36367Y11899D02*
G01X36367Y11176D01*
G01X36593Y11899D02*
G01X36593Y11176D01*
G01X37307Y11795D02*
G01X37236Y11866D01*
G01X37134Y11899D01*
G01X36995Y11899D01*
G01X36890Y11866D01*
G01X36822Y11795D01*
G01X36822Y11727D01*
G01X36857Y11658D01*
G01X36890Y11623D01*
G01X36962Y11590D01*
G01X37167Y11521D01*
G01X37236Y11485D01*
G01X37271Y11450D01*
G01X37307Y11381D01*
G01X37307Y11277D01*
G01X37236Y11209D01*
G01X37134Y11176D01*
G01X36995Y11176D01*
G01X36890Y11209D01*
G01X36822Y11277D01*
G01X37741Y11899D02*
G01X37673Y11866D01*
G01X37604Y11795D01*
G01X37569Y11727D01*
G01X37533Y11623D01*
G01X37533Y11450D01*
G01X37569Y11348D01*
G01X37604Y11277D01*
G01X37673Y11209D01*
G01X37741Y11176D01*
G01X37879Y11176D01*
G01X37950Y11209D01*
G01X38018Y11277D01*
G01X38051Y11348D01*
G01X38087Y11450D01*
G01X38087Y11623D01*
G01X38051Y11727D01*
G01X38018Y11795D01*
G01X37950Y11866D01*
G01X37879Y11899D01*
G01X37741Y11899D01*
G01X44521Y19265D02*
G01X44899Y19265D01*
G01X44693Y18989D01*
G01X44795Y18989D01*
G01X44866Y18956D01*
G01X44899Y18920D01*
G01X44935Y18816D01*
G01X44935Y18747D01*
G01X44899Y18643D01*
G01X44831Y18575D01*
G01X44726Y18542D01*
G01X44622Y18542D01*
G01X44521Y18575D01*
G01X44485Y18610D01*
G01X44450Y18679D01*
G01X45196Y18714D02*
G01X45163Y18679D01*
G01X45196Y18643D01*
G01X45232Y18679D01*
G01X45196Y18714D01*
G01X45529Y19265D02*
G01X45907Y19265D01*
G01X45702Y18989D01*
G01X45806Y18989D01*
G01X45874Y18956D01*
G01X45907Y18920D01*
G01X45943Y18816D01*
G01X45943Y18747D01*
G01X45907Y18643D01*
G01X45839Y18575D01*
G01X45735Y18542D01*
G01X45633Y18542D01*
G01X45529Y18575D01*
G01X45493Y18610D01*
G01X45460Y18679D01*
G01X46172Y19265D02*
G01X46448Y18542D01*
G01X46723Y19265D02*
G01X46448Y18542D01*
G01X44932Y16621D02*
G01X44864Y16692D01*
G01X44759Y16725D01*
G01X44622Y16725D01*
G01X44518Y16692D01*
G01X44450Y16621D01*
G01X44450Y16553D01*
G01X44485Y16484D01*
G01X44518Y16449D01*
G01X44587Y16416D01*
G01X44795Y16347D01*
G01X44864Y16311D01*
G01X44899Y16276D01*
G01X44932Y16207D01*
G01X44932Y16103D01*
G01X44864Y16035D01*
G01X44759Y16002D01*
G01X44622Y16002D01*
G01X44518Y16035D01*
G01X44450Y16103D01*
G01X45679Y16553D02*
G01X45646Y16621D01*
G01X45575Y16692D01*
G01X45506Y16725D01*
G01X45369Y16725D01*
G01X45300Y16692D01*
G01X45229Y16621D01*
G01X45196Y16553D01*
G01X45161Y16449D01*
G01X45161Y16276D01*
G01X45196Y16174D01*
G01X45229Y16103D01*
G01X45300Y16035D01*
G01X45369Y16002D01*
G01X45506Y16002D01*
G01X45575Y16035D01*
G01X45646Y16103D01*
G01X45679Y16174D01*
G01X45907Y16725D02*
G01X45907Y16002D01*
G01X45907Y16725D02*
G01X46390Y16002D01*
G01X46390Y16725D02*
G01X46390Y16002D01*
G01X44450Y14185D02*
G01X44450Y13462D01*
G01X44450Y14185D02*
G01X44726Y13462D01*
G01X45003Y14185D02*
G01X44726Y13462D01*
G01X45003Y14185D02*
G01X45003Y13462D01*
G01X45438Y14185D02*
G01X45369Y14152D01*
G01X45300Y14081D01*
G01X45265Y14013D01*
G01X45229Y13909D01*
G01X45229Y13736D01*
G01X45265Y13634D01*
G01X45300Y13563D01*
G01X45369Y13495D01*
G01X45438Y13462D01*
G01X45575Y13462D01*
G01X45646Y13495D01*
G01X45714Y13563D01*
G01X45747Y13634D01*
G01X45783Y13736D01*
G01X45783Y13909D01*
G01X45747Y14013D01*
G01X45714Y14081D01*
G01X45646Y14152D01*
G01X45575Y14185D01*
G01X45438Y14185D01*
G01X46494Y14081D02*
G01X46426Y14152D01*
G01X46321Y14185D01*
G01X46184Y14185D01*
G01X46080Y14152D01*
G01X46012Y14081D01*
G01X46012Y14013D01*
G01X46045Y13944D01*
G01X46080Y13909D01*
G01X46149Y13876D01*
G01X46357Y13807D01*
G01X46426Y13771D01*
G01X46461Y13736D01*
G01X46494Y13667D01*
G01X46494Y13563D01*
G01X46426Y13495D01*
G01X46321Y13462D01*
G01X46184Y13462D01*
G01X46080Y13495D01*
G01X46012Y13563D01*
G01X46723Y14185D02*
G01X46723Y13462D01*
G01X44450Y11645D02*
G01X44450Y10922D01*
G01X44678Y11645D02*
G01X44678Y10922D01*
G01X44678Y11645D02*
G01X44988Y11645D01*
G01X45092Y11612D01*
G01X45128Y11577D01*
G01X45161Y11508D01*
G01X45161Y11440D01*
G01X45128Y11369D01*
G01X45092Y11336D01*
G01X44988Y11300D01*
G01X44678Y11300D01*
G01X44919Y11300D02*
G01X45161Y10922D01*
G01X45598Y11645D02*
G01X45526Y11612D01*
G01X45458Y11541D01*
G01X45425Y11473D01*
G01X45389Y11369D01*
G01X45389Y11196D01*
G01X45425Y11094D01*
G01X45458Y11023D01*
G01X45526Y10955D01*
G01X45598Y10922D01*
G01X45735Y10922D01*
G01X45803Y10955D01*
G01X45872Y11023D01*
G01X45907Y11094D01*
G01X45943Y11196D01*
G01X45943Y11369D01*
G01X45907Y11473D01*
G01X45872Y11541D01*
G01X45803Y11612D01*
G01X45735Y11645D01*
G01X45598Y11645D01*
G01X45699Y11059D02*
G01X45907Y10850D01*
G54D20*
G01X22410Y48257D02*
G01X22410Y47167D01*
G01X22410Y48257D02*
G01X22877Y48257D01*
G01X23032Y48206D01*
G01X23086Y48155D01*
G01X23136Y48051D01*
G01X23136Y47894D01*
G01X23086Y47790D01*
G01X23032Y47739D01*
G01X22877Y47685D01*
G01X22410Y47685D01*
G01X23741Y47894D02*
G01X23637Y47843D01*
G01X23533Y47739D01*
G01X23479Y47584D01*
G01X23479Y47480D01*
G01X23533Y47322D01*
G01X23637Y47218D01*
G01X23741Y47167D01*
G01X23896Y47167D01*
G01X24000Y47218D01*
G01X24104Y47322D01*
G01X24155Y47480D01*
G01X24155Y47584D01*
G01X24104Y47739D01*
G01X24000Y47843D01*
G01X23896Y47894D01*
G01X23741Y47894D01*
G01X24498Y47894D02*
G01X24706Y47167D01*
G01X24914Y47894D02*
G01X24706Y47167D01*
G01X24914Y47894D02*
G01X25123Y47167D01*
G01X25331Y47894D02*
G01X25123Y47167D01*
G01X25674Y47584D02*
G01X26296Y47584D01*
G01X26296Y47685D01*
G01X26245Y47790D01*
G01X26192Y47843D01*
G01X26088Y47894D01*
G01X25933Y47894D01*
G01X25829Y47843D01*
G01X25725Y47739D01*
G01X25674Y47584D01*
G01X25674Y47480D01*
G01X25725Y47322D01*
G01X25829Y47218D01*
G01X25933Y47167D01*
G01X26088Y47167D01*
G01X26192Y47218D01*
G01X26296Y47322D01*
G01X26639Y47894D02*
G01X26639Y47167D01*
G01X26639Y47584D02*
G01X26690Y47739D01*
G01X26794Y47843D01*
G01X26898Y47894D01*
G01X27056Y47894D01*
G54D21*
G01X21300Y43779D02*
G01X21264Y43848D01*
G01X21196Y43919D01*
G01X21127Y43952D01*
G01X20990Y43952D01*
G01X20919Y43919D01*
G01X20850Y43848D01*
G01X20817Y43779D01*
G01X20782Y43675D01*
G01X20782Y43502D01*
G01X20817Y43401D01*
G01X20850Y43329D01*
G01X20919Y43261D01*
G01X20990Y43228D01*
G01X21127Y43228D01*
G01X21196Y43261D01*
G01X21264Y43329D01*
G01X21300Y43401D01*
G01X21300Y43502D01*
G01X21127Y43502D02*
G01X21300Y43502D01*
G01X21529Y43952D02*
G01X21529Y43228D01*
G01X21529Y43952D02*
G01X22011Y43228D01*
G01X22011Y43952D02*
G01X22011Y43228D01*
G01X22240Y43952D02*
G01X22240Y43228D01*
G01X22240Y43952D02*
G01X22481Y43952D01*
G01X22585Y43919D01*
G01X22654Y43848D01*
G01X22689Y43779D01*
G01X22722Y43675D01*
G01X22722Y43502D01*
G01X22689Y43401D01*
G01X22654Y43329D01*
G01X22585Y43261D01*
G01X22481Y43228D01*
G01X22240Y43228D01*
G01X24094Y43939D02*
G01X23748Y43939D01*
G01X23715Y43629D01*
G01X23748Y43662D01*
G01X23853Y43698D01*
G01X23957Y43698D01*
G01X24061Y43662D01*
G01X24129Y43594D01*
G01X24162Y43489D01*
G01X24162Y43421D01*
G01X24129Y43317D01*
G01X24061Y43248D01*
G01X23957Y43215D01*
G01X23853Y43215D01*
G01X23748Y43248D01*
G01X23715Y43284D01*
G01X23680Y43352D01*
G01X24391Y43939D02*
G01X24668Y43215D01*
G01X24945Y43939D02*
G01X24668Y43215D01*
G01X25780Y43939D02*
G01X26161Y43939D01*
G01X25953Y43662D01*
G01X26057Y43662D01*
G01X26126Y43629D01*
G01X26161Y43594D01*
G01X26194Y43489D01*
G01X26194Y43421D01*
G01X26161Y43317D01*
G01X26093Y43248D01*
G01X25989Y43215D01*
G01X25885Y43215D01*
G01X25780Y43248D01*
G01X25747Y43284D01*
G01X25712Y43352D01*
G01X26459Y43388D02*
G01X26423Y43352D01*
G01X26459Y43317D01*
G01X26492Y43352D01*
G01X26459Y43388D01*
G01X26789Y43939D02*
G01X27170Y43939D01*
G01X26962Y43662D01*
G01X27066Y43662D01*
G01X27134Y43629D01*
G01X27170Y43594D01*
G01X27205Y43489D01*
G01X27205Y43421D01*
G01X27170Y43317D01*
G01X27101Y43248D01*
G01X26997Y43215D01*
G01X26893Y43215D01*
G01X26789Y43248D01*
G01X26756Y43284D01*
G01X26720Y43352D01*
G01X27431Y43939D02*
G01X27708Y43215D01*
G01X27985Y43939D02*
G01X27708Y43215D01*
G54D20*
G01X31103Y48003D02*
G01X31103Y46913D01*
G01X31103Y48003D02*
G01X31570Y48003D01*
G01X31725Y47952D01*
G01X31776Y47901D01*
G01X31830Y47797D01*
G01X31830Y47693D01*
G01X31776Y47589D01*
G01X31725Y47536D01*
G01X31570Y47485D01*
G01X31103Y47485D01*
G01X31466Y47485D02*
G01X31830Y46913D01*
G01X32172Y47330D02*
G01X32795Y47330D01*
G01X32795Y47431D01*
G01X32744Y47536D01*
G01X32691Y47589D01*
G01X32589Y47640D01*
G01X32431Y47640D01*
G01X32327Y47589D01*
G01X32223Y47485D01*
G01X32172Y47330D01*
G01X32172Y47226D01*
G01X32223Y47068D01*
G01X32327Y46964D01*
G01X32431Y46913D01*
G01X32589Y46913D01*
G01X32691Y46964D01*
G01X32795Y47068D01*
G01X33762Y47640D02*
G01X33762Y46809D01*
G01X33709Y46654D01*
G01X33658Y46601D01*
G01X33554Y46550D01*
G01X33399Y46550D01*
G01X33295Y46601D01*
G01X33762Y47485D02*
G01X33658Y47589D01*
G01X33554Y47640D01*
G01X33399Y47640D01*
G01X33295Y47589D01*
G01X33191Y47485D01*
G01X33138Y47330D01*
G01X33138Y47226D01*
G01X33191Y47068D01*
G01X33295Y46964D01*
G01X33399Y46913D01*
G01X33554Y46913D01*
G01X33658Y46964D01*
G01X33762Y47068D01*
G01X34105Y47640D02*
G01X34105Y47122D01*
G01X34156Y46964D01*
G01X34260Y46913D01*
G01X34418Y46913D01*
G01X34519Y46964D01*
G01X34677Y47122D01*
G01X34677Y47640D02*
G01X34677Y46913D01*
G01X35020Y48003D02*
G01X35020Y46913D01*
G01X35985Y47640D02*
G01X35985Y46913D01*
G01X35985Y47485D02*
G01X35881Y47589D01*
G01X35777Y47640D01*
G01X35622Y47640D01*
G01X35518Y47589D01*
G01X35413Y47485D01*
G01X35363Y47330D01*
G01X35363Y47226D01*
G01X35413Y47068D01*
G01X35518Y46964D01*
G01X35622Y46913D01*
G01X35777Y46913D01*
G01X35881Y46964D01*
G01X35985Y47068D01*
G01X36485Y48003D02*
G01X36485Y47122D01*
G01X36536Y46964D01*
G01X36640Y46913D01*
G01X36744Y46913D01*
G01X36328Y47640D02*
G01X36691Y47640D01*
G01X37346Y47640D02*
G01X37242Y47589D01*
G01X37138Y47485D01*
G01X37087Y47330D01*
G01X37087Y47226D01*
G01X37138Y47068D01*
G01X37242Y46964D01*
G01X37346Y46913D01*
G01X37504Y46913D01*
G01X37605Y46964D01*
G01X37710Y47068D01*
G01X37763Y47226D01*
G01X37763Y47330D01*
G01X37710Y47485D01*
G01X37605Y47589D01*
G01X37504Y47640D01*
G01X37346Y47640D01*
G01X38106Y47640D02*
G01X38106Y46913D01*
G01X38106Y47330D02*
G01X38157Y47485D01*
G01X38261Y47589D01*
G01X38365Y47640D01*
G01X38520Y47640D01*
G54D21*
G01X33597Y43685D02*
G01X33526Y43652D01*
G01X33458Y43581D01*
G01X33425Y43512D01*
G01X33389Y43408D01*
G01X33389Y43235D01*
G01X33425Y43134D01*
G01X33458Y43063D01*
G01X33526Y42994D01*
G01X33597Y42961D01*
G01X33734Y42961D01*
G01X33803Y42994D01*
G01X33872Y43063D01*
G01X33907Y43134D01*
G01X33943Y43235D01*
G01X33943Y43408D01*
G01X33907Y43512D01*
G01X33872Y43581D01*
G01X33803Y43652D01*
G01X33734Y43685D01*
G01X33597Y43685D01*
G01X34169Y43685D02*
G01X34169Y43167D01*
G01X34204Y43063D01*
G01X34273Y42994D01*
G01X34377Y42961D01*
G01X34446Y42961D01*
G01X34550Y42994D01*
G01X34618Y43063D01*
G01X34654Y43167D01*
G01X34654Y43685D01*
G01X35124Y43685D02*
G01X35124Y42961D01*
G01X34883Y43685D02*
G01X35365Y43685D01*
G01X31357Y43685D02*
G01X31357Y42961D01*
G01X31586Y43685D02*
G01X31586Y42961D01*
G01X31586Y43685D02*
G01X32068Y42961D01*
G01X32068Y43685D02*
G01X32068Y42961D01*
G01X36701Y43512D02*
G01X36666Y43581D01*
G01X36597Y43652D01*
G01X36528Y43685D01*
G01X36391Y43685D01*
G01X36320Y43652D01*
G01X36252Y43581D01*
G01X36219Y43512D01*
G01X36183Y43408D01*
G01X36183Y43235D01*
G01X36219Y43134D01*
G01X36252Y43063D01*
G01X36320Y42994D01*
G01X36391Y42961D01*
G01X36528Y42961D01*
G01X36597Y42994D01*
G01X36666Y43063D01*
G01X36701Y43134D01*
G01X36701Y43235D01*
G01X36528Y43235D02*
G01X36701Y43235D01*
G01X36930Y43685D02*
G01X36930Y42961D01*
G01X36930Y43685D02*
G01X37412Y42961D01*
G01X37412Y43685D02*
G01X37412Y42961D01*
G01X37641Y43685D02*
G01X37641Y42961D01*
G01X37641Y43685D02*
G01X37882Y43685D01*
G01X37986Y43652D01*
G01X38055Y43581D01*
G01X38091Y43512D01*
G01X38124Y43408D01*
G01X38124Y43235D01*
G01X38091Y43134D01*
G01X38055Y43063D01*
G01X37986Y42994D01*
G01X37882Y42961D01*
G01X37641Y42961D01*
G54D20*
G01X4792Y37398D02*
G01X4688Y37503D01*
G01X4533Y37553D01*
G01X4325Y37553D01*
G01X4168Y37503D01*
G01X4064Y37398D01*
G01X4064Y37294D01*
G01X4117Y37190D01*
G01X4168Y37139D01*
G01X4272Y37086D01*
G01X4584Y36982D01*
G01X4688Y36931D01*
G01X4739Y36880D01*
G01X4792Y36776D01*
G01X4792Y36619D01*
G01X4688Y36515D01*
G01X4533Y36464D01*
G01X4325Y36464D01*
G01X4168Y36515D01*
G01X4064Y36619D01*
G01X5394Y37190D02*
G01X5290Y37139D01*
G01X5186Y37035D01*
G01X5135Y36880D01*
G01X5135Y36776D01*
G01X5186Y36619D01*
G01X5290Y36515D01*
G01X5394Y36464D01*
G01X5549Y36464D01*
G01X5654Y36515D01*
G01X5758Y36619D01*
G01X5811Y36776D01*
G01X5811Y36880D01*
G01X5758Y37035D01*
G01X5654Y37139D01*
G01X5549Y37190D01*
G01X5394Y37190D01*
G01X6568Y37553D02*
G01X6464Y37553D01*
G01X6362Y37503D01*
G01X6309Y37348D01*
G01X6309Y36464D01*
G01X6154Y37190D02*
G01X6517Y37190D01*
G01X7068Y37553D02*
G01X7068Y36672D01*
G01X7119Y36515D01*
G01X7223Y36464D01*
G01X7327Y36464D01*
G01X6911Y37190D02*
G01X7277Y37190D01*
G01X8470Y37553D02*
G01X8470Y36464D01*
G01X8470Y37553D02*
G01X9146Y37553D01*
G01X8470Y37035D02*
G01X8887Y37035D01*
G01X9489Y37553D02*
G01X9489Y36464D01*
G01X10454Y37190D02*
G01X10454Y36464D01*
G01X10454Y37035D02*
G01X10350Y37139D01*
G01X10248Y37190D01*
G01X10091Y37190D01*
G01X9987Y37139D01*
G01X9883Y37035D01*
G01X9832Y36880D01*
G01X9832Y36776D01*
G01X9883Y36619D01*
G01X9987Y36515D01*
G01X10091Y36464D01*
G01X10248Y36464D01*
G01X10350Y36515D01*
G01X10454Y36619D01*
G01X11369Y37035D02*
G01X11318Y37139D01*
G01X11163Y37190D01*
G01X11005Y37190D01*
G01X10850Y37139D01*
G01X10797Y37035D01*
G01X10850Y36931D01*
G01X10955Y36880D01*
G01X11214Y36827D01*
G01X11318Y36776D01*
G01X11369Y36672D01*
G01X11369Y36619D01*
G01X11318Y36515D01*
G01X11163Y36464D01*
G01X11005Y36464D01*
G01X10850Y36515D01*
G01X10797Y36619D01*
G01X11711Y37553D02*
G01X11711Y36464D01*
G01X11711Y36982D02*
G01X11869Y37139D01*
G01X11973Y37190D01*
G01X12128Y37190D01*
G01X12232Y37139D01*
G01X12283Y36982D01*
G01X12283Y36464D01*
G54D21*
G01X4064Y35267D02*
G01X4340Y34544D01*
G01X4617Y35267D02*
G01X4340Y34544D01*
G01X5361Y35095D02*
G01X5328Y35163D01*
G01X5260Y35234D01*
G01X5189Y35267D01*
G01X5052Y35267D01*
G01X4983Y35234D01*
G01X4914Y35163D01*
G01X4879Y35095D01*
G01X4843Y34991D01*
G01X4843Y34818D01*
G01X4879Y34716D01*
G01X4914Y34645D01*
G01X4983Y34577D01*
G01X5052Y34544D01*
G01X5189Y34544D01*
G01X5260Y34577D01*
G01X5328Y34645D01*
G01X5361Y34716D01*
G01X6108Y35095D02*
G01X6075Y35163D01*
G01X6004Y35234D01*
G01X5935Y35267D01*
G01X5798Y35267D01*
G01X5730Y35234D01*
G01X5659Y35163D01*
G01X5626Y35095D01*
G01X5590Y34991D01*
G01X5590Y34818D01*
G01X5626Y34716D01*
G01X5659Y34645D01*
G01X5730Y34577D01*
G01X5798Y34544D01*
G01X5935Y34544D01*
G01X6004Y34577D01*
G01X6075Y34645D01*
G01X6108Y34716D01*
G01X2042Y35095D02*
G01X2006Y35163D01*
G01X1938Y35234D01*
G01X1869Y35267D01*
G01X1732Y35267D01*
G01X1661Y35234D01*
G01X1592Y35163D01*
G01X1559Y35095D01*
G01X1524Y34991D01*
G01X1524Y34818D01*
G01X1559Y34716D01*
G01X1592Y34645D01*
G01X1661Y34577D01*
G01X1732Y34544D01*
G01X1869Y34544D01*
G01X1938Y34577D01*
G01X2006Y34645D01*
G01X2042Y34716D01*
G01X2042Y34818D01*
G01X1869Y34818D02*
G01X2042Y34818D01*
G01X2270Y35267D02*
G01X2270Y34544D01*
G01X2270Y35267D02*
G01X2753Y34544D01*
G01X2753Y35267D02*
G01X2753Y34544D01*
G01X2981Y35267D02*
G01X2981Y34544D01*
G01X2981Y35267D02*
G01X3223Y35267D01*
G01X3327Y35234D01*
G01X3395Y35163D01*
G01X3431Y35095D01*
G01X3464Y34991D01*
G01X3464Y34818D01*
G01X3431Y34716D01*
G01X3395Y34645D01*
G01X3327Y34577D01*
G01X3223Y34544D01*
G01X2981Y34544D01*
G01X11684Y35267D02*
G01X11684Y34544D01*
G01X11684Y35267D02*
G01X11993Y35267D01*
G01X12098Y35234D01*
G01X12133Y35199D01*
G01X12166Y35130D01*
G01X12166Y35062D01*
G01X12133Y34991D01*
G01X12098Y34958D01*
G01X11993Y34922D01*
G01X11684Y34922D01*
G01X11925Y34922D02*
G01X12166Y34544D01*
G01X12880Y35163D02*
G01X12809Y35234D01*
G01X12707Y35267D01*
G01X12567Y35267D01*
G01X12463Y35234D01*
G01X12395Y35163D01*
G01X12395Y35095D01*
G01X12430Y35026D01*
G01X12463Y34991D01*
G01X12534Y34958D01*
G01X12740Y34889D01*
G01X12809Y34853D01*
G01X12844Y34818D01*
G01X12880Y34749D01*
G01X12880Y34645D01*
G01X12809Y34577D01*
G01X12707Y34544D01*
G01X12567Y34544D01*
G01X12463Y34577D01*
G01X12395Y34645D01*
G01X13350Y35267D02*
G01X13350Y34544D01*
G01X13106Y35267D02*
G01X13591Y35267D01*
G01X7099Y35267D02*
G01X7099Y34544D01*
G01X6858Y35267D02*
G01X7340Y35267D01*
G01X7569Y35267D02*
G01X8054Y34544D01*
G01X8054Y35267D02*
G01X7569Y34544D01*
G01X9398Y35267D02*
G01X9398Y34544D01*
G01X9398Y35267D02*
G01X9707Y35267D01*
G01X9812Y35234D01*
G01X9847Y35199D01*
G01X9880Y35130D01*
G01X9880Y35062D01*
G01X9847Y34991D01*
G01X9812Y34958D01*
G01X9707Y34922D01*
G01X9398Y34922D01*
G01X9639Y34922D02*
G01X9880Y34544D01*
G01X10109Y35267D02*
G01X10594Y34544D01*
G01X10594Y35267D02*
G01X10109Y34544D01*
G54D20*
G01X1270Y39584D02*
G01X2359Y39584D01*
G01X1270Y40311D02*
G01X2359Y40311D01*
G01X1788Y39584D02*
G01X1788Y40311D01*
G01X1633Y41278D02*
G01X2359Y41278D01*
G01X1788Y41278D02*
G01X1684Y41174D01*
G01X1633Y41070D01*
G01X1633Y40915D01*
G01X1684Y40811D01*
G01X1788Y40707D01*
G01X1943Y40653D01*
G01X2047Y40653D01*
G01X2204Y40707D01*
G01X2308Y40811D01*
G01X2359Y40915D01*
G01X2359Y41070D01*
G01X2308Y41174D01*
G01X2204Y41278D01*
G01X1633Y41621D02*
G01X2359Y41621D01*
G01X1943Y41621D02*
G01X1788Y41672D01*
G01X1684Y41776D01*
G01X1633Y41880D01*
G01X1633Y42035D01*
G01X1270Y43003D02*
G01X2359Y43003D01*
G01X1788Y43003D02*
G01X1684Y42899D01*
G01X1633Y42795D01*
G01X1633Y42640D01*
G01X1684Y42536D01*
G01X1788Y42431D01*
G01X1943Y42378D01*
G01X2047Y42378D01*
G01X2204Y42431D01*
G01X2308Y42536D01*
G01X2359Y42640D01*
G01X2359Y42795D01*
G01X2308Y42899D01*
G01X2204Y43003D01*
G01X1270Y44146D02*
G01X2359Y44146D01*
G01X1270Y44146D02*
G01X1270Y44822D01*
G01X1788Y44146D02*
G01X1788Y44563D01*
G01X1270Y45165D02*
G01X2359Y45165D01*
G01X1633Y46130D02*
G01X2359Y46130D01*
G01X1788Y46130D02*
G01X1684Y46026D01*
G01X1633Y45921D01*
G01X1633Y45766D01*
G01X1684Y45662D01*
G01X1788Y45558D01*
G01X1943Y45507D01*
G01X2047Y45507D01*
G01X2204Y45558D01*
G01X2308Y45662D01*
G01X2359Y45766D01*
G01X2359Y45921D01*
G01X2308Y46026D01*
G01X2204Y46130D01*
G01X1788Y47044D02*
G01X1684Y46993D01*
G01X1633Y46836D01*
G01X1633Y46681D01*
G01X1684Y46526D01*
G01X1788Y46473D01*
G01X1892Y46526D01*
G01X1943Y46630D01*
G01X1996Y46889D01*
G01X2047Y46993D01*
G01X2151Y47044D01*
G01X2204Y47044D01*
G01X2308Y46993D01*
G01X2359Y46836D01*
G01X2359Y46681D01*
G01X2308Y46526D01*
G01X2204Y46473D01*
G01X1270Y47387D02*
G01X2359Y47387D01*
G01X1841Y47387D02*
G01X1684Y47544D01*
G01X1633Y47649D01*
G01X1633Y47804D01*
G01X1684Y47908D01*
G01X1841Y47959D01*
G01X2359Y47959D01*
G54D21*
G01X14224Y39589D02*
G01X14947Y39589D01*
G01X14224Y39589D02*
G01X14947Y39866D01*
G01X14224Y40143D02*
G01X14947Y39866D01*
G01X14224Y40143D02*
G01X14947Y40143D01*
G01X14224Y40369D02*
G01X14947Y40369D01*
G01X14328Y41083D02*
G01X14257Y41012D01*
G01X14224Y40910D01*
G01X14224Y40770D01*
G01X14257Y40666D01*
G01X14328Y40598D01*
G01X14396Y40598D01*
G01X14465Y40633D01*
G01X14500Y40666D01*
G01X14533Y40737D01*
G01X14602Y40943D01*
G01X14638Y41012D01*
G01X14673Y41047D01*
G01X14742Y41083D01*
G01X14846Y41083D01*
G01X14914Y41012D01*
G01X14947Y40910D01*
G01X14947Y40770D01*
G01X14914Y40666D01*
G01X14846Y40598D01*
G01X14224Y41517D02*
G01X14257Y41448D01*
G01X14328Y41377D01*
G01X14396Y41344D01*
G01X14500Y41309D01*
G01X14673Y41309D01*
G01X14775Y41344D01*
G01X14846Y41377D01*
G01X14914Y41448D01*
G01X14947Y41517D01*
G01X14947Y41654D01*
G01X14914Y41725D01*
G01X14846Y41794D01*
G01X14775Y41827D01*
G01X14673Y41862D01*
G01X14500Y41862D01*
G01X14396Y41827D01*
G01X14328Y41794D01*
G01X14257Y41725D01*
G01X14224Y41654D01*
G01X14224Y41517D01*
G01X6603Y40125D02*
G01X7327Y40125D01*
G01X6603Y40125D02*
G01X7327Y40608D01*
G01X6603Y40608D02*
G01X7327Y40608D01*
G01X6776Y41354D02*
G01X6708Y41321D01*
G01X6636Y41250D01*
G01X6603Y41182D01*
G01X6603Y41045D01*
G01X6636Y40976D01*
G01X6708Y40905D01*
G01X6776Y40872D01*
G01X6880Y40836D01*
G01X7053Y40836D01*
G01X7155Y40872D01*
G01X7226Y40905D01*
G01X7294Y40976D01*
G01X7327Y41045D01*
G01X7327Y41182D01*
G01X7294Y41250D01*
G01X7226Y41321D01*
G01X7155Y41354D01*
G01X9143Y39701D02*
G01X9867Y39701D01*
G01X9143Y39701D02*
G01X9143Y40011D01*
G01X9176Y40115D01*
G01X9212Y40151D01*
G01X9281Y40184D01*
G01X9349Y40184D01*
G01X9420Y40151D01*
G01X9453Y40115D01*
G01X9489Y40011D01*
G01X9489Y39701D01*
G01X9489Y39942D02*
G01X9867Y40184D01*
G01X9248Y40897D02*
G01X9176Y40826D01*
G01X9143Y40725D01*
G01X9143Y40585D01*
G01X9176Y40481D01*
G01X9248Y40412D01*
G01X9316Y40412D01*
G01X9385Y40448D01*
G01X9420Y40481D01*
G01X9453Y40552D01*
G01X9522Y40758D01*
G01X9557Y40826D01*
G01X9593Y40862D01*
G01X9662Y40897D01*
G01X9766Y40897D01*
G01X9834Y40826D01*
G01X9867Y40725D01*
G01X9867Y40585D01*
G01X9834Y40481D01*
G01X9766Y40412D01*
G01X9143Y41367D02*
G01X9867Y41367D01*
G01X9143Y41123D02*
G01X9143Y41609D01*
G01X11788Y40151D02*
G01X11716Y40082D01*
G01X11683Y39978D01*
G01X11683Y39841D01*
G01X11716Y39737D01*
G01X11788Y39668D01*
G01X11856Y39668D01*
G01X11925Y39704D01*
G01X11960Y39737D01*
G01X11993Y39805D01*
G01X12062Y40013D01*
G01X12097Y40082D01*
G01X12133Y40118D01*
G01X12202Y40151D01*
G01X12306Y40151D01*
G01X12374Y40082D01*
G01X12407Y39978D01*
G01X12407Y39841D01*
G01X12374Y39737D01*
G01X12306Y39668D01*
G01X11856Y40897D02*
G01X11788Y40864D01*
G01X11716Y40793D01*
G01X11683Y40725D01*
G01X11683Y40587D01*
G01X11716Y40519D01*
G01X11788Y40448D01*
G01X11856Y40415D01*
G01X11960Y40379D01*
G01X12133Y40379D01*
G01X12235Y40415D01*
G01X12306Y40448D01*
G01X12374Y40519D01*
G01X12407Y40587D01*
G01X12407Y40725D01*
G01X12374Y40793D01*
G01X12306Y40864D01*
G01X12235Y40897D01*
G01X11683Y41126D02*
G01X12407Y41126D01*
G01X11683Y41609D02*
G01X12166Y41126D01*
G01X11993Y41299D02*
G01X12407Y41609D01*
G01X3903Y39069D02*
G01X4627Y39069D01*
G01X3903Y39069D02*
G01X4627Y39345D01*
G01X3903Y39622D02*
G01X4627Y39345D01*
G01X3903Y39622D02*
G01X4627Y39622D01*
G01X3903Y40057D02*
G01X3937Y39988D01*
G01X4008Y39919D01*
G01X4076Y39884D01*
G01X4180Y39848D01*
G01X4353Y39848D01*
G01X4455Y39884D01*
G01X4526Y39919D01*
G01X4594Y39988D01*
G01X4627Y40057D01*
G01X4627Y40194D01*
G01X4594Y40265D01*
G01X4526Y40333D01*
G01X4455Y40366D01*
G01X4353Y40402D01*
G01X4180Y40402D01*
G01X4076Y40366D01*
G01X4008Y40333D01*
G01X3937Y40265D01*
G01X3903Y40194D01*
G01X3903Y40057D01*
G01X4008Y41113D02*
G01X3937Y41045D01*
G01X3903Y40940D01*
G01X3903Y40803D01*
G01X3937Y40699D01*
G01X4008Y40631D01*
G01X4076Y40631D01*
G01X4145Y40664D01*
G01X4180Y40699D01*
G01X4213Y40768D01*
G01X4282Y40976D01*
G01X4318Y41045D01*
G01X4353Y41080D01*
G01X4422Y41113D01*
G01X4526Y41113D01*
G01X4594Y41045D01*
G01X4627Y40940D01*
G01X4627Y40803D01*
G01X4594Y40699D01*
G01X4526Y40631D01*
G01X3903Y41342D02*
G01X4627Y41342D01*
G01X3903Y46689D02*
G01X4627Y46965D01*
G01X3903Y47242D02*
G01X4627Y46965D01*
G01X4076Y47986D02*
G01X4008Y47953D01*
G01X3937Y47885D01*
G01X3903Y47814D01*
G01X3903Y47677D01*
G01X3937Y47608D01*
G01X4008Y47539D01*
G01X4076Y47504D01*
G01X4180Y47468D01*
G01X4353Y47468D01*
G01X4455Y47504D01*
G01X4526Y47539D01*
G01X4594Y47608D01*
G01X4627Y47677D01*
G01X4627Y47814D01*
G01X4594Y47885D01*
G01X4526Y47953D01*
G01X4455Y47986D01*
G01X4076Y48733D02*
G01X4008Y48700D01*
G01X3937Y48629D01*
G01X3903Y48560D01*
G01X3903Y48423D01*
G01X3937Y48355D01*
G01X4008Y48284D01*
G01X4076Y48251D01*
G01X4180Y48215D01*
G01X4353Y48215D01*
G01X4455Y48251D01*
G01X4526Y48284D01*
G01X4594Y48355D01*
G01X4627Y48423D01*
G01X4627Y48560D01*
G01X4594Y48629D01*
G01X4526Y48700D01*
G01X4455Y48733D01*
G01X6616Y47207D02*
G01X6548Y47171D01*
G01X6477Y47103D01*
G01X6443Y47034D01*
G01X6443Y46897D01*
G01X6477Y46826D01*
G01X6548Y46757D01*
G01X6616Y46724D01*
G01X6720Y46689D01*
G01X6893Y46689D01*
G01X6995Y46724D01*
G01X7066Y46757D01*
G01X7134Y46826D01*
G01X7167Y46897D01*
G01X7167Y47034D01*
G01X7134Y47103D01*
G01X7066Y47171D01*
G01X6995Y47207D01*
G01X6893Y47207D01*
G01X6893Y47034D02*
G01X6893Y47207D01*
G01X6443Y47435D02*
G01X7167Y47435D01*
G01X6443Y47435D02*
G01X7167Y47918D01*
G01X6443Y47918D02*
G01X7167Y47918D01*
G01X6443Y48146D02*
G01X7167Y48146D01*
G01X6443Y48146D02*
G01X6443Y48388D01*
G01X6477Y48492D01*
G01X6548Y48560D01*
G01X6616Y48596D01*
G01X6720Y48629D01*
G01X6893Y48629D01*
G01X6995Y48596D01*
G01X7066Y48560D01*
G01X7134Y48492D01*
G01X7167Y48388D01*
G01X7167Y48146D01*
G01X9156Y47207D02*
G01X9088Y47171D01*
G01X9017Y47103D01*
G01X8983Y47034D01*
G01X8983Y46897D01*
G01X9017Y46826D01*
G01X9088Y46757D01*
G01X9156Y46724D01*
G01X9260Y46689D01*
G01X9433Y46689D01*
G01X9535Y46724D01*
G01X9606Y46757D01*
G01X9674Y46826D01*
G01X9707Y46897D01*
G01X9707Y47034D01*
G01X9674Y47103D01*
G01X9606Y47171D01*
G01X9535Y47207D01*
G01X9433Y47207D01*
G01X9433Y47034D02*
G01X9433Y47207D01*
G01X8983Y47435D02*
G01X9707Y47435D01*
G01X8983Y47435D02*
G01X9707Y47918D01*
G01X8983Y47918D02*
G01X9707Y47918D01*
G01X8983Y48146D02*
G01X9707Y48146D01*
G01X8983Y48146D02*
G01X8983Y48388D01*
G01X9017Y48492D01*
G01X9088Y48560D01*
G01X9156Y48596D01*
G01X9260Y48629D01*
G01X9433Y48629D01*
G01X9535Y48596D01*
G01X9606Y48560D01*
G01X9674Y48492D01*
G01X9707Y48388D01*
G01X9707Y48146D01*
G01X11696Y47207D02*
G01X11628Y47171D01*
G01X11557Y47103D01*
G01X11523Y47034D01*
G01X11523Y46897D01*
G01X11557Y46826D01*
G01X11628Y46757D01*
G01X11696Y46724D01*
G01X11800Y46689D01*
G01X11973Y46689D01*
G01X12075Y46724D01*
G01X12146Y46757D01*
G01X12214Y46826D01*
G01X12247Y46897D01*
G01X12247Y47034D01*
G01X12214Y47103D01*
G01X12146Y47171D01*
G01X12075Y47207D01*
G01X11973Y47207D01*
G01X11973Y47034D02*
G01X11973Y47207D01*
G01X11523Y47435D02*
G01X12247Y47435D01*
G01X11523Y47435D02*
G01X12247Y47918D01*
G01X11523Y47918D02*
G01X12247Y47918D01*
G01X11523Y48146D02*
G01X12247Y48146D01*
G01X11523Y48146D02*
G01X11523Y48388D01*
G01X11557Y48492D01*
G01X11628Y48560D01*
G01X11696Y48596D01*
G01X11800Y48629D01*
G01X11973Y48629D01*
G01X12075Y48596D01*
G01X12146Y48560D01*
G01X12214Y48492D01*
G01X12247Y48388D01*
G01X12247Y48146D01*
G01X14236Y47207D02*
G01X14168Y47171D01*
G01X14097Y47103D01*
G01X14063Y47034D01*
G01X14063Y46897D01*
G01X14097Y46826D01*
G01X14168Y46757D01*
G01X14236Y46724D01*
G01X14340Y46689D01*
G01X14513Y46689D01*
G01X14615Y46724D01*
G01X14686Y46757D01*
G01X14754Y46826D01*
G01X14787Y46897D01*
G01X14787Y47034D01*
G01X14754Y47103D01*
G01X14686Y47171D01*
G01X14615Y47207D01*
G01X14513Y47207D01*
G01X14513Y47034D02*
G01X14513Y47207D01*
G01X14063Y47435D02*
G01X14787Y47435D01*
G01X14063Y47435D02*
G01X14787Y47918D01*
G01X14063Y47918D02*
G01X14787Y47918D01*
G01X14063Y48146D02*
G01X14787Y48146D01*
G01X14063Y48146D02*
G01X14063Y48388D01*
G01X14097Y48492D01*
G01X14168Y48560D01*
G01X14236Y48596D01*
G01X14340Y48629D01*
G01X14513Y48629D01*
G01X14615Y48596D01*
G01X14686Y48560D01*
G01X14754Y48492D01*
G01X14787Y48388D01*
G01X14787Y48146D01*
G54D20*
G01X1016Y11280D02*
G01X1066Y11175D01*
G01X1170Y11071D01*
G01X1275Y11021D01*
G01X1430Y10970D01*
G01X1689Y10970D01*
G01X1846Y11021D01*
G01X1950Y11071D01*
G01X2054Y11175D01*
G01X2105Y11280D01*
G01X2105Y11488D01*
G01X2054Y11592D01*
G01X1950Y11696D01*
G01X1846Y11747D01*
G01X1689Y11800D01*
G01X1430Y11800D01*
G01X1275Y11747D01*
G01X1170Y11696D01*
G01X1066Y11592D01*
G01X1016Y11488D01*
G01X1016Y11280D01*
G01X1016Y12143D02*
G01X2105Y12143D01*
G01X2105Y12143D02*
G01X2105Y12766D01*
G01X1016Y13108D02*
G01X2105Y13108D01*
G01X1016Y13108D02*
G01X1016Y13784D01*
G01X1534Y13108D02*
G01X1534Y13525D01*
G01X2105Y13108D02*
G01X2105Y13784D01*
G01X1016Y14127D02*
G01X2105Y14127D01*
G01X1016Y14127D02*
G01X1016Y14490D01*
G01X1066Y14648D01*
G01X1170Y14752D01*
G01X1275Y14803D01*
G01X1430Y14856D01*
G01X1689Y14856D01*
G01X1846Y14803D01*
G01X1950Y14752D01*
G01X2054Y14648D01*
G01X2105Y14490D01*
G01X2105Y14127D01*
G01X1170Y16725D02*
G01X1066Y16621D01*
G01X1016Y16466D01*
G01X1016Y16258D01*
G01X1066Y16101D01*
G01X1170Y15999D01*
G01X1275Y15999D01*
G01X1379Y16050D01*
G01X1430Y16101D01*
G01X1483Y16205D01*
G01X1587Y16517D01*
G01X1638Y16621D01*
G01X1689Y16672D01*
G01X1793Y16725D01*
G01X1950Y16725D01*
G01X2054Y16621D01*
G01X2105Y16466D01*
G01X2105Y16258D01*
G01X2054Y16101D01*
G01X1950Y15999D01*
G01X1534Y17691D02*
G01X1430Y17586D01*
G01X1379Y17485D01*
G01X1379Y17327D01*
G01X1430Y17223D01*
G01X1534Y17119D01*
G01X1689Y17068D01*
G01X1793Y17068D01*
G01X1950Y17119D01*
G01X2054Y17223D01*
G01X2105Y17327D01*
G01X2105Y17485D01*
G01X2054Y17586D01*
G01X1950Y17691D01*
G01X1379Y18033D02*
G01X2105Y18033D01*
G01X1689Y18033D02*
G01X1534Y18087D01*
G01X1430Y18191D01*
G01X1379Y18295D01*
G01X1379Y18450D01*
G01X1689Y18793D02*
G01X1689Y19415D01*
G01X1587Y19415D01*
G01X1483Y19364D01*
G01X1430Y19314D01*
G01X1379Y19209D01*
G01X1379Y19052D01*
G01X1430Y18948D01*
G01X1534Y18844D01*
G01X1689Y18793D01*
G01X1793Y18793D01*
G01X1950Y18844D01*
G01X2054Y18948D01*
G01X2105Y19052D01*
G01X2105Y19209D01*
G01X2054Y19314D01*
G01X1950Y19415D01*
G01X1689Y19758D02*
G01X1689Y20383D01*
G01X1587Y20383D01*
G01X1483Y20330D01*
G01X1430Y20279D01*
G01X1379Y20175D01*
G01X1379Y20020D01*
G01X1430Y19916D01*
G01X1534Y19811D01*
G01X1689Y19758D01*
G01X1793Y19758D01*
G01X1950Y19811D01*
G01X2054Y19916D01*
G01X2105Y20020D01*
G01X2105Y20175D01*
G01X2054Y20279D01*
G01X1950Y20383D01*
G01X1379Y20726D02*
G01X2105Y20726D01*
G01X1587Y20726D02*
G01X1430Y20881D01*
G01X1379Y20985D01*
G01X1379Y21142D01*
G01X1430Y21244D01*
G01X1587Y21297D01*
G01X2105Y21297D01*
G54D21*
G01X3568Y11656D02*
G01X3500Y11620D01*
G01X3429Y11551D01*
G01X3395Y11483D01*
G01X3395Y11346D01*
G01X3429Y11275D01*
G01X3500Y11206D01*
G01X3568Y11173D01*
G01X3672Y11137D01*
G01X3845Y11137D01*
G01X3947Y11173D01*
G01X4018Y11206D01*
G01X4086Y11275D01*
G01X4119Y11346D01*
G01X4119Y11483D01*
G01X4086Y11551D01*
G01X4018Y11620D01*
G01X3947Y11656D01*
G01X3845Y11656D01*
G01X3845Y11483D02*
G01X3845Y11656D01*
G01X3395Y11884D02*
G01X4119Y11884D01*
G01X3395Y11884D02*
G01X4119Y12367D01*
G01X3395Y12367D02*
G01X4119Y12367D01*
G01X3395Y12595D02*
G01X4119Y12595D01*
G01X3395Y12595D02*
G01X3395Y12837D01*
G01X3429Y12941D01*
G01X3500Y13009D01*
G01X3568Y13045D01*
G01X3672Y13078D01*
G01X3845Y13078D01*
G01X3947Y13045D01*
G01X4018Y13009D01*
G01X4086Y12941D01*
G01X4119Y12837D01*
G01X4119Y12595D01*
G01X3396Y13573D02*
G01X4119Y13850D01*
G01X3396Y14127D02*
G01X4119Y13850D01*
G01X3568Y14871D02*
G01X3500Y14838D01*
G01X3429Y14770D01*
G01X3396Y14699D01*
G01X3396Y14561D01*
G01X3429Y14493D01*
G01X3500Y14424D01*
G01X3568Y14389D01*
G01X3672Y14353D01*
G01X3845Y14353D01*
G01X3947Y14389D01*
G01X4018Y14424D01*
G01X4086Y14493D01*
G01X4119Y14561D01*
G01X4119Y14699D01*
G01X4086Y14770D01*
G01X4018Y14838D01*
G01X3947Y14871D01*
G01X3568Y15618D02*
G01X3500Y15585D01*
G01X3429Y15514D01*
G01X3396Y15445D01*
G01X3396Y15308D01*
G01X3429Y15240D01*
G01X3500Y15168D01*
G01X3568Y15135D01*
G01X3672Y15100D01*
G01X3845Y15100D01*
G01X3947Y15135D01*
G01X4018Y15168D01*
G01X4086Y15240D01*
G01X4119Y15308D01*
G01X4119Y15445D01*
G01X4086Y15514D01*
G01X4018Y15585D01*
G01X3947Y15618D01*
G01X3660Y16860D02*
G01X3588Y16791D01*
G01X3555Y16687D01*
G01X3555Y16550D01*
G01X3588Y16446D01*
G01X3660Y16377D01*
G01X3728Y16377D01*
G01X3797Y16413D01*
G01X3832Y16446D01*
G01X3865Y16515D01*
G01X3934Y16723D01*
G01X3969Y16791D01*
G01X4005Y16827D01*
G01X4074Y16860D01*
G01X4178Y16860D01*
G01X4246Y16791D01*
G01X4279Y16687D01*
G01X4279Y16550D01*
G01X4246Y16446D01*
G01X4178Y16377D01*
G01X3728Y17607D02*
G01X3660Y17574D01*
G01X3588Y17503D01*
G01X3555Y17434D01*
G01X3555Y17297D01*
G01X3588Y17228D01*
G01X3660Y17157D01*
G01X3728Y17124D01*
G01X3832Y17089D01*
G01X4005Y17089D01*
G01X4107Y17124D01*
G01X4178Y17157D01*
G01X4246Y17228D01*
G01X4279Y17297D01*
G01X4279Y17434D01*
G01X4246Y17503D01*
G01X4178Y17574D01*
G01X4107Y17607D01*
G01X3555Y17835D02*
G01X4279Y17835D01*
G01X4279Y17835D02*
G01X4279Y18249D01*
G01X3594Y19403D02*
G01X3523Y19334D01*
G01X3489Y19230D01*
G01X3489Y19093D01*
G01X3523Y18989D01*
G01X3594Y18920D01*
G01X3662Y18920D01*
G01X3731Y18956D01*
G01X3766Y18989D01*
G01X3799Y19057D01*
G01X3868Y19265D01*
G01X3904Y19334D01*
G01X3939Y19370D01*
G01X4008Y19403D01*
G01X4112Y19403D01*
G01X4180Y19334D01*
G01X4213Y19230D01*
G01X4213Y19093D01*
G01X4180Y18989D01*
G01X4112Y18920D01*
G01X3489Y19631D02*
G01X4213Y19631D01*
G01X3489Y19631D02*
G01X3489Y19873D01*
G01X3523Y19977D01*
G01X3594Y20045D01*
G01X3662Y20081D01*
G01X3766Y20116D01*
G01X3939Y20116D01*
G01X4041Y20081D01*
G01X4112Y20045D01*
G01X4180Y19977D01*
G01X4213Y19873D01*
G01X4213Y19631D01*
G01X3489Y20619D02*
G01X4213Y20342D01*
G01X3489Y20619D02*
G01X4213Y20896D01*
G01X3972Y20447D02*
G01X3972Y20792D01*
G54D15*
G75*
G01X26153Y32483D02*
G03X30197Y31469I2529J1515D01*
G01*
G75*
G01X30176Y36537D02*
G03X26142Y35492I-1494J-2539D01*
G01*
G75*
G01X28682Y31051D02*
G03X31629Y33998I0J2947D01*
G01*
G75*
G01X31629Y33998D02*
G03X28682Y36945I-2947J0D01*
G01*
G54D10*
G75*
G01X14224Y10884D02*
G02X9906Y10884I-2159J210D01*
G01*
G75*
G01X9906Y17996D02*
G02X14224Y17996I2159J-210D01*
G01*
G54D17*
G75*
G01X18669Y36520D02*
G03X18674Y36520I3J-300D01*
G01*
G54D10*
G75*
G01X19685Y37221D02*
G03X20955Y37221I635J0D01*
G01*
G54D18*
G75*
G01X16520Y37460D02*
G03X16523Y37460I1J-150D01*
G01*
G54D16*
G75*
G01X31222Y33998D02*
G03X31222Y33998I-2540J0D01*
G01*
G36*
G01X30734Y42633D02*
G01X38862Y42633D01*
G01X38862Y42367D01*
G01X30734Y42367D01*
G01X30734Y42633D01*
G37*
G36*
G01X30734Y46443D02*
G01X30988Y46443D01*
G01X30988Y42633D01*
G01X30734Y42633D01*
G01X30734Y46443D01*
G37*
G36*
G01X30734Y46443D02*
G01X38630Y46443D01*
G01X38630Y46177D01*
G01X30734Y46177D01*
G01X30734Y46443D01*
G37*
G36*
G01X38608Y46443D02*
G01X38862Y46443D01*
G01X38862Y42633D01*
G01X38608Y42633D01*
G01X38608Y46443D01*
G37*
G36*
G01X20574Y46697D02*
G01X28470Y46697D01*
G01X28470Y46431D01*
G01X20574Y46431D01*
G01X20574Y46697D01*
G37*
G36*
G01X20342Y42887D02*
G01X28470Y42887D01*
G01X28470Y42621D01*
G01X20342Y42621D01*
G01X20342Y42887D01*
G37*
G36*
G01X28216Y46685D02*
G01X28470Y46685D01*
G01X28470Y42875D01*
G01X28216Y42875D01*
G01X28216Y46685D01*
G37*
G36*
G01X20320Y46697D02*
G01X20574Y46697D01*
G01X20574Y42633D01*
G01X20320Y42633D01*
G01X20320Y46697D01*
G37*
G36*
G01X762Y36029D02*
G01X14224Y36029D01*
G01X14224Y35775D01*
G01X762Y35775D01*
G01X762Y36029D01*
G37*
G36*
G01X14224Y36029D02*
G01X14478Y36029D01*
G01X14478Y31711D01*
G01X14224Y31711D01*
G01X14224Y36029D01*
G37*
G36*
G01X762Y31711D02*
G01X14478Y31711D01*
G01X14478Y31457D01*
G01X762Y31457D01*
G01X762Y31711D01*
G37*
G36*
G01X762Y36029D02*
G01X1016Y36029D01*
G01X1016Y31457D01*
G01X762Y31457D01*
G01X762Y36029D01*
G37*
G36*
G01X34423Y20627D02*
G01X47123Y20627D01*
G01X47123Y20373D01*
G01X34423Y20373D01*
G01X34423Y20627D01*
G37*
G36*
G01X47123Y20627D02*
G01X47377Y20627D01*
G01X47377Y9959D01*
G01X47123Y9959D01*
G01X47123Y20627D01*
G37*
G36*
G01X34423Y10213D02*
G01X47250Y10213D01*
G01X47250Y9959D01*
G01X34423Y9959D01*
G01X34423Y10213D01*
G37*
G36*
G01X34296Y20627D02*
G01X34550Y20627D01*
G01X34550Y9959D01*
G01X34296Y9959D01*
G01X34296Y20627D01*
G37*
G36*
G01X34212Y34343D02*
G01X34466Y34343D01*
G01X34466Y23675D01*
G01X34212Y23675D01*
G01X34212Y34343D01*
G37*
G36*
G01X34339Y23929D02*
G01X47166Y23929D01*
G01X47166Y23675D01*
G01X34339Y23675D01*
G01X34339Y23929D01*
G37*
G36*
G01X47039Y34343D02*
G01X47293Y34343D01*
G01X47293Y23675D01*
G01X47039Y23675D01*
G01X47039Y34343D01*
G37*
G36*
G01X34339Y34343D02*
G01X47039Y34343D01*
G01X47039Y34089D01*
G01X34339Y34089D01*
G01X34339Y34343D01*
G37*
G36*
G01X34216Y2410D02*
G01X47424Y2410D01*
G01X47424Y2156D01*
G01X34216Y2156D01*
G01X34216Y2410D01*
G37*
G36*
G01X34216Y6347D02*
G01X34470Y6347D01*
G01X34470Y2283D01*
G01X34216Y2283D01*
G01X34216Y6347D01*
G37*
G36*
G01X34216Y6347D02*
G01X47170Y6347D01*
G01X47170Y6093D01*
G01X34216Y6093D01*
G01X34216Y6347D01*
G37*
G36*
G01X47170Y6347D02*
G01X47424Y6347D01*
G01X47424Y2283D01*
G01X47170Y2283D01*
G01X47170Y6347D01*
G37*
G36*
G01X2794Y1993D02*
G01X32766Y1993D01*
G01X32766Y1739D01*
G01X2794Y1739D01*
G01X2794Y1993D01*
G37*
G36*
G01X32766Y29933D02*
G01X33020Y29933D01*
G01X33020Y1739D01*
G01X32766Y1739D01*
G01X32766Y29933D01*
G37*
G36*
G01X2794Y29933D02*
G01X3048Y29933D01*
G01X3048Y1739D01*
G01X2794Y1739D01*
G01X2794Y29933D01*
G37*
G36*
G01X2794Y29933D02*
G01X32766Y29933D01*
G01X32766Y29679D01*
G01X2794Y29679D01*
G01X2794Y29933D01*
G37*
G36*
G01X6697Y21460D02*
G01X6951Y21460D01*
G01X6951Y10629D01*
G01X6697Y10629D01*
G01X6697Y21460D01*
G37*
G36*
G01X2794Y10883D02*
G01X6858Y10883D01*
G01X6858Y10629D01*
G01X2794Y10629D01*
G01X2794Y10883D01*
G37*
G36*
G01X2887Y21460D02*
G01X6697Y21460D01*
G01X6697Y21206D01*
G01X2887Y21206D01*
G01X2887Y21460D01*
G37*
G36*
G01X42913Y37547D02*
G01X47485Y37547D01*
G01X47485Y37293D01*
G01X42913Y37293D01*
G01X42913Y37547D01*
G37*
G36*
G01X47231Y48469D02*
G01X47485Y48469D01*
G01X47485Y37293D01*
G01X47231Y37293D01*
G01X47231Y48469D01*
G37*
G36*
G01X42913Y48469D02*
G01X47231Y48469D01*
G01X47231Y48215D01*
G01X42913Y48215D01*
G01X42913Y48469D01*
G37*
G36*
G01X42913Y48215D02*
G01X43167Y48215D01*
G01X43167Y37293D01*
G01X42913Y37293D01*
G01X42913Y48215D01*
G37*
G36*
G01X2794Y49229D02*
G01X16002Y49229D01*
G01X16002Y48975D01*
G01X2794Y48975D01*
G01X2794Y49229D01*
G37*
G36*
G01X15748Y49229D02*
G01X16002Y49229D01*
G01X16002Y38561D01*
G01X15748Y38561D01*
G01X15748Y49229D01*
G37*
G36*
G01X2794Y38561D02*
G01X7874Y38561D01*
G01X7874Y38307D01*
G01X2794Y38307D01*
G01X2794Y38561D01*
G37*
G36*
G01X2794Y48975D02*
G01X3048Y48975D01*
G01X3048Y38307D01*
G01X2794Y38307D01*
G01X2794Y48975D01*
G37*
G36*
G01X10922Y38561D02*
G01X16002Y38561D01*
G01X16002Y38307D01*
G01X10922Y38307D01*
G01X10922Y38561D01*
G37*
G36*
G01X7874Y39323D02*
G01X8128Y39323D01*
G01X8128Y38307D01*
G01X7874Y38307D01*
G01X7874Y39323D01*
G37*
G36*
G01X10668Y39323D02*
G01X10922Y39323D01*
G01X10922Y38307D01*
G01X10668Y38307D01*
G01X10668Y39323D01*
G37*
G36*
G01X7874Y39323D02*
G01X10922Y39323D01*
G01X10922Y39069D01*
G01X7874Y39069D01*
G01X7874Y39323D01*
G37*
M00*
M02*
