G04 Layer: TopSolderMaskLayer*
G04 EasyEDA v5.9.42, Sun, 03 Mar 2019 13:32:01 GMT*
G04 8358539c5ca44937bce32fba3cbe82d4*
G04 Gerber Generator version 0.2*
G04 Scale: 100 percent, Rotated: No, Reflected: No *
G04 Dimensions in millimeters *
G04 leading zeros omitted , absolute positions ,3 integer and 3 decimal *
%FSLAX33Y33*%
%MOMM*%
G90*
G71D02*

%ADD23C,2.235200*%
%ADD24C,1.703197*%
%ADD25R,1.703197X1.703197*%
%ADD26C,1.803197*%

%LPD*%
G54D23*
G01X29972Y33997D03*
G01X27391Y33997D03*
G54D24*
G01X11938Y16979D03*
G01X11938Y11899D03*
G01X24130Y3009D03*
G01X24130Y5549D03*
G01X24130Y8089D03*
G01X24130Y10629D03*
G01X24130Y13169D03*
G01X24130Y15709D03*
G01X24130Y18249D03*
G01X24130Y20789D03*
G01X24130Y23329D03*
G01X24130Y25869D03*
G01X24130Y28409D03*
G01X24130Y30949D03*
G01X24130Y33489D03*
G01X24130Y36029D03*
G01X16510Y3009D03*
G01X16510Y5549D03*
G01X16510Y8089D03*
G01X16510Y10629D03*
G01X16510Y13169D03*
G01X16510Y15709D03*
G01X16510Y18249D03*
G01X16510Y20789D03*
G01X16510Y23329D03*
G01X16510Y25869D03*
G01X16510Y28409D03*
G01X16510Y30949D03*
G01X16510Y33489D03*
G54D25*
G01X16510Y36029D03*
G54D26*
G01X45707Y41611D03*
G01X45707Y44151D03*
G01X45707Y39071D03*
G01X45707Y46691D03*
G01X35740Y4823D03*
G01X38280Y4823D03*
G01X40820Y4823D03*
G01X43360Y4823D03*
G01X45900Y4823D03*
G01X39673Y30185D03*
G01X42213Y30185D03*
G01X39673Y27645D03*
G01X42213Y27645D03*
G01X39673Y25105D03*
G01X42213Y25105D03*
G01X39673Y32725D03*
G01X42213Y32725D03*
G01X39757Y16469D03*
G01X42297Y16469D03*
G01X39757Y13929D03*
G01X42297Y13929D03*
G01X39757Y11389D03*
G01X42297Y11389D03*
G01X39757Y19009D03*
G01X42297Y19009D03*
G01X26982Y45209D03*
G54D24*
G01X21902Y45209D03*
G01X24442Y45209D03*
G54D26*
G01X31865Y44955D03*
G01X34405Y44955D03*
G01X36945Y44955D03*
G01X5080Y33235D03*
G01X7620Y33235D03*
G01X10160Y33235D03*
G01X2540Y33235D03*
G01X12700Y33235D03*
G01X6858Y42879D03*
G01X6858Y45419D03*
G01X9398Y42879D03*
G01X9398Y45419D03*
G01X11938Y42879D03*
G01X11938Y45419D03*
G01X4318Y42879D03*
G01X4318Y45419D03*
G01X14478Y42879D03*
G01X14478Y45419D03*
G01X5427Y12062D03*
G01X5427Y14602D03*
G01X5427Y17142D03*
G01X5427Y19682D03*
M00*
M02*
